#N canvas 267 416 910 516 10;
#X obj 26 17 cnv 15 600 400 empty empty empty 20 12 0 14 -191407 -66577
0;
#X obj 222 35 vsl 15 128 2000 10000 0 1 cymbal_pitch_3 empty empty
0 -9 0 10 -262144 -1 -1 8300 1;
#X obj 66 222 vsl 15 128 250 4000 0 1 cymbal_hpf empty empty 0 -9 0
10 -262144 -1 -1 6000 1;
#X obj 305 35 vsl 15 128 200 4000 0 1 cymbal_decay empty empty 0 -9
0 10 -262144 -1 -1 10800 1;
#X obj 67 35 vsl 15 128 2000 10000 0 1 cymbal_pitch_1 empty empty 0
-9 0 10 -262144 -1 -1 8900 1;
#X obj 522 33 bng 80 250 50 0 cymbal_bang empty CYMBAL 7 40 0 19 -258113
-1 -1;
#X text 64 354 HPF;
#X text 47 167 Pitch 1;
#X text 207 167 Pitch 3;
#X obj 141 35 vsl 15 128 2000 10000 0 1 cymbal_pitch_2 empty empty
0 -9 0 10 -262144 -1 -1 9400 1;
#X text 121 167 Pitch 2;
#X obj 383 35 vsl 15 128 10 5000 0 1 cymbal_fm_width empty empty 0
-9 0 10 -262144 -1 -1 5900 1;
#X text 367 167 FM tune;
#X obj 467 35 vsl 15 128 0 10000 0 1 cymbal_fm_depth empty empty 0
-9 0 10 -262144 -1 -1 4300 1;
#X text 451 167 FM depth;
#N canvas 1187 204 733 689 cymbal 0;
#X obj 330 437 *~;
#X obj 330 540 hip~ 10000;
#X obj 330 516 hip~ 10000;
#X obj 330 491 hip~ 10000;
#X obj 330 466 hip~ 10000;
#X obj 440 163 t b b;
#X obj 440 235 pack;
#X obj 440 213 f;
#X msg 440 258 0 \$1;
#X obj 455 109 nbx 5 14 6 2000 0 1 empty cymbal_decay empty 0 -8 0
10 -262144 -1 -1 2000 256;
#X obj 440 50 bng 15 250 50 0 empty cymbal_bang empty 17 7 0 10 -262144
-1 -1;
#X obj 435 432 nbx 5 14 500 6500 0 1 empty cymbal_hpf empty 0 -8 0
10 -262144 -1 -1 2021.65 256;
#X text 435 414 hpf;
#X msg 485 258 1 0;
#N canvas 126 363 450 300 osc_pair_1 0;
#X obj 125 273 expr~ $v1 > 0.5;
#X obj 125 246 osc~ 8220;
#X obj 224 106 osc~ 7540;
#X obj 125 45 nbx 5 14 2000 10000 0 1 empty cymbal_pitch_1 empty 0
-8 0 10 -262144 -1 -1 7606.3 256;
#X text 78 41 pitch 1;
#X obj 125 301 outlet~;
#X obj 125 89 sig~;
#X obj 125 222 +~;
#X obj 224 82 - 220;
#X obj 251 -16 inlet;
#X obj 186 10 bng 15 250 50 0 empty empty empty 17 7 0 10 -262144 -1
-1;
#X obj 224 198 *~;
#X obj 305 89 nbx 5 14 0 10000 0 1 empty empty empty 0 -8 0 10 -262144
-1 -1 3385.83 256;
#X obj 224 146 expr~ $v1 > 0.5;
#X obj 305 20 inlet;
#X connect 0 0 5 0;
#X connect 1 0 0 0;
#X connect 2 0 13 0;
#X connect 3 0 6 0;
#X connect 3 0 8 0;
#X connect 6 0 7 0;
#X connect 7 0 1 0;
#X connect 8 0 2 0;
#X connect 9 0 10 0;
#X connect 9 0 8 1;
#X connect 10 0 3 0;
#X connect 10 0 12 0;
#X connect 11 0 7 1;
#X connect 12 0 11 1;
#X connect 13 0 11 0;
#X connect 14 0 12 0;
#X restore 234 295 pd osc_pair_1;
#N canvas 497 355 474 372 osc_pair_2 0;
#X text 85 46 pitch 2;
#X obj 134 49 nbx 5 14 2000 10000 0 1 empty cymbal_pitch_2 empty 0
-8 0 10 -262144 -1 -1 7921.26 256;
#X obj 134 281 outlet~;
#X obj 233 140 expr~ $v1 > 0.5;
#X obj 134 256 expr~ $v1 > 0.5;
#X obj 134 229 osc~ 8220;
#X obj 233 116 osc~ 7540;
#X obj 134 94 sig~;
#X obj 134 205 +~;
#X obj 233 93 + 300;
#X obj 260 -24 inlet;
#X obj 260 59 * 1.55;
#X obj 233 6 bng 15 250 50 0 empty empty empty 17 7 0 10 -262144 -1
-1;
#X obj 315 99 nbx 5 14 0 10000 0 1 empty empty empty 0 -8 0 10 -262144
-1 -1 3385.83 256;
#X obj 233 165 *~;
#X obj 315 -24 inlet;
#X connect 1 0 7 0;
#X connect 1 0 9 0;
#X connect 3 0 14 0;
#X connect 4 0 2 0;
#X connect 5 0 4 0;
#X connect 6 0 3 0;
#X connect 7 0 8 0;
#X connect 8 0 5 0;
#X connect 9 0 6 0;
#X connect 10 0 11 0;
#X connect 10 0 12 0;
#X connect 11 0 9 1;
#X connect 12 0 1 0;
#X connect 12 0 13 0;
#X connect 13 0 14 1;
#X connect 14 0 8 1;
#X connect 15 0 13 0;
#X restore 287 317 pd osc_pair_2;
#N canvas 481 436 524 526 osc_pair_3 0;
#X obj 145 55 nbx 5 14 2000 10000 0 1 empty cymbal_pitch_3 empty 0
-8 0 10 -262144 -1 -1 7228.35 256;
#X text 97 51 pitch 3;
#X obj 145 325 outlet~;
#X obj 244 150 expr~ $v1 > 0.5;
#X obj 145 297 expr~ $v1 > 0.5;
#X obj 145 270 osc~ 8220;
#X obj 244 126 osc~ 7540;
#X obj 145 86 sig~;
#X obj 145 246 +~;
#X obj 244 103 + 250;
#X obj 271 -26 inlet;
#X obj 271 69 * 1.25;
#X obj 244 1 bng 15 250 50 0 empty empty empty 17 7 0 10 -262144 -1
-1;
#X obj 325 109 nbx 5 14 0 10000 0 1 empty empty empty 0 -8 0 10 -262144
-1 -1 3385.83 256;
#X obj 244 182 *~;
#X obj 325 2 inlet;
#X connect 0 0 7 0;
#X connect 0 0 9 0;
#X connect 3 0 14 0;
#X connect 4 0 2 0;
#X connect 5 0 4 0;
#X connect 6 0 3 0;
#X connect 7 0 8 0;
#X connect 8 0 5 0;
#X connect 9 0 6 0;
#X connect 10 0 11 0;
#X connect 10 0 12 0;
#X connect 11 0 9 1;
#X connect 12 0 9 0;
#X connect 12 0 0 0;
#X connect 12 0 13 0;
#X connect 13 0 14 1;
#X connect 14 0 8 1;
#X connect 15 0 13 0;
#X restore 330 340 pd osc_pair_3;
#X obj 309 637 dac~;
#X obj 440 307 line~;
#X obj 395 404 *~;
#X text 233 227 fm width;
#X obj 234 248 nbx 5 14 0 10000 0 1 empty cymbal_fm_width empty 0 -8
0 10 -262144 -1 -1 2328.19 256;
#X obj 362 243 nbx 5 14 0 10000 0 1 empty cymbal_fm_depth empty 0 -8
0 10 -262144 -1 -1 3385.83 256;
#X text 361 222 fm depth;
#X text 455 88 amp decay;
#X obj 250 516 lop~;
#X obj 250 546 lop~;
#X obj 240 472 nbx 5 14 500 6500 0 1 empty cymbal_lpf empty 0 -8 0
10 -262144 -1 -1 2389.76 256;
#X text 240 454 lpf;
#X obj 435 484 * 2;
#X obj 127 449 nbx 5 14 -1e+37 1e+37 0 0 empty cymbal_mix empty 0 -8
0 10 -262144 -1 -1 0.711024 256;
#X obj 309 607 *~ 0.3;
#X obj 339 581 *~;
#X obj 268 579 *~;
#X msg 112 530 1;
#X obj 138 558 -;
#X floatatom 154 585 5 0 0 0 - - -;
#X obj 289 541 *~ 0.5;
#X connect 0 0 4 0;
#X connect 1 0 32 0;
#X connect 2 0 1 0;
#X connect 3 0 2 0;
#X connect 3 0 37 0;
#X connect 4 0 3 0;
#X connect 4 0 25 0;
#X connect 5 0 7 0;
#X connect 5 1 13 0;
#X connect 6 0 8 0;
#X connect 7 0 6 0;
#X connect 8 0 18 0;
#X connect 9 0 7 1;
#X connect 10 0 5 0;
#X connect 11 0 4 1;
#X connect 11 0 3 1;
#X connect 11 0 29 0;
#X connect 13 0 18 0;
#X connect 14 0 0 0;
#X connect 15 0 0 0;
#X connect 16 0 0 0;
#X connect 18 0 19 0;
#X connect 18 0 19 1;
#X connect 19 0 0 1;
#X connect 21 0 14 0;
#X connect 21 0 16 0;
#X connect 21 0 15 0;
#X connect 22 0 16 1;
#X connect 22 0 15 1;
#X connect 22 0 14 1;
#X connect 25 0 26 0;
#X connect 26 0 33 0;
#X connect 27 0 25 1;
#X connect 27 0 26 1;
#X connect 29 0 2 1;
#X connect 29 0 1 1;
#X connect 30 0 33 1;
#X connect 30 0 35 1;
#X connect 30 0 34 0;
#X connect 31 0 17 0;
#X connect 31 0 17 1;
#X connect 32 0 31 0;
#X connect 33 0 31 0;
#X connect 34 0 35 0;
#X connect 35 0 36 0;
#X connect 36 0 32 1;
#X connect 37 0 31 0;
#X restore 548 386 pd cymbal;
#X text 293 167 Decay;
#X obj 138 224 vsl 15 128 500 6500 0 1 cymbal_lpf empty empty 0 -9
0 10 -262144 -1 -1 4000 1;
#X text 138 356 LPF;
#X obj 221 221 vsl 15 128 0.9 0.1 0 1 cymbal_mix empty empty 0 -9 0
10 -262144 -1 -1 3000 1;
#X text 215 353 Tone;
