#N canvas 38 38 1920 944 12;
#N canvas 76 76 1365 736 adsr 1;
#X obj 148 245 inlet;
#X obj 189 628 outlet~;
#X obj 129 294 t b b;
#X obj 547 227 inlet;
#X obj 211 567 line~;
#X obj 182 370 int;
#X msg 154 422 0 \, 1 \$1;
#X floatatom 272 243 5 0 0 0 - - - 0;
#X text 265 219 Attack;
#X msg 560 488 0 \$1;
#X obj 562 427 int;
#X floatatom 621 225 5 0 0 0 - - - 0;
#X obj 304 352 delay;
#X floatatom 356 240 5 0 0 0 - - - 0;
#X floatatom 427 239 5 0 0 0 - - - 0;
#X text 418 212 Sustain;
#X text 350 215 Decay;
#X obj 374 423 pack 0 0 0;
#X text 835 472 pack object will fire only when the first input is changed;
#X msg 353 485 1 \, \$3 \$2;
#X text 617 203 Release;
#X obj 803 74 inlet;
#X obj 765 133 unpack 0 0 0 0;
#X connect 0 0 2 0;
#X connect 2 0 12 0;
#X connect 2 1 5 0;
#X connect 3 0 10 0;
#X connect 4 0 1 0;
#X connect 5 0 6 0;
#X connect 6 0 4 0;
#X connect 7 0 5 1;
#X connect 7 0 12 1;
#X connect 9 0 4 0;
#X connect 10 0 9 0;
#X connect 11 0 10 1;
#X connect 12 0 17 0;
#X connect 13 0 17 1;
#X connect 14 0 17 2;
#X connect 17 0 19 0;
#X connect 19 0 4 0;
#X connect 21 0 22 0;
#X connect 22 0 7 0;
#X connect 22 1 13 0;
#X connect 22 2 14 0;
#X connect 22 3 11 0;
#X restore 705 363 pd adsr;
#X msg 166 174 50;
#X msg 160 236 0 \, 1 \$1;
#X obj 206 318 print;
#X obj 523 48 key;
#X obj 583 150 sel 49 50 51 52 53 54 55 56;
#X msg 544 225 72;
#X msg 913 224 83, f 4;
#X msg 850 225 81;
#X msg 778 230 79;
#X msg 719 226 77;
#X msg 659 226 76;
#X msg 598 224 74;
#X msg 989 222 84;
#X obj 609 292 mtof;
#X obj 612 342 osc~;
#X obj 636 385 *~;
#X obj 672 416 *~;
#X obj 657 500 dac~;
#X obj 706 306 bng 19 250 50 0 empty empty empty 0 -10 0 12 #fcfcfc #000000 #000000;
#X obj 751 285 delay 300;
#X obj 799 313 bng 19 250 50 0 empty empty empty 0 -10 0 12 #fcfcfc #000000 #000000;
#X obj 581 80 t b a;
#X obj 755 413 vsl 19 162 0 1 0 0 empty empty empty 0 -9 0 12 #fcfcfc #000000 #000000 0 1;
#X msg 885 323 10 10 0.8 200;
#X msg 886 374 50 50 0.6 800;
#X msg 886 434 100 200 0.9 20;
#X text 1025 370 ADSR preset;
#X connect 0 0 16 1;
#X connect 1 0 2 0;
#X connect 2 0 3 0;
#X connect 4 0 22 0;
#X connect 5 0 6 0;
#X connect 5 1 12 0;
#X connect 5 2 11 0;
#X connect 5 3 10 0;
#X connect 5 4 9 0;
#X connect 5 5 8 0;
#X connect 5 6 7 0;
#X connect 5 7 13 0;
#X connect 6 0 14 0;
#X connect 7 0 14 0;
#X connect 8 0 14 0;
#X connect 9 0 14 0;
#X connect 10 0 14 0;
#X connect 11 0 14 0;
#X connect 12 0 14 0;
#X connect 13 0 14 0;
#X connect 14 0 15 0;
#X connect 15 0 16 0;
#X connect 16 0 17 0;
#X connect 17 0 18 0;
#X connect 17 0 18 1;
#X connect 19 0 0 0;
#X connect 19 0 20 0;
#X connect 20 0 21 0;
#X connect 21 0 0 1;
#X connect 22 0 19 0;
#X connect 22 1 5 0;
#X connect 23 0 17 1;
#X connect 24 0 0 2;
#X connect 25 0 0 2;
#X connect 26 0 0 2;
