#N canvas 3324 -1265 1313 1020 12;
#X obj 70 24 osc~ 440;
#X obj 185 24 phasor~ 1;
#X obj 102 86 *~;
#X obj 185 54 expr~ if($v1<0.5 \, 1 \, 0);
#X obj 101 131 gain;
#X obj 99 421 dac~;
#X obj 44 362 *~;
#X obj 155 358 *~;
#X obj 214 186 hsl 162 19 0 1 0 0 empty empty empty -2 -10 0 12 #fcfcfc #000000 #000000 0 1;
#X obj 189 231 expr 1-$f1;
#X floatatom 197 272 5 0 0 0 - - - 0;
#X floatatom 310 268 5 0 0 0 - - - 0;
#X connect 0 0 2 0;
#X connect 1 0 3 0;
#X connect 2 0 4 0;
#X connect 3 0 2 1;
#X connect 4 0 6 0;
#X connect 4 0 7 0;
#X connect 6 0 5 0;
#X connect 7 0 5 1;
#X connect 8 0 9 0;
#X connect 8 0 11 0;
#X connect 9 0 10 0;
#X connect 10 0 6 1;
#X connect 11 0 7 1;
