#N canvas 521 110 773 493 12;
#X obj 100 103 vsl 19 162 0 1 0 0 empty empty empty 0 -9 0 12 #fcfcfc #000000 #000000 0 1;
#X obj 100 270 tgl 19 0 empty empty empty 0 -10 0 12 #fcfcfc #000000 #000000 0 1;
#X obj 42 157 *~;
#X obj 44 232 *~;
#X obj 91 51 inlet~;
#X obj 35 292 outlet~;
#X obj 176 188 loadbang;
#X msg 176 222 1;
#X obj 217 63 float \$1;
#X obj 241 24 loadbang;
#X connect 0 0 2 1;
#X connect 1 0 3 1;
#X connect 2 0 3 0;
#X connect 3 0 5 0;
#X connect 4 0 2 0;
#X connect 6 0 7 0;
#X connect 7 0 1 0;
#X connect 8 0 0 0;
#X connect 9 0 8 0;
#X coords 0 -1 1 1 20 190 2 100 100;
