#N canvas 315 55 1920 944 12;
#X obj 55 44 bng 19 250 50 0 empty empty empty 0 -10 0 12 #fcfcfc #000000 #000000;
#X text 67 27 inlet;
#X text 68 58 outlet;
#X obj 44 293 int;
#X obj 44 244 bng 19 250 50 0 empty empty empty 0 -10 0 12 #fcfcfc #000000 #000000;
#X floatatom 88 366 5 0 0 0 - - - 0;
#X obj 155 289 + 1;
#X msg 84 243 0;
#X obj 86 198 bng 19 250 50 0 empty empty empty 0 -10 0 12 #fcfcfc #000000 #000000;
#X obj 307 276 dac~;
#X text 351 264 digital analog convertor;
#X obj 304 182 osc~;
#X text 354 184 block size 512;
#X obj 305 226 *~ 0.5;
#X obj 477 67 vsl 19 162 0 1 0 0 empty empty empty 0 -9 0 12 #fcfcfc #000000 #000000 0 1;
#X obj 292 108 line~;
#X obj 651 109 line;
#X floatatom 644 160 5 0 0 0 - - - 0;
#X msg 648 44 100 1000;
#X msg 591 43 0 0;
#X msg 730 44 0 \, 100 1000;
#X msg 278 51 200 \, 2000 300;
#X obj 534 189 line;
#X msg 531 144 1 \, 0 300;
#X obj 414 16 bng 19 250 50 0 empty empty empty 0 -10 0 12 #fcfcfc #000000 #000000;
#X connect 3 0 6 0;
#X connect 4 0 3 0;
#X connect 6 0 5 0;
#X connect 6 0 3 1;
#X connect 7 0 3 1;
#X connect 7 0 5 0;
#X connect 8 0 7 0;
#X connect 11 0 13 0;
#X connect 13 0 9 0;
#X connect 13 0 9 1;
#X connect 14 0 13 1;
#X connect 15 0 11 0;
#X connect 16 0 17 0;
#X connect 18 0 16 0;
#X connect 19 0 16 0;
#X connect 20 0 16 0;
#X connect 21 0 15 0;
#X connect 22 0 13 1;
#X connect 23 0 22 0;
#X connect 24 0 21 0;
#X connect 24 0 23 0;
