#N canvas 3831 -1866 1916 967 12;
#X obj 29 40 osc~ 440;
#X text 113 39 the arg of osc~ is its frequency;
#X text 114 74 digital to analog convertor;
#X obj 28 75 dac~;
#X floatatom 430 195 5 0 0 0 - - - 0;
#X floatatom 534 279 5 0 0 0 - - - 0;
#X obj 534 318 osc~;
#X obj 535 350 *~ 0.75;
#X obj 532 245 * 2;
#X obj 429 242 osc~ 440;
#X obj 429 450 dac~;
#X text 504 197 1st overtone;
#X floatatom 623 278 5 0 0 0 - - - 0;
#X obj 623 317 osc~;
#X floatatom 716 276 5 0 0 0 - - - 0;
#X obj 716 315 osc~;
#X floatatom 816 275 5 0 0 0 - - - 0;
#X obj 816 314 osc~;
#X obj 621 244 * 3;
#X obj 714 242 * 4;
#X obj 814 241 * 5;
#X obj 429 403 *~ 0.1;
#X obj 624 349 *~ 0.5;
#X obj 717 347 *~ 0.35;
#X obj 817 346 *~ 0.25;
#X text 598 198 2nd overtone;
#X text 701 194 ...;
#X obj 29 109 loadbang;
#X text 114 111 output a bang message everytime the patcher is opened;
#X msg 30 156 440;
#X connect 4 0 9 0;
#X connect 4 0 8 0;
#X connect 4 0 18 0;
#X connect 4 0 19 0;
#X connect 4 0 20 0;
#X connect 5 0 6 0;
#X connect 6 0 7 0;
#X connect 7 0 21 0;
#X connect 8 0 5 0;
#X connect 9 0 21 0;
#X connect 12 0 13 0;
#X connect 13 0 22 0;
#X connect 14 0 15 0;
#X connect 15 0 23 0;
#X connect 16 0 17 0;
#X connect 17 0 24 0;
#X connect 18 0 12 0;
#X connect 19 0 14 0;
#X connect 20 0 16 0;
#X connect 21 0 10 0;
#X connect 21 0 10 1;
#X connect 22 0 21 0;
#X connect 23 0 21 0;
#X connect 24 0 21 0;
#X connect 27 0 29 0;
#X connect 29 0 4 0;
