#N canvas 3831 -1866 1916 967 12;
#X obj 65 42 noise~;
#X obj 65 285 *~ 0.5;
#X obj 65 445 dac~;
#X text 133 40 noise is loud by default \, hence the *~ 0.5;
#X obj 520 41 lop~;
#X text 592 40 low-pass filter;
#X obj 65 174 lop~;
#X floatatom 130 76 5 0 0 0 - - - 0;
#X obj 520 82 hip~;
#X text 590 80 high-pass filter;
#X obj 125 173 hip~;
#X obj 519 123 bp~;
#X text 593 122 band-pass filter;
#X floatatom 281 107 5 0 0 0 - - - 0;
#X floatatom 282 136 5 0 0 0 - - - 0;
#X text 175 73 cuttoff freq;
#X text 323 104 cuttoff freq;
#X text 323 136 resonance control;
#X text 324 152 aka Q factor;
#X text 324 169 determines how wide is the filter;
#X text 323 187 the lower \, the wider;
#X text 324 206 the higher \, the narrower;
#X obj 191 170 bp~ 220 1;
#X connect 0 0 6 0;
#X connect 0 0 10 0;
#X connect 0 0 22 0;
#X connect 1 0 2 0;
#X connect 1 0 2 1;
#X connect 7 0 6 1;
#X connect 7 0 10 1;
#X connect 13 0 22 1;
#X connect 14 0 22 2;
#X connect 22 0 1 0;
