#N canvas 3831 -1866 1916 967 12;
#X obj 82 81 noise~;
#X obj 231 43 bng 19 250 50 0 empty empty empty 0 -10 0 12 #fcfcfc #000000 #000000;
#X text 297 69 arg1: tgt num;
#X text 297 85 arg2: time in millisec;
#X text 294 305 output a ramp;
#X obj 475 112 bng 19 250 50 0 empty empty empty 0 -10 0 12 #fcfcfc #000000 #000000;
#X text 568 151 sustain level and decay time;
#X text 339 101 (attack time);
#X text 567 78 arg: delay in millisec (same as attack time);
#X obj 820 181 bng 19 250 50 0 empty empty empty 0 -10 0 12 #fcfcfc #000000 #000000;
#X text 890 211 release;
#X obj 142 436 dac~;
#X text 27 8 kick drum emulated by ADSR;
#X obj 19 140 hip~ 8000;
#X obj 21 180 *~ 0.1;
#X obj 150 180 bp~ 150 4;
#X obj 150 223 *~ 20;
#X obj 66 272 clip~ -0.9 0.9;
#X msg 230 79 1 5;
#X obj 475 79 delay 5;
#X msg 474 153 0.25 50;
#X obj 820 151 delay 50;
#X msg 820 211 0 300;
#X obj 148 140 *~ 1;
#X obj 142 401 *~ 1;
#X obj 143 366 *~;
#X obj 228 303 line~;
#X connect 0 0 13 0;
#X connect 0 0 23 0;
#X connect 1 0 18 0;
#X connect 1 0 19 0;
#X connect 5 0 20 0;
#X connect 5 0 21 0;
#X connect 9 0 22 0;
#X connect 13 0 14 0;
#X connect 14 0 17 0;
#X connect 15 0 16 0;
#X connect 16 0 17 0;
#X connect 17 0 25 0;
#X connect 18 0 26 0;
#X connect 19 0 5 0;
#X connect 20 0 26 0;
#X connect 21 0 9 0;
#X connect 22 0 26 0;
#X connect 23 0 15 0;
#X connect 24 0 11 0;
#X connect 24 0 11 1;
#X connect 25 0 24 0;
#X connect 26 0 25 1;
