#N canvas 3831 -1866 1916 967 12;
#X obj 31 237 noise~;
#X obj 31 295 *~ 0.5;
#X obj 118 38 bng 19 250 50 0 empty empty empty 0 -10 0 12 #fcfcfc #000000 #000000;
#X msg 117 74 1 1000;
#X text 184 64 arg1: tgt num;
#X text 184 80 arg2: time in millisec;
#X text 183 312 output a ramp;
#X obj 362 74 delay 1000;
#X obj 362 107 bng 19 250 50 0 empty empty empty 0 -10 0 12 #fcfcfc #000000 #000000;
#X msg 361 148 0.5 1500;
#X text 455 146 sustain level and decay time;
#X text 226 96 (attack time);
#X text 454 73 arg: delay in millisec (same as attack time);
#X obj 707 146 delay 3000;
#X obj 707 176 bng 19 250 50 0 empty empty empty 0 -10 0 12 #fcfcfc #000000 #000000;
#X msg 707 206 0 1000;
#X text 777 206 release;
#X obj 29 396 *~ 0.25;
#X obj 29 431 dac~;
#X text 27 8 simple ADSR model;
#X obj 116 314 line~;
#X obj 30 361 *~;
#X connect 0 0 1 0;
#X connect 1 0 21 0;
#X connect 2 0 3 0;
#X connect 2 0 7 0;
#X connect 3 0 20 0;
#X connect 7 0 8 0;
#X connect 8 0 9 0;
#X connect 8 0 13 0;
#X connect 9 0 20 0;
#X connect 13 0 14 0;
#X connect 14 0 15 0;
#X connect 15 0 20 0;
#X connect 17 0 18 0;
#X connect 17 0 18 1;
#X connect 20 0 21 1;
#X connect 21 0 17 0;
