#N canvas 3831 -1866 1916 967 12;
#X obj 67 317 osc~;
#X obj 66 371 *~ 0.5;
#X obj 68 432 dac~;
#X obj 69 269 +~;
#X floatatom 64 84 5 0 0 0 - - - 0;
#X text 40 57 carrier freq;
#X text 241 54 modulator freq;
#X text 495 52 modulation depth;
#X floatatom 250 83 5 0 0 0 - - - 0;
#X floatatom 518 80 5 0 0 0 - - - 0;
#X obj 250 127 osc~;
#X obj 250 172 *~;
#X connect 0 0 1 0;
#X connect 1 0 2 0;
#X connect 1 0 2 1;
#X connect 3 0 0 0;
#X connect 4 0 3 0;
#X connect 8 0 10 0;
#X connect 9 0 11 1;
#X connect 10 0 11 0;
#X connect 11 0 3 1;
