{
	"patcher" : 	{
		"fileversion" : 1,
		"appversion" : 		{
			"major" : 8,
			"minor" : 5,
			"revision" : 6,
			"architecture" : "x64",
			"modernui" : 1
		}
,
		"classnamespace" : "box",
		"rect" : [ 40.0, 84.0, 1210.0, 1273.0 ],
		"bglocked" : 0,
		"openinpresentation" : 0,
		"default_fontsize" : 12.0,
		"default_fontface" : 0,
		"default_fontname" : "Arial",
		"gridonopen" : 1,
		"gridsize" : [ 15.0, 15.0 ],
		"gridsnaponopen" : 1,
		"objectsnaponopen" : 1,
		"statusbarvisible" : 2,
		"toolbarvisible" : 1,
		"lefttoolbarpinned" : 0,
		"toptoolbarpinned" : 0,
		"righttoolbarpinned" : 0,
		"bottomtoolbarpinned" : 0,
		"toolbars_unpinned_last_save" : 0,
		"tallnewobj" : 0,
		"boxanimatetime" : 200,
		"enablehscroll" : 1,
		"enablevscroll" : 1,
		"devicewidth" : 0.0,
		"description" : "",
		"digest" : "",
		"tags" : "",
		"style" : "",
		"subpatcher_template" : "",
		"assistshowspatchername" : 0,
		"boxes" : [ 			{
				"box" : 				{
					"id" : "obj-31",
					"maxclass" : "button",
					"numinlets" : 1,
					"numoutlets" : 1,
					"outlettype" : [ "bang" ],
					"parameter_enable" : 0,
					"patching_rect" : [ -94.0, 147.0, 24.0, 24.0 ]
				}

			}
, 			{
				"box" : 				{
					"id" : "obj-16",
					"maxclass" : "message",
					"numinlets" : 2,
					"numoutlets" : 1,
					"outlettype" : [ "" ],
					"patching_rect" : [ -128.0, 285.0, 111.0, 22.0 ],
					"text" : "/source/4/aed 0 0 0"
				}

			}
, 			{
				"box" : 				{
					"id" : "obj-18",
					"maxclass" : "message",
					"numinlets" : 2,
					"numoutlets" : 1,
					"outlettype" : [ "" ],
					"patching_rect" : [ -128.0, 252.0, 111.0, 22.0 ],
					"text" : "/source/3/aed 0 0 0"
				}

			}
, 			{
				"box" : 				{
					"id" : "obj-22",
					"maxclass" : "message",
					"numinlets" : 2,
					"numoutlets" : 1,
					"outlettype" : [ "" ],
					"patching_rect" : [ -128.0, 222.0, 111.0, 22.0 ],
					"text" : "/source/2/aed 0 0 0"
				}

			}
, 			{
				"box" : 				{
					"id" : "obj-23",
					"maxclass" : "newobj",
					"numinlets" : 1,
					"numoutlets" : 0,
					"patching_rect" : [ -94.0, 329.0, 38.0, 22.0 ],
					"text" : "s aed"
				}

			}
, 			{
				"box" : 				{
					"id" : "obj-26",
					"maxclass" : "message",
					"numinlets" : 2,
					"numoutlets" : 1,
					"outlettype" : [ "" ],
					"patching_rect" : [ -128.0, 192.0, 111.0, 22.0 ],
					"text" : "/source/1/aed 0 0 0"
				}

			}
, 			{
				"box" : 				{
					"id" : "obj-228",
					"maxclass" : "newobj",
					"numinlets" : 2,
					"numoutlets" : 1,
					"outlettype" : [ "" ],
					"patching_rect" : [ 1614.0, 604.0, 34.0, 22.0 ],
					"text" : "pack"
				}

			}
, 			{
				"box" : 				{
					"id" : "obj-229",
					"maxclass" : "newobj",
					"numinlets" : 2,
					"numoutlets" : 1,
					"outlettype" : [ "int" ],
					"patching_rect" : [ 1651.0, 562.0, 66.0, 22.0 ],
					"text" : "random 90"
				}

			}
, 			{
				"box" : 				{
					"id" : "obj-230",
					"maxclass" : "newobj",
					"numinlets" : 2,
					"numoutlets" : 1,
					"outlettype" : [ "int" ],
					"patching_rect" : [ 1575.700148809523853, 562.0, 73.0, 22.0 ],
					"text" : "random 360"
				}

			}
, 			{
				"box" : 				{
					"id" : "obj-227",
					"maxclass" : "newobj",
					"numinlets" : 2,
					"numoutlets" : 1,
					"outlettype" : [ "" ],
					"patching_rect" : [ 1464.0, 576.0, 34.0, 22.0 ],
					"text" : "pack"
				}

			}
, 			{
				"box" : 				{
					"id" : "obj-221",
					"maxclass" : "newobj",
					"numinlets" : 2,
					"numoutlets" : 1,
					"outlettype" : [ "int" ],
					"patching_rect" : [ 1501.0, 534.0, 66.0, 22.0 ],
					"text" : "random 90"
				}

			}
, 			{
				"box" : 				{
					"id" : "obj-222",
					"maxclass" : "message",
					"numinlets" : 2,
					"numoutlets" : 1,
					"outlettype" : [ "" ],
					"patching_rect" : [ 1666.0, 464.0, 51.0, 22.0 ],
					"text" : "seed 69"
				}

			}
, 			{
				"box" : 				{
					"id" : "obj-224",
					"maxclass" : "message",
					"numinlets" : 2,
					"numoutlets" : 1,
					"outlettype" : [ "" ],
					"patching_rect" : [ 1606.0, 464.0, 51.0, 22.0 ],
					"text" : "seed 87"
				}

			}
, 			{
				"box" : 				{
					"id" : "obj-225",
					"maxclass" : "newobj",
					"numinlets" : 1,
					"numoutlets" : 1,
					"outlettype" : [ "bang" ],
					"patching_rect" : [ 1623.0, 435.0, 58.0, 22.0 ],
					"text" : "loadbang"
				}

			}
, 			{
				"box" : 				{
					"id" : "obj-226",
					"maxclass" : "newobj",
					"numinlets" : 2,
					"numoutlets" : 1,
					"outlettype" : [ "int" ],
					"patching_rect" : [ 1425.700148809523853, 534.0, 73.0, 22.0 ],
					"text" : "random 360"
				}

			}
, 			{
				"box" : 				{
					"id" : "obj-220",
					"maxclass" : "button",
					"numinlets" : 1,
					"numoutlets" : 1,
					"outlettype" : [ "bang" ],
					"parameter_enable" : 0,
					"patching_rect" : [ 1419.0, 420.0, 24.0, 24.0 ]
				}

			}
, 			{
				"box" : 				{
					"id" : "obj-218",
					"maxclass" : "newobj",
					"numinlets" : 2,
					"numoutlets" : 1,
					"outlettype" : [ "" ],
					"patching_rect" : [ 1549.0, 435.0, 32.0, 22.0 ],
					"text" : "gate"
				}

			}
, 			{
				"box" : 				{
					"id" : "obj-217",
					"maxclass" : "newobj",
					"numinlets" : 2,
					"numoutlets" : 1,
					"outlettype" : [ "" ],
					"patching_rect" : [ 1501.0, 435.0, 32.0, 22.0 ],
					"text" : "gate"
				}

			}
, 			{
				"box" : 				{
					"id" : "obj-216",
					"maxclass" : "newobj",
					"numinlets" : 0,
					"numoutlets" : 1,
					"outlettype" : [ "" ],
					"patching_rect" : [ 1455.0, 387.0, 80.0, 22.0 ],
					"text" : "r quater_note"
				}

			}
, 			{
				"box" : 				{
					"id" : "obj-215",
					"maxclass" : "newobj",
					"numinlets" : 0,
					"numoutlets" : 1,
					"outlettype" : [ "" ],
					"patching_rect" : [ 1562.0, 387.0, 79.0, 22.0 ],
					"text" : "r eighth_note"
				}

			}
, 			{
				"box" : 				{
					"id" : "obj-210",
					"maxclass" : "message",
					"numinlets" : 2,
					"numoutlets" : 1,
					"outlettype" : [ "" ],
					"patching_rect" : [ 1363.0, 749.0, 111.0, 22.0 ],
					"text" : "/source/4/aed 0 0 0"
				}

			}
, 			{
				"box" : 				{
					"id" : "obj-211",
					"maxclass" : "message",
					"numinlets" : 2,
					"numoutlets" : 1,
					"outlettype" : [ "" ],
					"patching_rect" : [ 1507.0, 662.0, 135.0, 22.0 ],
					"text" : "/source/3/aed $1 $2 3.5"
				}

			}
, 			{
				"box" : 				{
					"id" : "obj-212",
					"maxclass" : "message",
					"numinlets" : 2,
					"numoutlets" : 1,
					"outlettype" : [ "" ],
					"patching_rect" : [ 1579.0, 704.0, 135.0, 22.0 ],
					"text" : "/source/2/aed $1 $2 3.5"
				}

			}
, 			{
				"box" : 				{
					"id" : "obj-213",
					"maxclass" : "newobj",
					"numinlets" : 1,
					"numoutlets" : 0,
					"patching_rect" : [ 1469.5, 795.0, 38.0, 22.0 ],
					"text" : "s aed"
				}

			}
, 			{
				"box" : 				{
					"id" : "obj-214",
					"maxclass" : "message",
					"numinlets" : 2,
					"numoutlets" : 1,
					"outlettype" : [ "" ],
					"patching_rect" : [ 1363.0, 722.0, 111.0, 22.0 ],
					"text" : "/source/1/aed 0 0 0"
				}

			}
, 			{
				"box" : 				{
					"id" : "obj-207",
					"maxclass" : "newobj",
					"numinlets" : 2,
					"numoutlets" : 1,
					"outlettype" : [ "" ],
					"patching_rect" : [ 1315.0, 642.0, 34.0, 22.0 ],
					"text" : "pack"
				}

			}
, 			{
				"box" : 				{
					"id" : "obj-206",
					"maxclass" : "newobj",
					"numinlets" : 2,
					"numoutlets" : 1,
					"outlettype" : [ "" ],
					"patching_rect" : [ 1278.5, 642.0, 34.0, 22.0 ],
					"text" : "pack"
				}

			}
, 			{
				"box" : 				{
					"id" : "obj-205",
					"maxclass" : "newobj",
					"numinlets" : 2,
					"numoutlets" : 1,
					"outlettype" : [ "" ],
					"patching_rect" : [ 1244.200148809523853, 642.0, 34.0, 22.0 ],
					"text" : "pack"
				}

			}
, 			{
				"box" : 				{
					"id" : "obj-204",
					"maxclass" : "newobj",
					"numinlets" : 2,
					"numoutlets" : 1,
					"outlettype" : [ "" ],
					"patching_rect" : [ 1211.200148809523853, 642.0, 34.0, 22.0 ],
					"text" : "pack"
				}

			}
, 			{
				"box" : 				{
					"id" : "obj-194",
					"maxclass" : "newobj",
					"numinlets" : 2,
					"numoutlets" : 1,
					"outlettype" : [ "int" ],
					"patching_rect" : [ 1254.0, 596.0, 29.5, 22.0 ],
					"text" : "* 7"
				}

			}
, 			{
				"box" : 				{
					"id" : "obj-191",
					"maxclass" : "newobj",
					"numinlets" : 2,
					"numoutlets" : 1,
					"outlettype" : [ "int" ],
					"patching_rect" : [ 1232.0, 569.0, 29.5, 22.0 ],
					"text" : "* 5"
				}

			}
, 			{
				"box" : 				{
					"id" : "obj-190",
					"maxclass" : "newobj",
					"numinlets" : 2,
					"numoutlets" : 1,
					"outlettype" : [ "int" ],
					"patching_rect" : [ 1213.450148809523853, 540.0, 29.5, 22.0 ],
					"text" : "* 3"
				}

			}
, 			{
				"box" : 				{
					"id" : "obj-183",
					"maxclass" : "message",
					"numinlets" : 2,
					"numoutlets" : 1,
					"outlettype" : [ "" ],
					"patching_rect" : [ 1211.200148809523853, 775.0, 125.0, 22.0 ],
					"text" : "/source/4/aed $1 $2 4"
				}

			}
, 			{
				"box" : 				{
					"id" : "obj-184",
					"maxclass" : "message",
					"numinlets" : 2,
					"numoutlets" : 1,
					"outlettype" : [ "" ],
					"patching_rect" : [ 1211.200148809523853, 742.0, 125.0, 22.0 ],
					"text" : "/source/3/aed $1 $2 4"
				}

			}
, 			{
				"box" : 				{
					"id" : "obj-185",
					"maxclass" : "message",
					"numinlets" : 2,
					"numoutlets" : 1,
					"outlettype" : [ "" ],
					"patching_rect" : [ 1211.200148809523853, 712.0, 125.0, 22.0 ],
					"text" : "/source/2/aed $1 $2 4"
				}

			}
, 			{
				"box" : 				{
					"id" : "obj-186",
					"maxclass" : "newobj",
					"numinlets" : 1,
					"numoutlets" : 0,
					"patching_rect" : [ 1261.5, 822.0, 38.0, 22.0 ],
					"text" : "s aed"
				}

			}
, 			{
				"box" : 				{
					"id" : "obj-187",
					"maxclass" : "message",
					"numinlets" : 2,
					"numoutlets" : 1,
					"outlettype" : [ "" ],
					"patching_rect" : [ 1211.200148809523853, 682.0, 125.0, 22.0 ],
					"text" : "/source/1/aed $1 $2 4"
				}

			}
, 			{
				"box" : 				{
					"id" : "obj-182",
					"maxclass" : "newobj",
					"numinlets" : 2,
					"numoutlets" : 1,
					"outlettype" : [ "int" ],
					"patching_rect" : [ 1278.5, 509.0, 66.0, 22.0 ],
					"text" : "random 90"
				}

			}
, 			{
				"box" : 				{
					"id" : "obj-181",
					"maxclass" : "message",
					"numinlets" : 2,
					"numoutlets" : 1,
					"outlettype" : [ "" ],
					"patching_rect" : [ 1346.0, 462.0, 51.0, 22.0 ],
					"text" : "seed 69"
				}

			}
, 			{
				"box" : 				{
					"id" : "obj-179",
					"maxclass" : "newobj",
					"numinlets" : 0,
					"numoutlets" : 1,
					"outlettype" : [ "" ],
					"patching_rect" : [ 1285.0, 392.0, 79.0, 22.0 ],
					"text" : "r eighth_note"
				}

			}
, 			{
				"box" : 				{
					"id" : "obj-178",
					"maxclass" : "newobj",
					"numinlets" : 2,
					"numoutlets" : 1,
					"outlettype" : [ "" ],
					"patching_rect" : [ 1240.0, 444.0, 32.0, 22.0 ],
					"text" : "gate"
				}

			}
, 			{
				"box" : 				{
					"id" : "obj-177",
					"maxclass" : "message",
					"numinlets" : 2,
					"numoutlets" : 1,
					"outlettype" : [ "" ],
					"patching_rect" : [ 1286.0, 462.0, 51.0, 22.0 ],
					"text" : "seed 87"
				}

			}
, 			{
				"box" : 				{
					"id" : "obj-175",
					"maxclass" : "newobj",
					"numinlets" : 1,
					"numoutlets" : 1,
					"outlettype" : [ "bang" ],
					"patching_rect" : [ 1303.0, 433.0, 58.0, 22.0 ],
					"text" : "loadbang"
				}

			}
, 			{
				"box" : 				{
					"id" : "obj-169",
					"maxclass" : "newobj",
					"numinlets" : 2,
					"numoutlets" : 1,
					"outlettype" : [ "int" ],
					"patching_rect" : [ 1193.700148809523853, 509.0, 73.0, 22.0 ],
					"text" : "random 360"
				}

			}
, 			{
				"box" : 				{
					"id" : "obj-168",
					"maxclass" : "comment",
					"numinlets" : 1,
					"numoutlets" : 0,
					"patching_rect" : [ 1480.0, 336.0, 56.0, 20.0 ],
					"text" : "137~end"
				}

			}
, 			{
				"box" : 				{
					"id" : "obj-166",
					"maxclass" : "toggle",
					"numinlets" : 1,
					"numoutlets" : 1,
					"outlettype" : [ "int" ],
					"parameter_enable" : 0,
					"patching_rect" : [ 1454.0, 336.0, 24.0, 24.0 ]
				}

			}
, 			{
				"box" : 				{
					"id" : "obj-164",
					"maxclass" : "comment",
					"numinlets" : 1,
					"numoutlets" : 0,
					"patching_rect" : [ 1299.0, 339.0, 64.0, 20.0 ],
					"text" : "67~137s"
				}

			}
, 			{
				"box" : 				{
					"id" : "obj-161",
					"maxclass" : "comment",
					"numinlets" : 1,
					"numoutlets" : 0,
					"patching_rect" : [ 1156.0, 338.0, 48.0, 20.0 ],
					"text" : "49~67s"
				}

			}
, 			{
				"box" : 				{
					"id" : "obj-159",
					"maxclass" : "comment",
					"numinlets" : 1,
					"numoutlets" : 0,
					"patching_rect" : [ 958.75, 337.0, 49.5, 20.0 ],
					"text" : "45~49s"
				}

			}
, 			{
				"box" : 				{
					"id" : "obj-157",
					"maxclass" : "comment",
					"numinlets" : 1,
					"numoutlets" : 0,
					"patching_rect" : [ 798.5, 339.0, 42.0, 20.0 ],
					"text" : "4~45s"
				}

			}
, 			{
				"box" : 				{
					"id" : "obj-155",
					"maxclass" : "comment",
					"numinlets" : 1,
					"numoutlets" : 0,
					"patching_rect" : [ 567.0, 339.0, 37.0, 20.0 ],
					"text" : "0~4s"
				}

			}
, 			{
				"box" : 				{
					"id" : "obj-147",
					"maxclass" : "message",
					"numinlets" : 2,
					"numoutlets" : 1,
					"outlettype" : [ "" ],
					"patching_rect" : [ 1071.0, 470.0, 111.0, 22.0 ],
					"text" : "/source/4/aed 0 0 0"
				}

			}
, 			{
				"box" : 				{
					"id" : "obj-148",
					"maxclass" : "message",
					"numinlets" : 2,
					"numoutlets" : 1,
					"outlettype" : [ "" ],
					"patching_rect" : [ 1071.0, 437.0, 111.0, 22.0 ],
					"text" : "/source/3/aed 0 0 0"
				}

			}
, 			{
				"box" : 				{
					"id" : "obj-149",
					"maxclass" : "button",
					"numinlets" : 1,
					"numoutlets" : 1,
					"outlettype" : [ "bang" ],
					"parameter_enable" : 0,
					"patching_rect" : [ 1121.97488839285711, 338.0, 24.0, 24.0 ]
				}

			}
, 			{
				"box" : 				{
					"id" : "obj-150",
					"maxclass" : "message",
					"numinlets" : 2,
					"numoutlets" : 1,
					"outlettype" : [ "" ],
					"patching_rect" : [ 1071.0, 407.0, 111.0, 22.0 ],
					"text" : "/source/2/aed 0 0 0"
				}

			}
, 			{
				"box" : 				{
					"id" : "obj-151",
					"maxclass" : "newobj",
					"numinlets" : 1,
					"numoutlets" : 0,
					"patching_rect" : [ 1107.5, 569.0, 38.0, 22.0 ],
					"text" : "s aed"
				}

			}
, 			{
				"box" : 				{
					"id" : "obj-152",
					"maxclass" : "message",
					"numinlets" : 2,
					"numoutlets" : 1,
					"outlettype" : [ "" ],
					"patching_rect" : [ 1071.0, 377.0, 111.0, 22.0 ],
					"text" : "/source/1/aed 0 0 0"
				}

			}
, 			{
				"box" : 				{
					"id" : "obj-135",
					"maxclass" : "toggle",
					"numinlets" : 1,
					"numoutlets" : 1,
					"outlettype" : [ "int" ],
					"parameter_enable" : 0,
					"patching_rect" : [ 1268.0, 336.0, 24.0, 24.0 ]
				}

			}
, 			{
				"box" : 				{
					"id" : "obj-129",
					"maxclass" : "newobj",
					"numinlets" : 2,
					"numoutlets" : 1,
					"outlettype" : [ "int" ],
					"patching_rect" : [ 1001.5, 609.0, 32.0, 22.0 ],
					"text" : "+ 90"
				}

			}
, 			{
				"box" : 				{
					"id" : "obj-128",
					"maxclass" : "newobj",
					"numinlets" : 2,
					"numoutlets" : 1,
					"outlettype" : [ "int" ],
					"patching_rect" : [ 977.5, 576.0, 32.0, 22.0 ],
					"text" : "+ 90"
				}

			}
, 			{
				"box" : 				{
					"id" : "obj-127",
					"maxclass" : "newobj",
					"numinlets" : 2,
					"numoutlets" : 1,
					"outlettype" : [ "int" ],
					"patching_rect" : [ 957.5, 548.0, 32.0, 22.0 ],
					"text" : "+ 90"
				}

			}
, 			{
				"box" : 				{
					"id" : "obj-126",
					"maxclass" : "newobj",
					"numinlets" : 1,
					"numoutlets" : 0,
					"patching_rect" : [ 977.5, 799.0, 38.0, 22.0 ],
					"text" : "s aed"
				}

			}
, 			{
				"box" : 				{
					"id" : "obj-125",
					"maxclass" : "message",
					"numinlets" : 2,
					"numoutlets" : 1,
					"outlettype" : [ "" ],
					"patching_rect" : [ 937.0, 742.0, 125.0, 22.0 ],
					"text" : "/source/4/aed $1 45 4"
				}

			}
, 			{
				"box" : 				{
					"id" : "obj-123",
					"maxclass" : "message",
					"numinlets" : 2,
					"numoutlets" : 1,
					"outlettype" : [ "" ],
					"patching_rect" : [ 937.0, 714.0, 125.0, 22.0 ],
					"text" : "/source/3/aed $1 45 4"
				}

			}
, 			{
				"box" : 				{
					"id" : "obj-118",
					"maxclass" : "message",
					"numinlets" : 2,
					"numoutlets" : 1,
					"outlettype" : [ "" ],
					"patching_rect" : [ 937.0, 684.0, 125.0, 22.0 ],
					"text" : "/source/2/aed $1 45 4"
				}

			}
, 			{
				"box" : 				{
					"id" : "obj-113",
					"maxclass" : "message",
					"numinlets" : 2,
					"numoutlets" : 1,
					"outlettype" : [ "" ],
					"patching_rect" : [ 937.0, 654.0, 125.0, 22.0 ],
					"text" : "/source/1/aed $1 45 4"
				}

			}
, 			{
				"box" : 				{
					"id" : "obj-109",
					"maxclass" : "message",
					"numinlets" : 2,
					"numoutlets" : 1,
					"outlettype" : [ "" ],
					"patching_rect" : [ 958.75, 478.0, 29.5, 22.0 ],
					"text" : "30"
				}

			}
, 			{
				"box" : 				{
					"id" : "obj-107",
					"maxclass" : "newobj",
					"numinlets" : 3,
					"numoutlets" : 1,
					"outlettype" : [ "int" ],
					"patching_rect" : [ 937.0, 509.0, 54.0, 22.0 ],
					"text" : "accum 0"
				}

			}
, 			{
				"box" : 				{
					"id" : "obj-101",
					"maxclass" : "newobj",
					"numinlets" : 2,
					"numoutlets" : 1,
					"outlettype" : [ "" ],
					"patching_rect" : [ 937.0, 445.0, 32.0, 22.0 ],
					"text" : "gate"
				}

			}
, 			{
				"box" : 				{
					"id" : "obj-89",
					"maxclass" : "newobj",
					"numinlets" : 0,
					"numoutlets" : 1,
					"outlettype" : [ "" ],
					"patching_rect" : [ 945.5, 392.0, 79.0, 22.0 ],
					"text" : "r eighth_note"
				}

			}
, 			{
				"box" : 				{
					"id" : "obj-88",
					"maxclass" : "toggle",
					"numinlets" : 1,
					"numoutlets" : 1,
					"outlettype" : [ "int" ],
					"parameter_enable" : 0,
					"patching_rect" : [ 929.0, 337.0, 24.0, 24.0 ]
				}

			}
, 			{
				"box" : 				{
					"id" : "obj-74",
					"maxclass" : "message",
					"numinlets" : 2,
					"numoutlets" : 1,
					"outlettype" : [ "" ],
					"patching_rect" : [ 788.5, 544.0, 125.0, 22.0 ],
					"text" : "/source/2/aed $1 30 3"
				}

			}
, 			{
				"box" : 				{
					"id" : "obj-70",
					"maxclass" : "message",
					"numinlets" : 2,
					"numoutlets" : 1,
					"outlettype" : [ "" ],
					"patching_rect" : [ 836.25, 482.0, 29.5, 22.0 ],
					"text" : "180"
				}

			}
, 			{
				"box" : 				{
					"id" : "obj-65",
					"maxclass" : "newobj",
					"numinlets" : 3,
					"numoutlets" : 1,
					"outlettype" : [ "int" ],
					"patching_rect" : [ 811.0, 509.0, 61.0, 22.0 ],
					"text" : "accum 90"
				}

			}
, 			{
				"box" : 				{
					"id" : "obj-64",
					"maxclass" : "newobj",
					"numinlets" : 2,
					"numoutlets" : 1,
					"outlettype" : [ "" ],
					"patching_rect" : [ 811.0, 445.0, 32.0, 22.0 ],
					"text" : "gate"
				}

			}
, 			{
				"box" : 				{
					"id" : "obj-63",
					"maxclass" : "message",
					"numinlets" : 2,
					"numoutlets" : 1,
					"outlettype" : [ "" ],
					"patching_rect" : [ 453.0, 282.0, 35.0, 22.0 ],
					"text" : "set 0"
				}

			}
, 			{
				"box" : 				{
					"id" : "obj-53",
					"maxclass" : "newobj",
					"numinlets" : 0,
					"numoutlets" : 1,
					"outlettype" : [ "" ],
					"patching_rect" : [ 453.0, 216.0, 43.0, 22.0 ],
					"text" : "r reset"
				}

			}
, 			{
				"box" : 				{
					"id" : "obj-52",
					"maxclass" : "newobj",
					"numinlets" : 2,
					"numoutlets" : 1,
					"outlettype" : [ "" ],
					"patching_rect" : [ 1203.700148809523853, 201.0, 32.0, 22.0 ],
					"text" : "gate"
				}

			}
, 			{
				"box" : 				{
					"id" : "obj-50",
					"maxclass" : "newobj",
					"numinlets" : 0,
					"numoutlets" : 1,
					"outlettype" : [ "" ],
					"patching_rect" : [ 1203.700148809523853, 170.0, 65.0, 22.0 ],
					"text" : "r start/stop"
				}

			}
, 			{
				"box" : 				{
					"id" : "obj-46",
					"maxclass" : "newobj",
					"numinlets" : 1,
					"numoutlets" : 0,
					"patching_rect" : [ 1203.700148809523853, 232.0, 45.0, 22.0 ],
					"text" : "s reset"
				}

			}
, 			{
				"box" : 				{
					"id" : "obj-43",
					"maxclass" : "newobj",
					"numinlets" : 2,
					"numoutlets" : 1,
					"outlettype" : [ "" ],
					"patching_rect" : [ 696.0, 445.0, 32.0, 22.0 ],
					"text" : "gate"
				}

			}
, 			{
				"box" : 				{
					"id" : "obj-42",
					"maxclass" : "newobj",
					"numinlets" : 1,
					"numoutlets" : 0,
					"patching_rect" : [ 755.5, 609.0, 38.0, 22.0 ],
					"text" : "s aed"
				}

			}
, 			{
				"box" : 				{
					"id" : "obj-39",
					"maxclass" : "message",
					"numinlets" : 2,
					"numoutlets" : 1,
					"outlettype" : [ "" ],
					"patching_rect" : [ 653.0, 544.0, 125.0, 22.0 ],
					"text" : "/source/1/aed $1 30 5"
				}

			}
, 			{
				"box" : 				{
					"id" : "obj-27",
					"maxclass" : "message",
					"numinlets" : 2,
					"numoutlets" : 1,
					"outlettype" : [ "" ],
					"patching_rect" : [ 713.5, 482.0, 29.5, 22.0 ],
					"text" : "60"
				}

			}
, 			{
				"box" : 				{
					"id" : "obj-25",
					"maxclass" : "newobj",
					"numinlets" : 3,
					"numoutlets" : 1,
					"outlettype" : [ "int" ],
					"patching_rect" : [ 696.0, 509.0, 54.0, 22.0 ],
					"text" : "accum 0"
				}

			}
, 			{
				"box" : 				{
					"id" : "obj-13",
					"maxclass" : "newobj",
					"numinlets" : 0,
					"numoutlets" : 1,
					"outlettype" : [ "" ],
					"patching_rect" : [ 777.0, 392.0, 80.0, 22.0 ],
					"text" : "r quater_note"
				}

			}
, 			{
				"box" : 				{
					"id" : "obj-8",
					"maxclass" : "newobj",
					"numinlets" : 0,
					"numoutlets" : 1,
					"outlettype" : [ "" ],
					"patching_rect" : [ 691.5, 392.0, 71.0, 22.0 ],
					"text" : "r bass_note"
				}

			}
, 			{
				"box" : 				{
					"id" : "obj-122",
					"maxclass" : "message",
					"numinlets" : 2,
					"numoutlets" : 1,
					"outlettype" : [ "" ],
					"patching_rect" : [ 473.0, 470.0, 111.0, 22.0 ],
					"text" : "/source/4/aed 0 0 0"
				}

			}
, 			{
				"box" : 				{
					"id" : "obj-121",
					"maxclass" : "message",
					"numinlets" : 2,
					"numoutlets" : 1,
					"outlettype" : [ "" ],
					"patching_rect" : [ 473.0, 437.0, 111.0, 22.0 ],
					"text" : "/source/3/aed 0 0 0"
				}

			}
, 			{
				"box" : 				{
					"id" : "obj-120",
					"maxclass" : "button",
					"numinlets" : 1,
					"numoutlets" : 1,
					"outlettype" : [ "bang" ],
					"parameter_enable" : 0,
					"patching_rect" : [ 523.97488839285711, 338.0, 24.0, 24.0 ]
				}

			}
, 			{
				"box" : 				{
					"id" : "obj-117",
					"maxclass" : "message",
					"numinlets" : 2,
					"numoutlets" : 1,
					"outlettype" : [ "" ],
					"patching_rect" : [ 473.0, 407.0, 111.0, 22.0 ],
					"text" : "/source/2/aed 0 0 0"
				}

			}
, 			{
				"box" : 				{
					"id" : "obj-116",
					"maxclass" : "newobj",
					"numinlets" : 0,
					"numoutlets" : 1,
					"outlettype" : [ "" ],
					"patching_rect" : [ 65.5, 568.0, 36.0, 22.0 ],
					"text" : "r aed"
				}

			}
, 			{
				"box" : 				{
					"id" : "obj-114",
					"maxclass" : "newobj",
					"numinlets" : 1,
					"numoutlets" : 0,
					"patching_rect" : [ 509.5, 569.0, 38.0, 22.0 ],
					"text" : "s aed"
				}

			}
, 			{
				"box" : 				{
					"id" : "obj-111",
					"maxclass" : "toggle",
					"numinlets" : 1,
					"numoutlets" : 1,
					"outlettype" : [ "int" ],
					"parameter_enable" : 0,
					"patching_rect" : [ 760.5, 337.0, 24.0, 24.0 ]
				}

			}
, 			{
				"box" : 				{
					"id" : "obj-106",
					"maxclass" : "newobj",
					"numinlets" : 2,
					"numoutlets" : 1,
					"outlettype" : [ "bang" ],
					"patching_rect" : [ 884.0, 156.0, 39.0, 22.0 ],
					"text" : "metro"
				}

			}
, 			{
				"box" : 				{
					"id" : "obj-105",
					"linecount" : 2,
					"maxclass" : "comment",
					"numinlets" : 1,
					"numoutlets" : 0,
					"patching_rect" : [ 784.0, 15.0, 71.0, 34.0 ],
					"text" : "milisec per bass_note"
				}

			}
, 			{
				"box" : 				{
					"format" : 6,
					"id" : "obj-103",
					"maxclass" : "flonum",
					"numinlets" : 1,
					"numoutlets" : 2,
					"outlettype" : [ "", "bang" ],
					"parameter_enable" : 0,
					"patching_rect" : [ 792.0, 53.0, 50.0, 22.0 ]
				}

			}
, 			{
				"box" : 				{
					"id" : "obj-100",
					"maxclass" : "newobj",
					"numinlets" : 2,
					"numoutlets" : 1,
					"outlettype" : [ "float" ],
					"patching_rect" : [ 588.5, 137.0, 60.0, 22.0 ],
					"text" : "* 0.66666"
				}

			}
, 			{
				"box" : 				{
					"id" : "obj-99",
					"maxclass" : "newobj",
					"numinlets" : 1,
					"numoutlets" : 0,
					"patching_rect" : [ 884.0, 182.0, 73.0, 22.0 ],
					"text" : "s bass_note"
				}

			}
, 			{
				"box" : 				{
					"id" : "obj-98",
					"maxclass" : "comment",
					"numinlets" : 1,
					"numoutlets" : 0,
					"patching_rect" : [ 1106.0, 77.0, 85.0, 20.0 ],
					"text" : "playback time"
				}

			}
, 			{
				"box" : 				{
					"id" : "obj-95",
					"maxclass" : "newobj",
					"numinlets" : 0,
					"numoutlets" : 1,
					"outlettype" : [ "" ],
					"patching_rect" : [ 361.0, 720.0, 65.0, 22.0 ],
					"text" : "r start/stop"
				}

			}
, 			{
				"box" : 				{
					"id" : "obj-92",
					"maxclass" : "newobj",
					"numinlets" : 0,
					"numoutlets" : 1,
					"outlettype" : [ "" ],
					"patching_rect" : [ 1019.0, 34.0, 65.0, 22.0 ],
					"text" : "r start/stop"
				}

			}
, 			{
				"box" : 				{
					"id" : "obj-91",
					"maxclass" : "newobj",
					"numinlets" : 1,
					"numoutlets" : 0,
					"patching_rect" : [ 1203.700148809523853, 137.0, 67.0, 22.0 ],
					"text" : "s start/stop"
				}

			}
, 			{
				"box" : 				{
					"id" : "obj-78",
					"maxclass" : "newobj",
					"numinlets" : 2,
					"numoutlets" : 1,
					"outlettype" : [ "bang" ],
					"patching_rect" : [ 784.0, 156.0, 39.0, 22.0 ],
					"text" : "metro"
				}

			}
, 			{
				"box" : 				{
					"id" : "obj-77",
					"maxclass" : "newobj",
					"numinlets" : 2,
					"numoutlets" : 1,
					"outlettype" : [ "float" ],
					"patching_rect" : [ 588.5, 86.0, 29.5, 22.0 ],
					"text" : "/ 2."
				}

			}
, 			{
				"box" : 				{
					"format" : 6,
					"id" : "obj-76",
					"maxclass" : "flonum",
					"numinlets" : 1,
					"numoutlets" : 2,
					"outlettype" : [ "", "bang" ],
					"parameter_enable" : 0,
					"patching_rect" : [ 694.5, 53.0, 50.0, 22.0 ]
				}

			}
, 			{
				"box" : 				{
					"format" : 6,
					"id" : "obj-73",
					"maxclass" : "flonum",
					"numinlets" : 1,
					"numoutlets" : 2,
					"outlettype" : [ "", "bang" ],
					"parameter_enable" : 0,
					"patching_rect" : [ 608.5, 53.0, 50.0, 22.0 ]
				}

			}
, 			{
				"box" : 				{
					"id" : "obj-71",
					"linecount" : 2,
					"maxclass" : "comment",
					"numinlets" : 1,
					"numoutlets" : 0,
					"patching_rect" : [ 685.5, 15.0, 72.0, 34.0 ],
					"text" : "milisec per eighth_note"
				}

			}
, 			{
				"box" : 				{
					"id" : "obj-68",
					"maxclass" : "newobj",
					"numinlets" : 1,
					"numoutlets" : 0,
					"patching_rect" : [ 784.0, 182.0, 81.0, 22.0 ],
					"text" : "s eighth_note"
				}

			}
, 			{
				"box" : 				{
					"id" : "obj-67",
					"maxclass" : "newobj",
					"numinlets" : 1,
					"numoutlets" : 0,
					"patching_rect" : [ 686.0, 182.0, 82.0, 22.0 ],
					"text" : "s quater_note"
				}

			}
, 			{
				"box" : 				{
					"id" : "obj-58",
					"maxclass" : "newobj",
					"numinlets" : 7,
					"numoutlets" : 7,
					"outlettype" : [ "", "", "", "", "", "", "" ],
					"patching_rect" : [ 523.97488839285711, 282.0, 1034.075334821428669, 22.0 ],
					"text" : "route 0 4 45 49 67 137"
				}

			}
, 			{
				"box" : 				{
					"id" : "obj-57",
					"maxclass" : "newobj",
					"numinlets" : 2,
					"numoutlets" : 1,
					"outlettype" : [ "int" ],
					"patching_rect" : [ 1019.0, 103.0, 42.0, 22.0 ],
					"text" : "/ 1000"
				}

			}
, 			{
				"box" : 				{
					"id" : "obj-56",
					"maxclass" : "number",
					"numinlets" : 1,
					"numoutlets" : 2,
					"outlettype" : [ "", "bang" ],
					"parameter_enable" : 0,
					"patching_rect" : [ 1118.5, 103.0, 50.0, 22.0 ]
				}

			}
, 			{
				"box" : 				{
					"id" : "obj-54",
					"maxclass" : "newobj",
					"numinlets" : 2,
					"numoutlets" : 1,
					"outlettype" : [ "float" ],
					"patching_rect" : [ 1019.0, 75.0, 77.0, 22.0 ],
					"text" : "clocker 1000"
				}

			}
, 			{
				"box" : 				{
					"id" : "obj-33",
					"maxclass" : "comment",
					"numinlets" : 1,
					"numoutlets" : 0,
					"patching_rect" : [ 940.5, 34.0, 40.0, 20.0 ],
					"text" : "metro"
				}

			}
, 			{
				"box" : 				{
					"id" : "obj-30",
					"linecount" : 2,
					"maxclass" : "comment",
					"numinlets" : 1,
					"numoutlets" : 0,
					"patching_rect" : [ 595.0, 15.0, 77.0, 34.0 ],
					"text" : "milisec per quater_note"
				}

			}
, 			{
				"box" : 				{
					"id" : "obj-21",
					"maxclass" : "newobj",
					"numinlets" : 2,
					"numoutlets" : 1,
					"outlettype" : [ "float" ],
					"patching_rect" : [ 517.0, 86.0, 47.0, 22.0 ],
					"text" : "* 1000."
				}

			}
, 			{
				"box" : 				{
					"id" : "obj-19",
					"maxclass" : "comment",
					"numinlets" : 1,
					"numoutlets" : 0,
					"patching_rect" : [ 500.0, 22.0, 84.0, 20.0 ],
					"text" : "sec per beat"
				}

			}
, 			{
				"box" : 				{
					"format" : 6,
					"id" : "obj-17",
					"maxclass" : "flonum",
					"numinlets" : 1,
					"numoutlets" : 2,
					"outlettype" : [ "", "bang" ],
					"parameter_enable" : 0,
					"patching_rect" : [ 517.0, 53.0, 50.0, 22.0 ]
				}

			}
, 			{
				"box" : 				{
					"id" : "obj-5",
					"maxclass" : "newobj",
					"numinlets" : 1,
					"numoutlets" : 1,
					"outlettype" : [ "" ],
					"patching_rect" : [ 418.0, 86.0, 78.0, 22.0 ],
					"text" : "expr 60. / $i1"
				}

			}
, 			{
				"box" : 				{
					"id" : "obj-12",
					"maxclass" : "comment",
					"numinlets" : 1,
					"numoutlets" : 0,
					"patching_rect" : [ 422.75, 21.0, 40.0, 20.0 ],
					"text" : "BPM"
				}

			}
, 			{
				"box" : 				{
					"id" : "obj-6",
					"maxclass" : "message",
					"numinlets" : 2,
					"numoutlets" : 1,
					"outlettype" : [ "" ],
					"patching_rect" : [ 352.5, 53.0, 29.5, 22.0 ],
					"text" : "140"
				}

			}
, 			{
				"box" : 				{
					"id" : "obj-3",
					"maxclass" : "newobj",
					"numinlets" : 1,
					"numoutlets" : 1,
					"outlettype" : [ "bang" ],
					"patching_rect" : [ 338.25, 21.0, 58.0, 22.0 ],
					"text" : "loadbang"
				}

			}
, 			{
				"box" : 				{
					"id" : "obj-51",
					"maxclass" : "number",
					"numinlets" : 1,
					"numoutlets" : 2,
					"outlettype" : [ "", "bang" ],
					"parameter_enable" : 0,
					"patching_rect" : [ 417.75, 53.0, 50.0, 22.0 ]
				}

			}
, 			{
				"box" : 				{
					"id" : "obj-49",
					"maxclass" : "toggle",
					"numinlets" : 1,
					"numoutlets" : 1,
					"outlettype" : [ "int" ],
					"parameter_enable" : 0,
					"patching_rect" : [ 948.5, 56.0, 24.0, 24.0 ]
				}

			}
, 			{
				"box" : 				{
					"id" : "obj-45",
					"maxclass" : "newobj",
					"numinlets" : 2,
					"numoutlets" : 1,
					"outlettype" : [ "bang" ],
					"patching_rect" : [ 686.0, 156.0, 39.0, 22.0 ],
					"text" : "metro"
				}

			}
, 			{
				"box" : 				{
					"id" : "obj-44",
					"maxclass" : "comment",
					"numinlets" : 1,
					"numoutlets" : 0,
					"patching_rect" : [ 1205.350074404761926, 3.5, 97.700148809523853, 20.0 ],
					"text" : "Play"
				}

			}
, 			{
				"box" : 				{
					"id" : "obj-41",
					"maxclass" : "newobj",
					"numinlets" : 1,
					"numoutlets" : 2,
					"outlettype" : [ "signal", "bang" ],
					"patching_rect" : [ 517.0, 786.0, 90.0, 22.0 ],
					"text" : "play~ source_4"
				}

			}
, 			{
				"box" : 				{
					"id" : "obj-40",
					"maxclass" : "newobj",
					"numinlets" : 1,
					"numoutlets" : 2,
					"outlettype" : [ "signal", "bang" ],
					"patching_rect" : [ 420.0, 786.0, 90.0, 22.0 ],
					"text" : "play~ source_3"
				}

			}
, 			{
				"box" : 				{
					"id" : "obj-38",
					"maxclass" : "newobj",
					"numinlets" : 1,
					"numoutlets" : 2,
					"outlettype" : [ "signal", "bang" ],
					"patching_rect" : [ 323.0, 786.0, 90.0, 22.0 ],
					"text" : "play~ source_2"
				}

			}
, 			{
				"box" : 				{
					"id" : "obj-37",
					"maxclass" : "newobj",
					"numinlets" : 1,
					"numoutlets" : 2,
					"outlettype" : [ "float", "bang" ],
					"patching_rect" : [ 101.0, 68.0, 209.0, 22.0 ],
					"text" : "buffer~ source_3 piano.wav 200000 1"
				}

			}
, 			{
				"box" : 				{
					"id" : "obj-36",
					"maxclass" : "newobj",
					"numinlets" : 1,
					"numoutlets" : 2,
					"outlettype" : [ "float", "bang" ],
					"patching_rect" : [ 101.0, 92.0, 238.0, 22.0 ],
					"text" : "buffer~ source_4 percussion.wav 200000 1"
				}

			}
, 			{
				"box" : 				{
					"id" : "obj-35",
					"maxclass" : "newobj",
					"numinlets" : 1,
					"numoutlets" : 2,
					"outlettype" : [ "float", "bang" ],
					"patching_rect" : [ 101.0, 44.0, 209.0, 22.0 ],
					"text" : "buffer~ source_2 guitar.wav 200000 1"
				}

			}
, 			{
				"box" : 				{
					"id" : "obj-32",
					"maxclass" : "toggle",
					"numinlets" : 1,
					"numoutlets" : 1,
					"outlettype" : [ "int" ],
					"parameter_enable" : 0,
					"patching_rect" : [ 1203.700148809523853, 28.5, 101.0, 101.0 ]
				}

			}
, 			{
				"box" : 				{
					"id" : "obj-28",
					"maxclass" : "newobj",
					"numinlets" : 1,
					"numoutlets" : 2,
					"outlettype" : [ "signal", "bang" ],
					"patching_rect" : [ 226.0, 786.0, 90.0, 22.0 ],
					"text" : "play~ source_1"
				}

			}
, 			{
				"box" : 				{
					"id" : "obj-24",
					"maxclass" : "newobj",
					"numinlets" : 1,
					"numoutlets" : 2,
					"outlettype" : [ "float", "bang" ],
					"patching_rect" : [ 101.0, 20.0, 205.0, 22.0 ],
					"text" : "buffer~ source_1 bass.wav 200000 1"
				}

			}
, 			{
				"box" : 				{
					"id" : "obj-20",
					"maxclass" : "message",
					"numinlets" : 2,
					"numoutlets" : 1,
					"outlettype" : [ "" ],
					"patching_rect" : [ 473.0, 377.0, 111.0, 22.0 ],
					"text" : "/source/1/aed 0 0 0"
				}

			}
, 			{
				"box" : 				{
					"id" : "obj-9",
					"maxclass" : "newobj",
					"numinlets" : 1,
					"numoutlets" : 3,
					"outlettype" : [ "bang", "bang", "bang" ],
					"patching_rect" : [ 24.0, 84.0, 42.0, 22.0 ],
					"text" : "t b b b"
				}

			}
, 			{
				"box" : 				{
					"id" : "obj-4",
					"maxclass" : "newobj",
					"numinlets" : 1,
					"numoutlets" : 1,
					"outlettype" : [ "bang" ],
					"patching_rect" : [ 9.0, 28.0, 58.0, 22.0 ],
					"text" : "loadbang"
				}

			}
, 			{
				"box" : 				{
					"id" : "obj-15",
					"linecount" : 23,
					"maxclass" : "message",
					"numinlets" : 2,
					"numoutlets" : 1,
					"outlettype" : [ "" ],
					"patching_rect" : [ 3.0, 147.0, 401.0, 326.0 ],
					"text" : "/speakers/aed -43.1524 26.7291 11.05 -17.4989 33.3583 9.03846 17.4989 33.3583 9.03846 42.9399 26.8089 11.0196 -42.9399 10.9901 10.0189 -17.4989 14.198 7.78723 17.4989 14.198 7.78723 42.9399 10.9901 10.0189 -42.9399 0. 9.83514 -26.3737 0. 8.03647 0. 0. 7.2 26.3737 0. 8.03647 42.9399 0. 9.83514 -42.9399 -7.35782 9.9168 -17.4989 -9.54923 7.65544 17.4989 -9.54923 7.65544 42.9399 -7.35782 9.9168 71.2833 35.0905 8.64545 108.717 35.0905 8.64545 137.06 26.8089 11.0196 71.2833 15.1095 7.32741 108.717 15.1095 7.32741 137.06 10.9901 10.0189 61.0908 0. 7.65376 90. 0. 6.7 118.909 0. 7.65376 137.06 0. 9.83514 71.2833 -10.1778 7.1872 108.717 -10.1778 7.1872 137.06 -7.35782 9.9168 162.501 33.3583 9.03846 -162.501 33.3583 9.03846 162.501 14.198 7.78723 -162.501 14.198 7.78723 153.626 0. 8.03647 -180. 0. 7.2 -153.626 0. 8.03647 162.501 -9.54923 7.65544 -162.501 -9.54923 7.65544 -137.06 26.8089 11.0196 -108.717 35.0905 8.64545 -71.2833 35.0905 8.64545 -137.06 10.9901 10.0189 -108.717 15.1095 7.32741 -71.2833 15.1095 7.32741 -137.06 0. 9.83514 -118.909 0. 7.65376 -90. 0. 6.7 -61.0908 0. 7.65376 -137.06 -7.35782 9.9168 -108.717 -10.1778 7.1872 -71.2833 -10.1778 7.1872 -19.7019 55.8346 7.1306 19.7019 55.8346 7.1306 68.4413 56.2244 7.09799 111.559 56.2244 7.09799 160.298 55.8346 7.1306 -160.298 55.8346 7.1306 -111.559 56.2244 7.09799 -68.4413 56.2244 7.09799 -42.9546 71.4385 6.22374 42.9546 71.4385 6.22374 137.045 71.4385 6.22374 -137.045 71.4385 6.22374"
				}

			}
, 			{
				"box" : 				{
					"id" : "obj-7",
					"maxclass" : "message",
					"numinlets" : 2,
					"numoutlets" : 1,
					"outlettype" : [ "" ],
					"patching_rect" : [ 408.0, 148.0, 115.0, 22.0 ],
					"text" : "/speaker/number 64"
				}

			}
, 			{
				"box" : 				{
					"id" : "obj-14",
					"maxclass" : "newobj",
					"numinlets" : 1,
					"numoutlets" : 4,
					"outlettype" : [ "", "", "", "" ],
					"patching_rect" : [ 24.0, 516.0, 119.0, 22.0 ],
					"saved_object_attributes" : 					{
						"parameter_enable" : 0
					}
,
					"text" : "spat5.speaker.config"
				}

			}
, 			{
				"box" : 				{
					"id" : "obj-11",
					"maxclass" : "newobj",
					"numinlets" : 1,
					"numoutlets" : 4,
					"outlettype" : [ "", "", "", "" ],
					"patching_rect" : [ 24.0, 622.0, 407.0, 22.0 ],
					"saved_object_attributes" : 					{
						"parameter_enable" : 0
					}
,
					"text" : "spat5.oper @initwith \"/source/number 4, /speaker/number 64\" @internals 8"
				}

			}
, 			{
				"box" : 				{
					"id" : "obj-10",
					"maxclass" : "newobj",
					"numinlets" : 64,
					"numoutlets" : 0,
					"patching_rect" : [ 23.700148809523853, 1085.0, 1247.0, 22.0 ],
					"text" : "dac~ 1 2 3 4 5 6 7 8 9 10 11 12 13 14 15 16 17 18 19 20 21 22 23 24 25 26 27 28 29 30 31 32 33 34 35 36 37 38 39 40 41 42 43 44 45 46 47 48 49 50 51 52 53 54 55 56 57 58 59 60 61 62 63 64"
				}

			}
, 			{
				"box" : 				{
					"bgmode" : 0,
					"border" : 0,
					"clickthrough" : 0,
					"enablehscroll" : 0,
					"enablevscroll" : 0,
					"id" : "obj-2",
					"lockeddragscroll" : 0,
					"lockedsize" : 0,
					"maxclass" : "bpatcher",
					"name" : "spat5.monitor.maxpat",
					"numinlets" : 1,
					"numoutlets" : 0,
					"offset" : [ 0.0, 0.0 ],
					"patching_rect" : [ 24.0, 1126.0, 375.0, 139.0 ],
					"viewvisibility" : 1
				}

			}
, 			{
				"box" : 				{
					"id" : "obj-1",
					"maxclass" : "newobj",
					"numinlets" : 4,
					"numoutlets" : 65,
					"outlettype" : [ "signal", "signal", "signal", "signal", "signal", "signal", "signal", "signal", "signal", "signal", "signal", "signal", "signal", "signal", "signal", "signal", "signal", "signal", "signal", "signal", "signal", "signal", "signal", "signal", "signal", "signal", "signal", "signal", "signal", "signal", "signal", "signal", "signal", "signal", "signal", "signal", "signal", "signal", "signal", "signal", "signal", "signal", "signal", "signal", "signal", "signal", "signal", "signal", "signal", "signal", "signal", "signal", "signal", "signal", "signal", "signal", "signal", "signal", "signal", "signal", "signal", "signal", "signal", "signal", "" ],
					"patching_rect" : [ 24.0, 977.0, 1266.0, 22.0 ],
					"saved_object_attributes" : 					{
						"parameter_enable" : 0
					}
,
					"text" : "spat5.spat~ @inputs 4 @internals 8 @outputs 64"
				}

			}
 ],
		"lines" : [ 			{
				"patchline" : 				{
					"destination" : [ "obj-10", 63 ],
					"source" : [ "obj-1", 63 ]
				}

			}
, 			{
				"patchline" : 				{
					"destination" : [ "obj-10", 62 ],
					"source" : [ "obj-1", 62 ]
				}

			}
, 			{
				"patchline" : 				{
					"destination" : [ "obj-10", 61 ],
					"source" : [ "obj-1", 61 ]
				}

			}
, 			{
				"patchline" : 				{
					"destination" : [ "obj-10", 60 ],
					"source" : [ "obj-1", 60 ]
				}

			}
, 			{
				"patchline" : 				{
					"destination" : [ "obj-10", 59 ],
					"source" : [ "obj-1", 59 ]
				}

			}
, 			{
				"patchline" : 				{
					"destination" : [ "obj-10", 58 ],
					"source" : [ "obj-1", 58 ]
				}

			}
, 			{
				"patchline" : 				{
					"destination" : [ "obj-10", 57 ],
					"source" : [ "obj-1", 57 ]
				}

			}
, 			{
				"patchline" : 				{
					"destination" : [ "obj-10", 56 ],
					"source" : [ "obj-1", 56 ]
				}

			}
, 			{
				"patchline" : 				{
					"destination" : [ "obj-10", 55 ],
					"source" : [ "obj-1", 55 ]
				}

			}
, 			{
				"patchline" : 				{
					"destination" : [ "obj-10", 54 ],
					"source" : [ "obj-1", 54 ]
				}

			}
, 			{
				"patchline" : 				{
					"destination" : [ "obj-10", 53 ],
					"source" : [ "obj-1", 53 ]
				}

			}
, 			{
				"patchline" : 				{
					"destination" : [ "obj-10", 52 ],
					"source" : [ "obj-1", 52 ]
				}

			}
, 			{
				"patchline" : 				{
					"destination" : [ "obj-10", 51 ],
					"source" : [ "obj-1", 51 ]
				}

			}
, 			{
				"patchline" : 				{
					"destination" : [ "obj-10", 50 ],
					"source" : [ "obj-1", 50 ]
				}

			}
, 			{
				"patchline" : 				{
					"destination" : [ "obj-10", 49 ],
					"source" : [ "obj-1", 49 ]
				}

			}
, 			{
				"patchline" : 				{
					"destination" : [ "obj-10", 48 ],
					"source" : [ "obj-1", 48 ]
				}

			}
, 			{
				"patchline" : 				{
					"destination" : [ "obj-10", 47 ],
					"source" : [ "obj-1", 47 ]
				}

			}
, 			{
				"patchline" : 				{
					"destination" : [ "obj-10", 46 ],
					"source" : [ "obj-1", 46 ]
				}

			}
, 			{
				"patchline" : 				{
					"destination" : [ "obj-10", 45 ],
					"source" : [ "obj-1", 45 ]
				}

			}
, 			{
				"patchline" : 				{
					"destination" : [ "obj-10", 44 ],
					"source" : [ "obj-1", 44 ]
				}

			}
, 			{
				"patchline" : 				{
					"destination" : [ "obj-10", 43 ],
					"source" : [ "obj-1", 43 ]
				}

			}
, 			{
				"patchline" : 				{
					"destination" : [ "obj-10", 42 ],
					"source" : [ "obj-1", 42 ]
				}

			}
, 			{
				"patchline" : 				{
					"destination" : [ "obj-10", 41 ],
					"source" : [ "obj-1", 41 ]
				}

			}
, 			{
				"patchline" : 				{
					"destination" : [ "obj-10", 40 ],
					"source" : [ "obj-1", 40 ]
				}

			}
, 			{
				"patchline" : 				{
					"destination" : [ "obj-10", 39 ],
					"source" : [ "obj-1", 39 ]
				}

			}
, 			{
				"patchline" : 				{
					"destination" : [ "obj-10", 38 ],
					"source" : [ "obj-1", 38 ]
				}

			}
, 			{
				"patchline" : 				{
					"destination" : [ "obj-10", 37 ],
					"source" : [ "obj-1", 37 ]
				}

			}
, 			{
				"patchline" : 				{
					"destination" : [ "obj-10", 36 ],
					"source" : [ "obj-1", 36 ]
				}

			}
, 			{
				"patchline" : 				{
					"destination" : [ "obj-10", 35 ],
					"source" : [ "obj-1", 35 ]
				}

			}
, 			{
				"patchline" : 				{
					"destination" : [ "obj-10", 34 ],
					"source" : [ "obj-1", 34 ]
				}

			}
, 			{
				"patchline" : 				{
					"destination" : [ "obj-10", 33 ],
					"source" : [ "obj-1", 33 ]
				}

			}
, 			{
				"patchline" : 				{
					"destination" : [ "obj-10", 32 ],
					"source" : [ "obj-1", 32 ]
				}

			}
, 			{
				"patchline" : 				{
					"destination" : [ "obj-10", 31 ],
					"source" : [ "obj-1", 31 ]
				}

			}
, 			{
				"patchline" : 				{
					"destination" : [ "obj-10", 30 ],
					"source" : [ "obj-1", 30 ]
				}

			}
, 			{
				"patchline" : 				{
					"destination" : [ "obj-10", 29 ],
					"source" : [ "obj-1", 29 ]
				}

			}
, 			{
				"patchline" : 				{
					"destination" : [ "obj-10", 28 ],
					"source" : [ "obj-1", 28 ]
				}

			}
, 			{
				"patchline" : 				{
					"destination" : [ "obj-10", 27 ],
					"source" : [ "obj-1", 27 ]
				}

			}
, 			{
				"patchline" : 				{
					"destination" : [ "obj-10", 26 ],
					"source" : [ "obj-1", 26 ]
				}

			}
, 			{
				"patchline" : 				{
					"destination" : [ "obj-10", 25 ],
					"source" : [ "obj-1", 25 ]
				}

			}
, 			{
				"patchline" : 				{
					"destination" : [ "obj-10", 24 ],
					"source" : [ "obj-1", 24 ]
				}

			}
, 			{
				"patchline" : 				{
					"destination" : [ "obj-10", 23 ],
					"source" : [ "obj-1", 23 ]
				}

			}
, 			{
				"patchline" : 				{
					"destination" : [ "obj-10", 22 ],
					"source" : [ "obj-1", 22 ]
				}

			}
, 			{
				"patchline" : 				{
					"destination" : [ "obj-10", 21 ],
					"source" : [ "obj-1", 21 ]
				}

			}
, 			{
				"patchline" : 				{
					"destination" : [ "obj-10", 20 ],
					"source" : [ "obj-1", 20 ]
				}

			}
, 			{
				"patchline" : 				{
					"destination" : [ "obj-10", 19 ],
					"source" : [ "obj-1", 19 ]
				}

			}
, 			{
				"patchline" : 				{
					"destination" : [ "obj-10", 18 ],
					"source" : [ "obj-1", 18 ]
				}

			}
, 			{
				"patchline" : 				{
					"destination" : [ "obj-10", 17 ],
					"source" : [ "obj-1", 17 ]
				}

			}
, 			{
				"patchline" : 				{
					"destination" : [ "obj-10", 16 ],
					"source" : [ "obj-1", 16 ]
				}

			}
, 			{
				"patchline" : 				{
					"destination" : [ "obj-10", 15 ],
					"source" : [ "obj-1", 15 ]
				}

			}
, 			{
				"patchline" : 				{
					"destination" : [ "obj-10", 14 ],
					"source" : [ "obj-1", 14 ]
				}

			}
, 			{
				"patchline" : 				{
					"destination" : [ "obj-10", 13 ],
					"source" : [ "obj-1", 13 ]
				}

			}
, 			{
				"patchline" : 				{
					"destination" : [ "obj-10", 12 ],
					"source" : [ "obj-1", 12 ]
				}

			}
, 			{
				"patchline" : 				{
					"destination" : [ "obj-10", 11 ],
					"source" : [ "obj-1", 11 ]
				}

			}
, 			{
				"patchline" : 				{
					"destination" : [ "obj-10", 10 ],
					"source" : [ "obj-1", 10 ]
				}

			}
, 			{
				"patchline" : 				{
					"destination" : [ "obj-10", 9 ],
					"source" : [ "obj-1", 9 ]
				}

			}
, 			{
				"patchline" : 				{
					"destination" : [ "obj-10", 8 ],
					"source" : [ "obj-1", 8 ]
				}

			}
, 			{
				"patchline" : 				{
					"destination" : [ "obj-10", 7 ],
					"source" : [ "obj-1", 7 ]
				}

			}
, 			{
				"patchline" : 				{
					"destination" : [ "obj-10", 6 ],
					"source" : [ "obj-1", 6 ]
				}

			}
, 			{
				"patchline" : 				{
					"destination" : [ "obj-10", 5 ],
					"source" : [ "obj-1", 5 ]
				}

			}
, 			{
				"patchline" : 				{
					"destination" : [ "obj-10", 4 ],
					"source" : [ "obj-1", 4 ]
				}

			}
, 			{
				"patchline" : 				{
					"destination" : [ "obj-10", 3 ],
					"source" : [ "obj-1", 3 ]
				}

			}
, 			{
				"patchline" : 				{
					"destination" : [ "obj-10", 2 ],
					"source" : [ "obj-1", 2 ]
				}

			}
, 			{
				"patchline" : 				{
					"destination" : [ "obj-10", 1 ],
					"source" : [ "obj-1", 1 ]
				}

			}
, 			{
				"patchline" : 				{
					"destination" : [ "obj-10", 0 ],
					"source" : [ "obj-1", 0 ]
				}

			}
, 			{
				"patchline" : 				{
					"destination" : [ "obj-103", 0 ],
					"source" : [ "obj-100", 0 ]
				}

			}
, 			{
				"patchline" : 				{
					"destination" : [ "obj-107", 0 ],
					"order" : 1,
					"source" : [ "obj-101", 0 ]
				}

			}
, 			{
				"patchline" : 				{
					"destination" : [ "obj-109", 0 ],
					"order" : 0,
					"source" : [ "obj-101", 0 ]
				}

			}
, 			{
				"patchline" : 				{
					"destination" : [ "obj-106", 1 ],
					"source" : [ "obj-103", 0 ]
				}

			}
, 			{
				"patchline" : 				{
					"destination" : [ "obj-99", 0 ],
					"source" : [ "obj-106", 0 ]
				}

			}
, 			{
				"patchline" : 				{
					"destination" : [ "obj-113", 0 ],
					"order" : 1,
					"source" : [ "obj-107", 0 ]
				}

			}
, 			{
				"patchline" : 				{
					"destination" : [ "obj-127", 0 ],
					"order" : 0,
					"source" : [ "obj-107", 0 ]
				}

			}
, 			{
				"patchline" : 				{
					"destination" : [ "obj-107", 1 ],
					"source" : [ "obj-109", 0 ]
				}

			}
, 			{
				"patchline" : 				{
					"destination" : [ "obj-1", 0 ],
					"source" : [ "obj-11", 0 ]
				}

			}
, 			{
				"patchline" : 				{
					"destination" : [ "obj-43", 0 ],
					"order" : 1,
					"source" : [ "obj-111", 0 ]
				}

			}
, 			{
				"patchline" : 				{
					"destination" : [ "obj-64", 0 ],
					"order" : 0,
					"source" : [ "obj-111", 0 ]
				}

			}
, 			{
				"patchline" : 				{
					"destination" : [ "obj-126", 0 ],
					"source" : [ "obj-113", 0 ]
				}

			}
, 			{
				"patchline" : 				{
					"destination" : [ "obj-11", 0 ],
					"source" : [ "obj-116", 0 ]
				}

			}
, 			{
				"patchline" : 				{
					"destination" : [ "obj-114", 0 ],
					"source" : [ "obj-117", 0 ]
				}

			}
, 			{
				"patchline" : 				{
					"destination" : [ "obj-126", 0 ],
					"source" : [ "obj-118", 0 ]
				}

			}
, 			{
				"patchline" : 				{
					"destination" : [ "obj-117", 0 ],
					"order" : 2,
					"source" : [ "obj-120", 0 ]
				}

			}
, 			{
				"patchline" : 				{
					"destination" : [ "obj-121", 0 ],
					"order" : 1,
					"source" : [ "obj-120", 0 ]
				}

			}
, 			{
				"patchline" : 				{
					"destination" : [ "obj-122", 0 ],
					"order" : 0,
					"source" : [ "obj-120", 0 ]
				}

			}
, 			{
				"patchline" : 				{
					"destination" : [ "obj-20", 0 ],
					"order" : 3,
					"source" : [ "obj-120", 0 ]
				}

			}
, 			{
				"patchline" : 				{
					"destination" : [ "obj-114", 0 ],
					"source" : [ "obj-121", 0 ]
				}

			}
, 			{
				"patchline" : 				{
					"destination" : [ "obj-114", 0 ],
					"source" : [ "obj-122", 0 ]
				}

			}
, 			{
				"patchline" : 				{
					"destination" : [ "obj-126", 0 ],
					"source" : [ "obj-123", 0 ]
				}

			}
, 			{
				"patchline" : 				{
					"destination" : [ "obj-126", 0 ],
					"source" : [ "obj-125", 0 ]
				}

			}
, 			{
				"patchline" : 				{
					"destination" : [ "obj-118", 0 ],
					"order" : 1,
					"source" : [ "obj-127", 0 ]
				}

			}
, 			{
				"patchline" : 				{
					"destination" : [ "obj-128", 0 ],
					"order" : 0,
					"source" : [ "obj-127", 0 ]
				}

			}
, 			{
				"patchline" : 				{
					"destination" : [ "obj-123", 0 ],
					"order" : 1,
					"source" : [ "obj-128", 0 ]
				}

			}
, 			{
				"patchline" : 				{
					"destination" : [ "obj-129", 0 ],
					"order" : 0,
					"source" : [ "obj-128", 0 ]
				}

			}
, 			{
				"patchline" : 				{
					"destination" : [ "obj-125", 0 ],
					"source" : [ "obj-129", 0 ]
				}

			}
, 			{
				"patchline" : 				{
					"destination" : [ "obj-64", 1 ],
					"source" : [ "obj-13", 0 ]
				}

			}
, 			{
				"patchline" : 				{
					"destination" : [ "obj-178", 0 ],
					"source" : [ "obj-135", 0 ]
				}

			}
, 			{
				"patchline" : 				{
					"destination" : [ "obj-11", 0 ],
					"source" : [ "obj-14", 0 ]
				}

			}
, 			{
				"patchline" : 				{
					"destination" : [ "obj-151", 0 ],
					"source" : [ "obj-147", 0 ]
				}

			}
, 			{
				"patchline" : 				{
					"destination" : [ "obj-151", 0 ],
					"source" : [ "obj-148", 0 ]
				}

			}
, 			{
				"patchline" : 				{
					"destination" : [ "obj-147", 0 ],
					"order" : 0,
					"source" : [ "obj-149", 0 ]
				}

			}
, 			{
				"patchline" : 				{
					"destination" : [ "obj-148", 0 ],
					"order" : 1,
					"source" : [ "obj-149", 0 ]
				}

			}
, 			{
				"patchline" : 				{
					"destination" : [ "obj-150", 0 ],
					"order" : 2,
					"source" : [ "obj-149", 0 ]
				}

			}
, 			{
				"patchline" : 				{
					"destination" : [ "obj-152", 0 ],
					"order" : 3,
					"source" : [ "obj-149", 0 ]
				}

			}
, 			{
				"patchline" : 				{
					"destination" : [ "obj-14", 0 ],
					"midpoints" : [ 12.5, 494.0, 33.5, 494.0 ],
					"source" : [ "obj-15", 0 ]
				}

			}
, 			{
				"patchline" : 				{
					"destination" : [ "obj-151", 0 ],
					"source" : [ "obj-150", 0 ]
				}

			}
, 			{
				"patchline" : 				{
					"destination" : [ "obj-151", 0 ],
					"source" : [ "obj-152", 0 ]
				}

			}
, 			{
				"patchline" : 				{
					"destination" : [ "obj-23", 0 ],
					"source" : [ "obj-16", 0 ]
				}

			}
, 			{
				"patchline" : 				{
					"destination" : [ "obj-217", 0 ],
					"order" : 1,
					"source" : [ "obj-166", 0 ]
				}

			}
, 			{
				"patchline" : 				{
					"destination" : [ "obj-218", 0 ],
					"order" : 0,
					"source" : [ "obj-166", 0 ]
				}

			}
, 			{
				"patchline" : 				{
					"destination" : [ "obj-220", 0 ],
					"order" : 2,
					"source" : [ "obj-166", 0 ]
				}

			}
, 			{
				"patchline" : 				{
					"destination" : [ "obj-190", 0 ],
					"order" : 0,
					"source" : [ "obj-169", 0 ]
				}

			}
, 			{
				"patchline" : 				{
					"destination" : [ "obj-204", 0 ],
					"order" : 1,
					"source" : [ "obj-169", 0 ]
				}

			}
, 			{
				"patchline" : 				{
					"destination" : [ "obj-21", 0 ],
					"source" : [ "obj-17", 0 ]
				}

			}
, 			{
				"patchline" : 				{
					"destination" : [ "obj-177", 0 ],
					"order" : 1,
					"source" : [ "obj-175", 0 ]
				}

			}
, 			{
				"patchline" : 				{
					"destination" : [ "obj-181", 0 ],
					"order" : 0,
					"source" : [ "obj-175", 0 ]
				}

			}
, 			{
				"patchline" : 				{
					"destination" : [ "obj-169", 0 ],
					"source" : [ "obj-177", 0 ]
				}

			}
, 			{
				"patchline" : 				{
					"destination" : [ "obj-169", 0 ],
					"order" : 1,
					"source" : [ "obj-178", 0 ]
				}

			}
, 			{
				"patchline" : 				{
					"destination" : [ "obj-182", 0 ],
					"order" : 0,
					"source" : [ "obj-178", 0 ]
				}

			}
, 			{
				"patchline" : 				{
					"destination" : [ "obj-178", 1 ],
					"source" : [ "obj-179", 0 ]
				}

			}
, 			{
				"patchline" : 				{
					"destination" : [ "obj-23", 0 ],
					"source" : [ "obj-18", 0 ]
				}

			}
, 			{
				"patchline" : 				{
					"destination" : [ "obj-182", 0 ],
					"source" : [ "obj-181", 0 ]
				}

			}
, 			{
				"patchline" : 				{
					"destination" : [ "obj-204", 1 ],
					"order" : 3,
					"source" : [ "obj-182", 0 ]
				}

			}
, 			{
				"patchline" : 				{
					"destination" : [ "obj-205", 1 ],
					"order" : 2,
					"source" : [ "obj-182", 0 ]
				}

			}
, 			{
				"patchline" : 				{
					"destination" : [ "obj-206", 1 ],
					"order" : 1,
					"source" : [ "obj-182", 0 ]
				}

			}
, 			{
				"patchline" : 				{
					"destination" : [ "obj-207", 1 ],
					"order" : 0,
					"source" : [ "obj-182", 0 ]
				}

			}
, 			{
				"patchline" : 				{
					"destination" : [ "obj-186", 0 ],
					"source" : [ "obj-183", 0 ]
				}

			}
, 			{
				"patchline" : 				{
					"destination" : [ "obj-186", 0 ],
					"source" : [ "obj-184", 0 ]
				}

			}
, 			{
				"patchline" : 				{
					"destination" : [ "obj-186", 0 ],
					"source" : [ "obj-185", 0 ]
				}

			}
, 			{
				"patchline" : 				{
					"destination" : [ "obj-186", 0 ],
					"source" : [ "obj-187", 0 ]
				}

			}
, 			{
				"patchline" : 				{
					"destination" : [ "obj-191", 0 ],
					"order" : 1,
					"source" : [ "obj-190", 0 ]
				}

			}
, 			{
				"patchline" : 				{
					"destination" : [ "obj-205", 0 ],
					"order" : 0,
					"source" : [ "obj-190", 0 ]
				}

			}
, 			{
				"patchline" : 				{
					"destination" : [ "obj-194", 0 ],
					"order" : 1,
					"source" : [ "obj-191", 0 ]
				}

			}
, 			{
				"patchline" : 				{
					"destination" : [ "obj-206", 0 ],
					"order" : 0,
					"source" : [ "obj-191", 0 ]
				}

			}
, 			{
				"patchline" : 				{
					"destination" : [ "obj-207", 0 ],
					"source" : [ "obj-194", 0 ]
				}

			}
, 			{
				"patchline" : 				{
					"destination" : [ "obj-114", 0 ],
					"source" : [ "obj-20", 0 ]
				}

			}
, 			{
				"patchline" : 				{
					"destination" : [ "obj-187", 0 ],
					"source" : [ "obj-204", 0 ]
				}

			}
, 			{
				"patchline" : 				{
					"destination" : [ "obj-185", 0 ],
					"source" : [ "obj-205", 0 ]
				}

			}
, 			{
				"patchline" : 				{
					"destination" : [ "obj-184", 0 ],
					"source" : [ "obj-206", 0 ]
				}

			}
, 			{
				"patchline" : 				{
					"destination" : [ "obj-183", 0 ],
					"source" : [ "obj-207", 0 ]
				}

			}
, 			{
				"patchline" : 				{
					"destination" : [ "obj-73", 0 ],
					"source" : [ "obj-21", 0 ]
				}

			}
, 			{
				"patchline" : 				{
					"destination" : [ "obj-213", 0 ],
					"source" : [ "obj-210", 0 ]
				}

			}
, 			{
				"patchline" : 				{
					"destination" : [ "obj-213", 0 ],
					"source" : [ "obj-211", 0 ]
				}

			}
, 			{
				"patchline" : 				{
					"destination" : [ "obj-213", 0 ],
					"source" : [ "obj-212", 0 ]
				}

			}
, 			{
				"patchline" : 				{
					"destination" : [ "obj-213", 0 ],
					"source" : [ "obj-214", 0 ]
				}

			}
, 			{
				"patchline" : 				{
					"destination" : [ "obj-218", 1 ],
					"source" : [ "obj-215", 0 ]
				}

			}
, 			{
				"patchline" : 				{
					"destination" : [ "obj-217", 1 ],
					"source" : [ "obj-216", 0 ]
				}

			}
, 			{
				"patchline" : 				{
					"destination" : [ "obj-221", 0 ],
					"order" : 0,
					"source" : [ "obj-217", 0 ]
				}

			}
, 			{
				"patchline" : 				{
					"destination" : [ "obj-226", 0 ],
					"order" : 1,
					"source" : [ "obj-217", 0 ]
				}

			}
, 			{
				"patchline" : 				{
					"destination" : [ "obj-229", 0 ],
					"order" : 0,
					"source" : [ "obj-218", 0 ]
				}

			}
, 			{
				"patchline" : 				{
					"destination" : [ "obj-230", 0 ],
					"order" : 1,
					"source" : [ "obj-218", 0 ]
				}

			}
, 			{
				"patchline" : 				{
					"destination" : [ "obj-23", 0 ],
					"source" : [ "obj-22", 0 ]
				}

			}
, 			{
				"patchline" : 				{
					"destination" : [ "obj-210", 0 ],
					"order" : 0,
					"source" : [ "obj-220", 0 ]
				}

			}
, 			{
				"patchline" : 				{
					"destination" : [ "obj-214", 0 ],
					"order" : 1,
					"source" : [ "obj-220", 0 ]
				}

			}
, 			{
				"patchline" : 				{
					"destination" : [ "obj-227", 1 ],
					"source" : [ "obj-221", 0 ]
				}

			}
, 			{
				"patchline" : 				{
					"destination" : [ "obj-221", 0 ],
					"order" : 1,
					"source" : [ "obj-222", 0 ]
				}

			}
, 			{
				"patchline" : 				{
					"destination" : [ "obj-230", 0 ],
					"order" : 0,
					"source" : [ "obj-222", 0 ]
				}

			}
, 			{
				"patchline" : 				{
					"destination" : [ "obj-226", 0 ],
					"order" : 1,
					"source" : [ "obj-224", 0 ]
				}

			}
, 			{
				"patchline" : 				{
					"destination" : [ "obj-229", 0 ],
					"order" : 0,
					"source" : [ "obj-224", 0 ]
				}

			}
, 			{
				"patchline" : 				{
					"destination" : [ "obj-222", 0 ],
					"order" : 0,
					"source" : [ "obj-225", 0 ]
				}

			}
, 			{
				"patchline" : 				{
					"destination" : [ "obj-224", 0 ],
					"order" : 1,
					"source" : [ "obj-225", 0 ]
				}

			}
, 			{
				"patchline" : 				{
					"destination" : [ "obj-227", 0 ],
					"source" : [ "obj-226", 0 ]
				}

			}
, 			{
				"patchline" : 				{
					"destination" : [ "obj-211", 0 ],
					"source" : [ "obj-227", 0 ]
				}

			}
, 			{
				"patchline" : 				{
					"destination" : [ "obj-212", 0 ],
					"source" : [ "obj-228", 0 ]
				}

			}
, 			{
				"patchline" : 				{
					"destination" : [ "obj-228", 1 ],
					"source" : [ "obj-229", 0 ]
				}

			}
, 			{
				"patchline" : 				{
					"destination" : [ "obj-228", 0 ],
					"source" : [ "obj-230", 0 ]
				}

			}
, 			{
				"patchline" : 				{
					"destination" : [ "obj-39", 0 ],
					"source" : [ "obj-25", 0 ]
				}

			}
, 			{
				"patchline" : 				{
					"destination" : [ "obj-23", 0 ],
					"source" : [ "obj-26", 0 ]
				}

			}
, 			{
				"patchline" : 				{
					"destination" : [ "obj-25", 1 ],
					"source" : [ "obj-27", 0 ]
				}

			}
, 			{
				"patchline" : 				{
					"destination" : [ "obj-1", 0 ],
					"source" : [ "obj-28", 0 ]
				}

			}
, 			{
				"patchline" : 				{
					"destination" : [ "obj-6", 0 ],
					"source" : [ "obj-3", 0 ]
				}

			}
, 			{
				"patchline" : 				{
					"destination" : [ "obj-16", 0 ],
					"order" : 0,
					"source" : [ "obj-31", 0 ]
				}

			}
, 			{
				"patchline" : 				{
					"destination" : [ "obj-18", 0 ],
					"order" : 1,
					"source" : [ "obj-31", 0 ]
				}

			}
, 			{
				"patchline" : 				{
					"destination" : [ "obj-22", 0 ],
					"order" : 2,
					"source" : [ "obj-31", 0 ]
				}

			}
, 			{
				"patchline" : 				{
					"destination" : [ "obj-26", 0 ],
					"order" : 3,
					"source" : [ "obj-31", 0 ]
				}

			}
, 			{
				"patchline" : 				{
					"destination" : [ "obj-91", 0 ],
					"source" : [ "obj-32", 0 ]
				}

			}
, 			{
				"patchline" : 				{
					"destination" : [ "obj-1", 1 ],
					"source" : [ "obj-38", 0 ]
				}

			}
, 			{
				"patchline" : 				{
					"destination" : [ "obj-42", 0 ],
					"source" : [ "obj-39", 0 ]
				}

			}
, 			{
				"patchline" : 				{
					"destination" : [ "obj-9", 0 ],
					"source" : [ "obj-4", 0 ]
				}

			}
, 			{
				"patchline" : 				{
					"destination" : [ "obj-1", 2 ],
					"source" : [ "obj-40", 0 ]
				}

			}
, 			{
				"patchline" : 				{
					"destination" : [ "obj-1", 3 ],
					"source" : [ "obj-41", 0 ]
				}

			}
, 			{
				"patchline" : 				{
					"destination" : [ "obj-25", 0 ],
					"order" : 1,
					"source" : [ "obj-43", 0 ]
				}

			}
, 			{
				"patchline" : 				{
					"destination" : [ "obj-27", 0 ],
					"order" : 0,
					"source" : [ "obj-43", 0 ]
				}

			}
, 			{
				"patchline" : 				{
					"destination" : [ "obj-67", 0 ],
					"source" : [ "obj-45", 0 ]
				}

			}
, 			{
				"patchline" : 				{
					"destination" : [ "obj-106", 0 ],
					"order" : 0,
					"source" : [ "obj-49", 0 ]
				}

			}
, 			{
				"patchline" : 				{
					"destination" : [ "obj-45", 0 ],
					"order" : 2,
					"source" : [ "obj-49", 0 ]
				}

			}
, 			{
				"patchline" : 				{
					"destination" : [ "obj-78", 0 ],
					"order" : 1,
					"source" : [ "obj-49", 0 ]
				}

			}
, 			{
				"patchline" : 				{
					"destination" : [ "obj-17", 0 ],
					"source" : [ "obj-5", 0 ]
				}

			}
, 			{
				"patchline" : 				{
					"destination" : [ "obj-52", 1 ],
					"order" : 0,
					"source" : [ "obj-50", 0 ]
				}

			}
, 			{
				"patchline" : 				{
					"destination" : [ "obj-52", 0 ],
					"order" : 1,
					"source" : [ "obj-50", 0 ]
				}

			}
, 			{
				"patchline" : 				{
					"destination" : [ "obj-5", 0 ],
					"source" : [ "obj-51", 0 ]
				}

			}
, 			{
				"patchline" : 				{
					"destination" : [ "obj-46", 0 ],
					"source" : [ "obj-52", 0 ]
				}

			}
, 			{
				"patchline" : 				{
					"destination" : [ "obj-120", 0 ],
					"order" : 0,
					"source" : [ "obj-53", 0 ]
				}

			}
, 			{
				"patchline" : 				{
					"destination" : [ "obj-63", 0 ],
					"order" : 1,
					"source" : [ "obj-53", 0 ]
				}

			}
, 			{
				"patchline" : 				{
					"destination" : [ "obj-57", 0 ],
					"source" : [ "obj-54", 0 ]
				}

			}
, 			{
				"patchline" : 				{
					"destination" : [ "obj-58", 0 ],
					"source" : [ "obj-56", 0 ]
				}

			}
, 			{
				"patchline" : 				{
					"destination" : [ "obj-56", 0 ],
					"source" : [ "obj-57", 0 ]
				}

			}
, 			{
				"patchline" : 				{
					"destination" : [ "obj-111", 0 ],
					"order" : 1,
					"source" : [ "obj-58", 2 ]
				}

			}
, 			{
				"patchline" : 				{
					"destination" : [ "obj-111", 0 ],
					"source" : [ "obj-58", 1 ]
				}

			}
, 			{
				"patchline" : 				{
					"destination" : [ "obj-120", 0 ],
					"source" : [ "obj-58", 0 ]
				}

			}
, 			{
				"patchline" : 				{
					"destination" : [ "obj-135", 0 ],
					"order" : 1,
					"source" : [ "obj-58", 5 ]
				}

			}
, 			{
				"patchline" : 				{
					"destination" : [ "obj-135", 0 ],
					"source" : [ "obj-58", 4 ]
				}

			}
, 			{
				"patchline" : 				{
					"destination" : [ "obj-149", 0 ],
					"order" : 0,
					"source" : [ "obj-58", 3 ]
				}

			}
, 			{
				"patchline" : 				{
					"destination" : [ "obj-166", 0 ],
					"order" : 0,
					"source" : [ "obj-58", 5 ]
				}

			}
, 			{
				"patchline" : 				{
					"destination" : [ "obj-88", 0 ],
					"order" : 1,
					"source" : [ "obj-58", 3 ]
				}

			}
, 			{
				"patchline" : 				{
					"destination" : [ "obj-88", 0 ],
					"order" : 0,
					"source" : [ "obj-58", 2 ]
				}

			}
, 			{
				"patchline" : 				{
					"destination" : [ "obj-51", 0 ],
					"source" : [ "obj-6", 0 ]
				}

			}
, 			{
				"patchline" : 				{
					"destination" : [ "obj-111", 0 ],
					"midpoints" : [ 462.5, 312.0, 770.0, 312.0 ],
					"order" : 3,
					"source" : [ "obj-63", 0 ]
				}

			}
, 			{
				"patchline" : 				{
					"destination" : [ "obj-135", 0 ],
					"midpoints" : [ 462.5, 310.0, 1277.5, 310.0 ],
					"order" : 1,
					"source" : [ "obj-63", 0 ]
				}

			}
, 			{
				"patchline" : 				{
					"destination" : [ "obj-166", 0 ],
					"midpoints" : [ 462.5, 311.0, 1463.5, 311.0 ],
					"order" : 0,
					"source" : [ "obj-63", 0 ]
				}

			}
, 			{
				"patchline" : 				{
					"destination" : [ "obj-88", 0 ],
					"midpoints" : [ 462.5, 313.0, 938.5, 313.0 ],
					"order" : 2,
					"source" : [ "obj-63", 0 ]
				}

			}
, 			{
				"patchline" : 				{
					"destination" : [ "obj-65", 0 ],
					"order" : 1,
					"source" : [ "obj-64", 0 ]
				}

			}
, 			{
				"patchline" : 				{
					"destination" : [ "obj-70", 0 ],
					"order" : 0,
					"source" : [ "obj-64", 0 ]
				}

			}
, 			{
				"patchline" : 				{
					"destination" : [ "obj-74", 0 ],
					"source" : [ "obj-65", 0 ]
				}

			}
, 			{
				"patchline" : 				{
					"destination" : [ "obj-14", 0 ],
					"midpoints" : [ 417.5, 493.0, 33.5, 493.0 ],
					"source" : [ "obj-7", 0 ]
				}

			}
, 			{
				"patchline" : 				{
					"destination" : [ "obj-65", 1 ],
					"source" : [ "obj-70", 0 ]
				}

			}
, 			{
				"patchline" : 				{
					"destination" : [ "obj-100", 0 ],
					"order" : 1,
					"source" : [ "obj-73", 0 ]
				}

			}
, 			{
				"patchline" : 				{
					"destination" : [ "obj-45", 1 ],
					"order" : 0,
					"source" : [ "obj-73", 0 ]
				}

			}
, 			{
				"patchline" : 				{
					"destination" : [ "obj-77", 0 ],
					"order" : 2,
					"source" : [ "obj-73", 0 ]
				}

			}
, 			{
				"patchline" : 				{
					"destination" : [ "obj-42", 0 ],
					"source" : [ "obj-74", 0 ]
				}

			}
, 			{
				"patchline" : 				{
					"destination" : [ "obj-78", 1 ],
					"source" : [ "obj-76", 0 ]
				}

			}
, 			{
				"patchline" : 				{
					"destination" : [ "obj-76", 0 ],
					"source" : [ "obj-77", 0 ]
				}

			}
, 			{
				"patchline" : 				{
					"destination" : [ "obj-68", 0 ],
					"source" : [ "obj-78", 0 ]
				}

			}
, 			{
				"patchline" : 				{
					"destination" : [ "obj-43", 1 ],
					"source" : [ "obj-8", 0 ]
				}

			}
, 			{
				"patchline" : 				{
					"destination" : [ "obj-101", 0 ],
					"source" : [ "obj-88", 0 ]
				}

			}
, 			{
				"patchline" : 				{
					"destination" : [ "obj-101", 1 ],
					"source" : [ "obj-89", 0 ]
				}

			}
, 			{
				"patchline" : 				{
					"destination" : [ "obj-15", 0 ],
					"source" : [ "obj-9", 1 ]
				}

			}
, 			{
				"patchline" : 				{
					"destination" : [ "obj-31", 0 ],
					"source" : [ "obj-9", 0 ]
				}

			}
, 			{
				"patchline" : 				{
					"destination" : [ "obj-7", 0 ],
					"source" : [ "obj-9", 2 ]
				}

			}
, 			{
				"patchline" : 				{
					"destination" : [ "obj-49", 0 ],
					"order" : 1,
					"source" : [ "obj-92", 0 ]
				}

			}
, 			{
				"patchline" : 				{
					"destination" : [ "obj-54", 0 ],
					"order" : 0,
					"source" : [ "obj-92", 0 ]
				}

			}
, 			{
				"patchline" : 				{
					"destination" : [ "obj-28", 0 ],
					"midpoints" : [ 370.5, 761.0, 235.5, 761.0 ],
					"order" : 3,
					"source" : [ "obj-95", 0 ]
				}

			}
, 			{
				"patchline" : 				{
					"destination" : [ "obj-38", 0 ],
					"midpoints" : [ 370.5, 760.0, 332.5, 760.0 ],
					"order" : 2,
					"source" : [ "obj-95", 0 ]
				}

			}
, 			{
				"patchline" : 				{
					"destination" : [ "obj-40", 0 ],
					"midpoints" : [ 370.5, 759.0, 429.5, 759.0 ],
					"order" : 1,
					"source" : [ "obj-95", 0 ]
				}

			}
, 			{
				"patchline" : 				{
					"destination" : [ "obj-41", 0 ],
					"midpoints" : [ 370.5, 759.0, 526.5, 759.0 ],
					"order" : 0,
					"source" : [ "obj-95", 0 ]
				}

			}
 ],
		"parameters" : 		{
			"obj-2::obj-11" : [ "live.text[4]", "live.text", 0 ],
			"obj-2::obj-110" : [ "live.text[5]", "live.text", 0 ],
			"obj-2::obj-16" : [ "live.text[1]", "live.text", 0 ],
			"obj-2::obj-55" : [ "live.text[3]", "live.text", 0 ],
			"obj-2::obj-606" : [ "live.text[2]", "live.text", 0 ],
			"obj-2::obj-607" : [ "live.button[1]", "live.button", 0 ],
			"parameterbanks" : 			{

			}
,
			"inherited_shortname" : 1
		}
,
		"dependency_cache" : [ 			{
				"name" : "spat5.cpu.mxe64",
				"type" : "mx64"
			}
, 			{
				"name" : "spat5.hostinfos.mxe64",
				"type" : "mx64"
			}
, 			{
				"name" : "spat5.monitor.maxpat",
				"bootpath" : "C:/ProgramData/Max 8/Packages/spat5-x64/patchers",
				"patcherrelativepath" : "../../../../../../../ProgramData/Max 8/Packages/spat5-x64/patchers",
				"type" : "JSON",
				"implicit" : 1
			}
, 			{
				"name" : "spat5.oper.mxe64",
				"type" : "mx64"
			}
, 			{
				"name" : "spat5.spat~.mxe64",
				"type" : "mx64"
			}
, 			{
				"name" : "spat5.speaker.config.mxe64",
				"type" : "mx64"
			}
 ],
		"autosave" : 0,
		"styles" : [ 			{
				"name" : "AudioStatus_Menu",
				"default" : 				{
					"bgfillcolor" : 					{
						"angle" : 270.0,
						"autogradient" : 0,
						"color" : [ 0.294118, 0.313726, 0.337255, 1 ],
						"color1" : [ 0.454902, 0.462745, 0.482353, 0.0 ],
						"color2" : [ 0.290196, 0.309804, 0.301961, 1.0 ],
						"proportion" : 0.39,
						"type" : "color"
					}

				}
,
				"parentstyle" : "",
				"multi" : 0
			}
, 			{
				"name" : "Audiomix",
				"default" : 				{
					"bgfillcolor" : 					{
						"angle" : 270.0,
						"color" : [ 0.290196, 0.309804, 0.301961, 1.0 ],
						"color1" : [ 0.376471, 0.384314, 0.4, 1.0 ],
						"color2" : [ 0.290196, 0.309804, 0.301961, 1.0 ],
						"proportion" : 0.39,
						"type" : "gradient"
					}

				}
,
				"parentstyle" : "",
				"multi" : 0
			}
, 			{
				"name" : "Default 11Bold Poletti",
				"default" : 				{
					"fontsize" : [ 11.0 ]
				}
,
				"parentstyle" : "",
				"multi" : 0
			}
, 			{
				"name" : "Default M4L",
				"default" : 				{
					"fontname" : [ "Arial Bold" ],
					"fontsize" : [ 11.0 ],
					"patchlinecolor" : [ 0.290196, 0.309804, 0.301961, 0.85 ]
				}
,
				"parentstyle" : "",
				"multi" : 0
			}
, 			{
				"name" : "Default M4L Poletti",
				"default" : 				{
					"fontname" : [ "Arial Bold" ],
					"fontsize" : [ 10.0 ],
					"patchlinecolor" : [ 0.290196, 0.309804, 0.301961, 0.85 ]
				}
,
				"parentstyle" : "",
				"multi" : 0
			}
, 			{
				"name" : "Default M4L Poletti-1",
				"default" : 				{
					"fontname" : [ "Arial Bold" ],
					"fontsize" : [ 11.0 ],
					"patchlinecolor" : [ 0.290196, 0.309804, 0.301961, 0.85 ]
				}
,
				"parentstyle" : "",
				"multi" : 0
			}
, 			{
				"name" : "Default M4L-1",
				"default" : 				{
					"bgfillcolor" : 					{
						"angle" : 270.0,
						"color" : [ 0.290196, 0.309804, 0.301961, 1.0 ],
						"color1" : [ 0.376471, 0.384314, 0.4, 1.0 ],
						"color2" : [ 0.290196, 0.309804, 0.301961, 1.0 ],
						"proportion" : 0.39,
						"type" : "gradient"
					}
,
					"fontface" : [ 1 ],
					"fontname" : [ "Arial" ],
					"fontsize" : [ 11.0 ]
				}
,
				"parentstyle" : "",
				"multi" : 0
			}
, 			{
				"name" : "Default Max7 Poletti",
				"default" : 				{
					"bgfillcolor" : 					{
						"angle" : 270.0,
						"color" : [ 0.290196, 0.309804, 0.301961, 1.0 ],
						"color1" : [ 0.376471, 0.384314, 0.4, 1.0 ],
						"color2" : [ 0.290196, 0.309804, 0.301961, 1.0 ],
						"proportion" : 0.39,
						"type" : "gradient"
					}

				}
,
				"parentstyle" : "",
				"multi" : 0
			}
, 			{
				"name" : "Luca",
				"default" : 				{
					"accentcolor" : [ 0.32549, 0.345098, 0.372549, 1.0 ],
					"bgcolor" : [ 0.904179, 0.895477, 0.842975, 0.56 ],
					"bgfillcolor" : 					{
						"angle" : 270.0,
						"autogradient" : 0,
						"color" : [ 0.290196, 0.309804, 0.301961, 1.0 ],
						"color1" : [ 0.862745, 0.870588, 0.878431, 1.0 ],
						"color2" : [ 0.65098, 0.666667, 0.662745, 1.0 ],
						"proportion" : 0.39,
						"type" : "gradient"
					}
,
					"color" : [ 0.475135, 0.293895, 0.251069, 1.0 ],
					"elementcolor" : [ 0.786675, 0.801885, 0.845022, 1.0 ],
					"fontname" : [ "Open Sans Semibold" ],
					"selectioncolor" : [ 0.720698, 0.16723, 0.080014, 1.0 ],
					"textcolor_inverse" : [ 0.239216, 0.254902, 0.278431, 1.0 ]
				}
,
				"parentstyle" : "",
				"multi" : 0
			}
, 			{
				"name" : "M4L 10 Bold",
				"default" : 				{
					"fontface" : [ 1 ],
					"fontsize" : [ 10.0 ],
					"patchlinecolor" : [ 0.0, 0.0, 0.0, 0.25 ]
				}
,
				"parentstyle" : "",
				"multi" : 0
			}
, 			{
				"name" : "M4L10",
				"parentstyle" : "",
				"multi" : 0
			}
, 			{
				"name" : "MP Default",
				"parentstyle" : "",
				"multi" : 0
			}
, 			{
				"name" : "Manuel-11B",
				"default" : 				{
					"bgfillcolor" : 					{
						"angle" : 270.0,
						"color" : [ 0.290196, 0.309804, 0.301961, 1.0 ],
						"color1" : [ 0.376471, 0.384314, 0.4, 1.0 ],
						"color2" : [ 0.290196, 0.309804, 0.301961, 1.0 ],
						"proportion" : 0.39,
						"type" : "gradient"
					}
,
					"fontface" : [ 1 ],
					"fontname" : [ "Arial" ],
					"fontsize" : [ 11.0 ]
				}
,
				"parentstyle" : "",
				"multi" : 0
			}
, 			{
				"name" : "Matt",
				"default" : 				{
					"fontface" : [ 1 ],
					"fontsize" : [ 10.0 ]
				}
,
				"parentstyle" : "",
				"multi" : 0
			}
, 			{
				"name" : "Max 12 Regular",
				"parentstyle" : "",
				"multi" : 0
			}
, 			{
				"name" : "Max 12 Regular-1",
				"default" : 				{
					"bgfillcolor" : 					{
						"angle" : 270.0,
						"color" : [ 0.290196, 0.309804, 0.301961, 1.0 ],
						"color1" : [ 0.376471, 0.384314, 0.4, 1.0 ],
						"color2" : [ 0.290196, 0.309804, 0.301961, 1.0 ],
						"proportion" : 0.39,
						"type" : "gradient"
					}

				}
,
				"parentstyle" : "",
				"multi" : 0
			}
, 			{
				"name" : "Max 12 Regular-1-1",
				"parentstyle" : "",
				"multi" : 0
			}
, 			{
				"name" : "Max 12 Regular-1-1-1",
				"default" : 				{
					"bgfillcolor" : 					{
						"angle" : 270.0,
						"color" : [ 0.290196, 0.309804, 0.301961, 1.0 ],
						"color1" : [ 0.376471, 0.384314, 0.4, 1.0 ],
						"color2" : [ 0.290196, 0.309804, 0.301961, 1.0 ],
						"proportion" : 0.39,
						"type" : "gradient"
					}

				}
,
				"parentstyle" : "",
				"multi" : 0
			}
, 			{
				"name" : "Max 12 Regular-1-1-1-1",
				"parentstyle" : "",
				"multi" : 0
			}
, 			{
				"name" : "Max 12 Regular-1-1-1-1-1",
				"default" : 				{
					"bgfillcolor" : 					{
						"angle" : 270.0,
						"color" : [ 0.290196, 0.309804, 0.301961, 1.0 ],
						"color1" : [ 0.376471, 0.384314, 0.4, 1.0 ],
						"color2" : [ 0.290196, 0.309804, 0.301961, 1.0 ],
						"proportion" : 0.39,
						"type" : "gradient"
					}

				}
,
				"parentstyle" : "",
				"multi" : 0
			}
, 			{
				"name" : "Max 12 Regular-1-1-1-2",
				"default" : 				{
					"bgfillcolor" : 					{
						"angle" : 270.0,
						"color" : [ 0.290196, 0.309804, 0.301961, 1.0 ],
						"color1" : [ 0.376471, 0.384314, 0.4, 1.0 ],
						"color2" : [ 0.290196, 0.309804, 0.301961, 1.0 ],
						"proportion" : 0.39,
						"type" : "gradient"
					}

				}
,
				"parentstyle" : "",
				"multi" : 0
			}
, 			{
				"name" : "Max 12 Regular-1-1-2",
				"default" : 				{
					"bgfillcolor" : 					{
						"angle" : 270.0,
						"color" : [ 0.290196, 0.309804, 0.301961, 1.0 ],
						"color1" : [ 0.376471, 0.384314, 0.4, 1.0 ],
						"color2" : [ 0.290196, 0.309804, 0.301961, 1.0 ],
						"proportion" : 0.39,
						"type" : "gradient"
					}

				}
,
				"parentstyle" : "",
				"multi" : 0
			}
, 			{
				"name" : "Max 12 Regular-1-1-3",
				"default" : 				{
					"bgfillcolor" : 					{
						"angle" : 270.0,
						"color" : [ 0.290196, 0.309804, 0.301961, 1.0 ],
						"color1" : [ 0.376471, 0.384314, 0.4, 1.0 ],
						"color2" : [ 0.290196, 0.309804, 0.301961, 1.0 ],
						"proportion" : 0.39,
						"type" : "gradient"
					}

				}
,
				"parentstyle" : "",
				"multi" : 0
			}
, 			{
				"name" : "Max 12 Regular-1-1-4",
				"parentstyle" : "",
				"multi" : 0
			}
, 			{
				"name" : "Max 12 Regular-1-2",
				"default" : 				{
					"bgfillcolor" : 					{
						"angle" : 270.0,
						"color" : [ 0.290196, 0.309804, 0.301961, 1.0 ],
						"color1" : [ 0.376471, 0.384314, 0.4, 1.0 ],
						"color2" : [ 0.290196, 0.309804, 0.301961, 1.0 ],
						"proportion" : 0.39,
						"type" : "gradient"
					}

				}
,
				"parentstyle" : "",
				"multi" : 0
			}
, 			{
				"name" : "Max 12 Regular-1-2-1",
				"parentstyle" : "",
				"multi" : 0
			}
, 			{
				"name" : "Max 12 Regular-1-2-2",
				"parentstyle" : "",
				"multi" : 0
			}
, 			{
				"name" : "Max 12 Regular-1-3",
				"parentstyle" : "",
				"multi" : 0
			}
, 			{
				"name" : "Max 12 Regular-1-4",
				"default" : 				{
					"bgfillcolor" : 					{
						"angle" : 270.0,
						"color" : [ 0.290196, 0.309804, 0.301961, 1.0 ],
						"color1" : [ 0.376471, 0.384314, 0.4, 1.0 ],
						"color2" : [ 0.290196, 0.309804, 0.301961, 1.0 ],
						"proportion" : 0.39,
						"type" : "gradient"
					}

				}
,
				"parentstyle" : "",
				"multi" : 0
			}
, 			{
				"name" : "Max 12 Regular-2",
				"default" : 				{
					"bgfillcolor" : 					{
						"angle" : 270.0,
						"color" : [ 0.290196, 0.309804, 0.301961, 1.0 ],
						"color1" : [ 0.376471, 0.384314, 0.4, 1.0 ],
						"color2" : [ 0.290196, 0.309804, 0.301961, 1.0 ],
						"proportion" : 0.39,
						"type" : "gradient"
					}

				}
,
				"parentstyle" : "",
				"multi" : 0
			}
, 			{
				"name" : "Max 12 Regular-3",
				"default" : 				{
					"bgfillcolor" : 					{
						"angle" : 270.0,
						"color" : [ 0.290196, 0.309804, 0.301961, 1.0 ],
						"color1" : [ 0.376471, 0.384314, 0.4, 1.0 ],
						"color2" : [ 0.290196, 0.309804, 0.301961, 1.0 ],
						"proportion" : 0.39,
						"type" : "gradient"
					}

				}
,
				"parentstyle" : "",
				"multi" : 0
			}
, 			{
				"name" : "Max 12 Regular-4",
				"parentstyle" : "",
				"multi" : 0
			}
, 			{
				"name" : "Max 12 Regular-4-1",
				"default" : 				{
					"bgfillcolor" : 					{
						"angle" : 270.0,
						"color" : [ 0.290196, 0.309804, 0.301961, 1.0 ],
						"color1" : [ 0.376471, 0.384314, 0.4, 1.0 ],
						"color2" : [ 0.290196, 0.309804, 0.301961, 1.0 ],
						"proportion" : 0.39,
						"type" : "gradient"
					}

				}
,
				"parentstyle" : "",
				"multi" : 0
			}
, 			{
				"name" : "Max 12 Regular-4-2",
				"default" : 				{
					"bgfillcolor" : 					{
						"angle" : 270.0,
						"color" : [ 0.290196, 0.309804, 0.301961, 1.0 ],
						"color1" : [ 0.376471, 0.384314, 0.4, 1.0 ],
						"color2" : [ 0.290196, 0.309804, 0.301961, 1.0 ],
						"proportion" : 0.39,
						"type" : "gradient"
					}

				}
,
				"parentstyle" : "",
				"multi" : 0
			}
, 			{
				"name" : "Max 12 Regular-5",
				"default" : 				{
					"bgfillcolor" : 					{
						"angle" : 270.0,
						"color" : [ 0.290196, 0.309804, 0.301961, 1.0 ],
						"color1" : [ 0.376471, 0.384314, 0.4, 1.0 ],
						"color2" : [ 0.290196, 0.309804, 0.301961, 1.0 ],
						"proportion" : 0.39,
						"type" : "gradient"
					}

				}
,
				"parentstyle" : "",
				"multi" : 0
			}
, 			{
				"name" : "Max 12 Regular-6",
				"parentstyle" : "",
				"multi" : 0
			}
, 			{
				"name" : "Max For Live",
				"default" : 				{
					"patchlinecolor" : [ 0.239216, 0.254902, 0.278431, 0.631373 ]
				}
,
				"parentstyle" : "",
				"multi" : 0
			}
, 			{
				"name" : "WTF",
				"default" : 				{
					"accentcolor" : [ 0.50764, 0.065317, 0.112129, 1.0 ],
					"bgcolor" : [ 0.163647, 0.174699, 0.17409, 1.0 ],
					"bgfillcolor" : 					{
						"angle" : 270.0,
						"autogradient" : 0,
						"color" : [ 0.290196, 0.309804, 0.301961, 1.0 ],
						"color1" : [ 0.32549, 0.345098, 0.372549, 1.0 ],
						"color2" : [ 0.290196, 0.309804, 0.301961, 1.0 ],
						"proportion" : 0.39,
						"type" : "gradient"
					}
,
					"color" : [ 0.113725, 0.580392, 0.737255, 1.0 ],
					"elementcolor" : [ 0.461105, 0.492646, 0.591878, 1.0 ],
					"fontname" : [ "HydrogenType" ],
					"fontsize" : [ 18.0 ],
					"patchlinecolor" : [ 0.231373, 0.121569, 0.305882, 0.9 ]
				}
,
				"parentstyle" : "",
				"multi" : 0
			}
, 			{
				"name" : "classic",
				"default" : 				{
					"accentcolor" : [ 0.498039, 0.498039, 0.498039, 1.0 ],
					"bgcolor" : [ 0.83978, 0.839941, 0.839753, 1.0 ],
					"bgfillcolor" : 					{
						"angle" : 270.0,
						"color" : [ 0.839216, 0.839216, 0.839216, 1.0 ],
						"color1" : [ 0.83978, 0.839941, 0.839753, 1.0 ],
						"color2" : [ 0.290196, 0.309804, 0.301961, 1.0 ],
						"proportion" : 0.39,
						"type" : "color"
					}
,
					"color" : [ 0.498039, 0.498039, 0.498039, 1.0 ],
					"fontname" : [ "Geneva" ],
					"fontsize" : [ 9.0 ],
					"patchlinecolor" : [ 0.0, 0.0, 0.0, 1.0 ],
					"textcolor_inverse" : [ 0.0, 0.0, 0.0, 1.0 ]
				}
,
				"parentstyle" : "",
				"multi" : 0
			}
, 			{
				"name" : "classicButton",
				"default" : 				{
					"color" : [ 1.0, 0.890196, 0.090196, 1.0 ]
				}
,
				"parentstyle" : "",
				"multi" : 0
			}
, 			{
				"name" : "classicDial",
				"default" : 				{
					"color" : [ 1.0, 0.890196, 0.090196, 1.0 ]
				}
,
				"parentstyle" : "",
				"multi" : 0
			}
, 			{
				"name" : "classicGain~",
				"default" : 				{
					"color" : [ 0.380392, 0.380392, 0.380392, 1.0 ]
				}
,
				"parentstyle" : "",
				"multi" : 0
			}
, 			{
				"name" : "classicGswitch",
				"default" : 				{
					"accentcolor" : [ 1.0, 1.0, 1.0, 1.0 ]
				}
,
				"parentstyle" : "",
				"multi" : 0
			}
, 			{
				"name" : "classicGswitch2",
				"default" : 				{
					"accentcolor" : [ 1.0, 1.0, 1.0, 1.0 ]
				}
,
				"parentstyle" : "",
				"multi" : 0
			}
, 			{
				"name" : "classicKslider",
				"default" : 				{
					"bgcolor" : [ 0.0, 0.0, 0.0, 1.0 ],
					"color" : [ 1.0, 1.0, 1.0, 1.0 ],
					"elementcolor" : [ 0.498039, 0.498039, 0.498039, 1.0 ],
					"selectioncolor" : [ 0.498039, 0.498039, 0.498039, 1.0 ]
				}
,
				"parentstyle" : "",
				"multi" : 0
			}
, 			{
				"name" : "classicLed",
				"default" : 				{
					"color" : [ 1.0, 0.0, 0.0, 1.0 ],
					"elementcolor" : [ 0.6, 0.0, 0.0, 1.0 ]
				}
,
				"parentstyle" : "",
				"multi" : 0
			}
, 			{
				"name" : "classicMatrixctrl",
				"default" : 				{
					"color" : [ 1.0, 0.0, 0.0, 1.0 ]
				}
,
				"parentstyle" : "",
				"multi" : 0
			}
, 			{
				"name" : "classicMeter~",
				"default" : 				{
					"bgcolor" : [ 0.380392, 0.380392, 0.380392, 1.0 ],
					"elementcolor" : [ 0.498039, 0.498039, 0.498039, 1.0 ]
				}
,
				"parentstyle" : "",
				"multi" : 0
			}
, 			{
				"name" : "classicNodes",
				"default" : 				{
					"color" : [ 0.839216, 0.839216, 0.839216, 1.0 ],
					"elementcolor" : [ 0.498039, 0.498039, 0.498039, 1.0 ],
					"fontsize" : [ 9.0 ]
				}
,
				"parentstyle" : "",
				"multi" : 0
			}
, 			{
				"name" : "classicNslider",
				"default" : 				{
					"color" : [ 0.0, 0.0, 0.0, 1.0 ]
				}
,
				"parentstyle" : "",
				"multi" : 0
			}
, 			{
				"name" : "classicNumber",
				"default" : 				{
					"selectioncolor" : [ 1.0, 0.890196, 0.0, 1.0 ]
				}
,
				"parentstyle" : "",
				"multi" : 0
			}
, 			{
				"name" : "classicPictslider",
				"default" : 				{
					"elementcolor" : [ 0.498039, 0.498039, 0.498039, 1.0 ]
				}
,
				"parentstyle" : "",
				"multi" : 0
			}
, 			{
				"name" : "classicPreset",
				"default" : 				{
					"color" : [ 1.0, 0.890196, 0.090196, 1.0 ]
				}
,
				"parentstyle" : "",
				"multi" : 0
			}
, 			{
				"name" : "classicScope~",
				"default" : 				{
					"bgcolor" : [ 0.498039, 0.498039, 0.498039, 1.0 ],
					"color" : [ 0.462745, 0.933333, 0.0, 1.0 ]
				}
,
				"parentstyle" : "",
				"multi" : 0
			}
, 			{
				"name" : "classicTab",
				"default" : 				{
					"color" : [ 0.498039, 0.498039, 0.498039, 1.0 ],
					"elementcolor" : [ 0.839216, 0.839216, 0.839216, 1.0 ]
				}
,
				"parentstyle" : "",
				"multi" : 0
			}
, 			{
				"name" : "classicTextbutton",
				"default" : 				{
					"accentcolor" : [ 0.0, 0.0, 0.0, 1.0 ],
					"color" : [ 1.0, 1.0, 1.0, 1.0 ]
				}
,
				"parentstyle" : "",
				"multi" : 0
			}
, 			{
				"name" : "classicToggle",
				"default" : 				{
					"color" : [ 0.380392, 0.380392, 0.380392, 1.0 ],
					"elementcolor" : [ 0.376471, 0.384314, 0.4, 0.0 ]
				}
,
				"parentstyle" : "",
				"multi" : 0
			}
, 			{
				"name" : "classicUmenu",
				"default" : 				{
					"color" : [ 1.0, 1.0, 1.0, 1.0 ]
				}
,
				"parentstyle" : "",
				"multi" : 0
			}
, 			{
				"name" : "classicWaveform~",
				"default" : 				{
					"color" : [ 0.380392, 0.380392, 0.380392, 1.0 ],
					"selectioncolor" : [ 0.498039, 0.498039, 0.498039, 0.5 ]
				}
,
				"parentstyle" : "",
				"multi" : 0
			}
, 			{
				"name" : "dark-night-patch",
				"default" : 				{
					"accentcolor" : [ 0.952941, 0.564706, 0.098039, 1.0 ],
					"bgfillcolor" : 					{
						"angle" : 270.0,
						"color" : [ 0.290196, 0.309804, 0.301961, 1.0 ],
						"color1" : [ 0.376471, 0.384314, 0.4, 1.0 ],
						"color2" : [ 0.290196, 0.309804, 0.301961, 1.0 ],
						"proportion" : 0.39,
						"type" : "gradient"
					}
,
					"patchlinecolor" : [ 0.439216, 0.74902, 0.254902, 0.898039 ],
					"textcolor" : [ 0.862745, 0.870588, 0.878431, 1.0 ]
				}
,
				"parentstyle" : "",
				"multi" : 0
			}
, 			{
				"name" : "jbb",
				"default" : 				{
					"bgfillcolor" : 					{
						"angle" : 270.0,
						"color" : [ 0.290196, 0.309804, 0.301961, 1.0 ],
						"color1" : [ 0.376471, 0.384314, 0.4, 1.0 ],
						"color2" : [ 0.290196, 0.309804, 0.301961, 1.0 ],
						"proportion" : 0.39,
						"type" : "gradient"
					}
,
					"fontname" : [ "Arial" ],
					"fontsize" : [ 9.0 ]
				}
,
				"parentstyle" : "",
				"multi" : 0
			}
, 			{
				"name" : "jpatcher001",
				"parentstyle" : "",
				"multi" : 0
			}
, 			{
				"name" : "jpatcher002",
				"default" : 				{
					"bgfillcolor" : 					{
						"angle" : 270.0,
						"color" : [ 0.290196, 0.309804, 0.301961, 1.0 ],
						"color1" : [ 0.32549, 0.345098, 0.372549, 0.0 ],
						"color2" : [ 0.290196, 0.309804, 0.301961, 1.0 ],
						"proportion" : 0.39,
						"type" : "color"
					}
,
					"clearcolor" : [ 0.32549, 0.345098, 0.372549, 0.0 ],
					"fontname" : [ "Ableton Sans Book" ],
					"fontsize" : [ 9.5 ],
					"patchlinecolor" : [ 0.65098, 0.65098, 0.65098, 0.0 ]
				}
,
				"parentstyle" : "",
				"multi" : 0
			}
, 			{
				"name" : "jpink",
				"default" : 				{
					"accentcolor" : [ 0.619608, 0.0, 0.360784, 1.0 ],
					"bgcolor" : [ 0.862745, 0.870588, 0.878431, 1.0 ],
					"bgfillcolor" : 					{
						"angle" : 270.0,
						"autogradient" : 0,
						"color" : [ 0.619608, 0.0, 0.360784, 1.0 ],
						"color1" : [ 0.376471, 0.384314, 0.4, 1.0 ],
						"color2" : [ 0.290196, 0.309804, 0.301961, 1.0 ],
						"proportion" : 0.39,
						"type" : "color"
					}
,
					"clearcolor" : [ 0.113725, 0.607843, 0.607843, 1.0 ],
					"color" : [ 0.619608, 0.0, 0.360784, 1.0 ],
					"elementcolor" : [ 0.619608, 0.0, 0.360784, 1.0 ],
					"patchlinecolor" : [ 0.65, 0.65, 0.65, 1.0 ],
					"selectioncolor" : [ 0.619608, 0.0, 0.360784, 1.0 ],
					"textcolor" : [ 0.619608, 0.0, 0.360784, 1.0 ]
				}
,
				"parentstyle" : "",
				"multi" : 0
			}
, 			{
				"name" : "ksliderWhite",
				"default" : 				{
					"color" : [ 1.0, 1.0, 1.0, 1.0 ]
				}
,
				"parentstyle" : "",
				"multi" : 0
			}
, 			{
				"name" : "lightbutton",
				"default" : 				{
					"bgcolor" : [ 0.309495, 0.299387, 0.299789, 1.0 ],
					"elementcolor" : [ 0.654902, 0.572549, 0.376471, 1.0 ]
				}
,
				"parentstyle" : "",
				"multi" : 0
			}
, 			{
				"name" : "newobjBlue-1",
				"default" : 				{
					"accentcolor" : [ 0.317647, 0.654902, 0.976471, 1.0 ]
				}
,
				"parentstyle" : "",
				"multi" : 0
			}
, 			{
				"name" : "newobjBrown-1",
				"default" : 				{
					"accentcolor" : [ 0.654902, 0.572549, 0.376471, 1.0 ]
				}
,
				"parentstyle" : "",
				"multi" : 0
			}
, 			{
				"name" : "newobjCyan-1",
				"default" : 				{
					"accentcolor" : [ 0.029546, 0.773327, 0.821113, 1.0 ]
				}
,
				"parentstyle" : "",
				"multi" : 0
			}
, 			{
				"name" : "newobjGreen-1",
				"default" : 				{
					"accentcolor" : [ 0.0, 0.533333, 0.168627, 1.0 ]
				}
,
				"parentstyle" : "",
				"multi" : 0
			}
, 			{
				"name" : "newobjRed-1",
				"default" : 				{
					"accentcolor" : [ 0.784314, 0.145098, 0.023529, 1.0 ]
				}
,
				"parentstyle" : "",
				"multi" : 0
			}
, 			{
				"name" : "newobjYellow-1",
				"default" : 				{
					"accentcolor" : [ 0.82517, 0.78181, 0.059545, 1.0 ],
					"fontsize" : [ 12.059008 ]
				}
,
				"parentstyle" : "",
				"multi" : 0
			}
, 			{
				"name" : "newobjYellow-2",
				"default" : 				{
					"accentcolor" : [ 0.82517, 0.78181, 0.059545, 1.0 ],
					"fontsize" : [ 12.059008 ]
				}
,
				"parentstyle" : "",
				"multi" : 0
			}
, 			{
				"name" : "numberGold-1",
				"default" : 				{
					"accentcolor" : [ 0.764706, 0.592157, 0.101961, 1.0 ]
				}
,
				"parentstyle" : "",
				"multi" : 0
			}
, 			{
				"name" : "purple",
				"default" : 				{
					"bgcolor" : [ 0.304029, 0.250694, 0.285628, 1.0 ],
					"textcolor_inverse" : [ 0.701961, 0.415686, 0.886275, 1.0 ]
				}
,
				"parentstyle" : "",
				"multi" : 0
			}
, 			{
				"name" : "receives",
				"default" : 				{
					"accentcolor" : [ 0.870588, 0.415686, 0.062745, 1.0 ]
				}
,
				"parentstyle" : "",
				"multi" : 0
			}
, 			{
				"name" : "rsliderGold",
				"default" : 				{
					"bgcolor" : [ 0.764706, 0.592157, 0.101961, 1.0 ],
					"color" : [ 0.646639, 0.821777, 0.854593, 1.0 ]
				}
,
				"parentstyle" : "",
				"multi" : 0
			}
, 			{
				"name" : "sends",
				"default" : 				{
					"accentcolor" : [ 0.0, 0.533333, 0.168627, 1.0 ]
				}
,
				"parentstyle" : "",
				"multi" : 0
			}
, 			{
				"name" : "stb001",
				"default" : 				{
					"fontface" : [ 1 ],
					"fontname" : [ "Arial Bold" ],
					"fontsize" : [ 10.0 ]
				}
,
				"parentstyle" : "",
				"multi" : 0
			}
, 			{
				"name" : "tap",
				"default" : 				{
					"fontname" : [ "Lato Light" ]
				}
,
				"parentstyle" : "",
				"multi" : 0
			}
, 			{
				"name" : "tastefulltoggle",
				"default" : 				{
					"bgcolor" : [ 0.185512, 0.263736, 0.260626, 1.0 ],
					"color" : [ 0.941176, 0.690196, 0.196078, 1.0 ]
				}
,
				"parentstyle" : "",
				"multi" : 0
			}
, 			{
				"name" : "tastefultoggle",
				"default" : 				{
					"bgcolor" : [ 0.287863, 0.333333, 0.329398, 1.0 ],
					"color" : [ 0.941176, 0.690196, 0.196078, 1.0 ],
					"elementcolor" : [ 0.654902, 0.572549, 0.376471, 1.0 ]
				}
,
				"parentstyle" : "",
				"multi" : 0
			}
, 			{
				"name" : "test",
				"default" : 				{
					"fontface" : [ 1 ],
					"fontsize" : [ 10.0 ]
				}
,
				"parentstyle" : "",
				"multi" : 0
			}
, 			{
				"name" : "whitey",
				"default" : 				{
					"fontname" : [ "Dirty Ego" ],
					"fontsize" : [ 36.0 ],
					"patchlinecolor" : [ 0.199068, 0.062496, 0.060031, 0.9 ],
					"selectioncolor" : [ 0.011765, 0.396078, 0.752941, 1.0 ],
					"textcolor_inverse" : [ 0.65098, 0.666667, 0.662745, 1.0 ]
				}
,
				"parentstyle" : "",
				"multi" : 0
			}
 ]
	}

}
