#N canvas 142 106 1259 841 12;
#X obj 138 98 oscunit;
#X obj 139 126 gain;
#X obj 162 323 dac~;
#X msg 146 56 69 80;
#X msg 208 58 69 0;
#X obj 303 88 poly 16;
#X msg 305 34 69 80;
#X msg 367 36 69 0;
#X obj 302 117 pack 0 0 0;
#X obj 302 174 gain;
#X obj 300 382 dac~;
#X msg 419 34 73 80;
#X msg 481 36 73 0;
#X msg 525 36 76 80;
#X msg 587 38 76 0;
#X obj 481 180 notein;
#X floatatom 437 215 5 0 0 0 - - - 0;
#X floatatom 490 214 5 0 0 0 - - - 0;
#X floatatom 538 214 5 0 0 0 - - - 0;
#X msg 219 118 vis 1 1;
#X msg 220 151 vis 2 1;
#X obj 438 247 pack 0 0;
#X obj 302 149 clone oscunit 17;
#X connect 0 0 1 0;
#X connect 1 0 2 0;
#X connect 3 0 0 0;
#X connect 4 0 0 0;
#X connect 5 0 8 0;
#X connect 5 1 8 1;
#X connect 5 2 8 2;
#X connect 6 0 5 0;
#X connect 7 0 5 0;
#X connect 8 0 22 0;
#X connect 9 0 10 0;
#X connect 11 0 5 0;
#X connect 12 0 5 0;
#X connect 13 0 5 0;
#X connect 14 0 5 0;
#X connect 15 0 16 0;
#X connect 15 1 17 0;
#X connect 15 2 18 0;
#X connect 16 0 21 0;
#X connect 17 0 21 1;
#X connect 19 0 22 0;
#X connect 20 0 22 0;
#X connect 21 0 5 0;
#X connect 22 0 9 0;
