#N canvas 84 69 1368 889 12;
#X obj 101 120 tabosc4~ waveform;
#X obj 101 81 mtof;
#X obj 101 47 unpack;
#X obj 249 123 adsr 10 50 0.6 200;
#X obj 203 78 / 127;
#X obj 107 180 *~;
#X obj 101 18 inlet;
#X obj 107 219 outlet~;
#X connect 0 0 5 0;
#X connect 1 0 0 0;
#X connect 2 0 1 0;
#X connect 2 1 4 0;
#X connect 3 0 5 1;
#X connect 4 0 3 0;
#X connect 5 0 7 0;
#X connect 6 0 2 0;
