#N canvas -279 83 1924 947 12;
#X obj 24 42 noise~;
#X obj 24 144 gain;
#X obj 24 109 *~;
#X obj 99 87 adsr 10 100 0 0;
#X obj 24 344 dac~;
#X msg 111 43 1;
#X obj 24 78 hip~ 800;
#X obj 371 32 noise~;
#X obj 363 173 gain;
#X obj 359 370 dac~;
#X obj 370 136 *~;
#X text 484 84 LFO;
#X obj 424 153 *~ 0.5;
#X obj 422 181 +~ 0.8;
#X obj 372 94 lop~ 600;
#X obj 371 65 hip~ 300;
#X obj 215 20 noise~;
#X obj 207 161 gain;
#X obj 198 387 dac~;
#X obj 214 124 *~;
#X obj 293 135 *~ 0.5;
#X obj 291 163 +~ 0.8;
#X obj 216 82 lop~ 600;
#X obj 215 53 hip~ 300;
#X obj 297 105 osc~ 0.07;
#X obj 428 123 osc~ 0.06;
#X obj 526 75 phasor~;
#X obj 524 192 *~;
#X obj 525 222 gain;
#X obj 525 427 dac~;
#X msg 600 97 1;
#X msg 638 99 0;
#X obj 531 5 notein;
#X obj 525 38 mtof;
#X obj 592 61 / 127;
#X obj 766 84 expr~ if($v1>0.5 \, 1 \, 0);
#X obj 765 199 gain;
#X obj 761 425 dac~;
#X obj 765 169 *~;
#X msg 837 110 1;
#X obj 766 54 phasor~ 880;
#X obj 766 111 hip~ 100;
#X obj 818 140 adsr 10 200 0 0;
#X obj 752 140 lop~ 1000;
#X obj 629 243 vcf~;
#X obj 522 100 lop~ 150;
#X obj 618 140 adsr 20 50 0.6 200;
#X obj 540 132 sig~ 150;
#X obj 523 166 vcf~ 2;
#X floatatom 596 177 5 0 0 0 - - - 0;
#X connect 0 0 6 0;
#X connect 1 0 4 0;
#X connect 2 0 1 0;
#X connect 3 0 2 1;
#X connect 5 0 3 0;
#X connect 6 0 2 0;
#X connect 7 0 15 0;
#X connect 8 0 9 0;
#X connect 10 0 8 0;
#X connect 12 0 13 0;
#X connect 13 0 10 1;
#X connect 14 0 10 0;
#X connect 15 0 14 0;
#X connect 16 0 23 0;
#X connect 17 0 18 0;
#X connect 19 0 17 0;
#X connect 20 0 21 0;
#X connect 21 0 19 1;
#X connect 22 0 19 0;
#X connect 23 0 22 0;
#X connect 24 0 20 0;
#X connect 25 0 12 0;
#X connect 26 0 45 0;
#X connect 27 0 28 0;
#X connect 28 0 29 0;
#X connect 30 0 46 0;
#X connect 31 0 46 0;
#X connect 32 0 33 0;
#X connect 32 1 34 0;
#X connect 33 0 26 0;
#X connect 34 0 46 0;
#X connect 35 0 41 0;
#X connect 36 0 37 0;
#X connect 38 0 36 0;
#X connect 39 0 42 0;
#X connect 40 0 35 0;
#X connect 41 0 43 0;
#X connect 42 0 38 1;
#X connect 43 0 38 0;
#X connect 45 0 48 0;
#X connect 46 0 27 1;
#X connect 47 0 48 1;
#X connect 48 0 27 0;
#X connect 49 0 48 2;
