#N canvas -1042 345 1077 587 10;
#X obj 24 187 dac~;
#X obj 24 28 r notes;
#X obj 375 112 tgl 15 0 empty empty empty 17 7 0 10 #fcfcfc #000000 #000000 0 1;
#X obj 374 184 s notes;
#X floatatom 374 163 5 0 0 0 - - - 0;
#N canvas -734 322 619 565 melody_player 0;
#X obj 37 13 inlet;
#X obj 39 290 outlet;
#X floatatom 40 176 5 0 0 0 - - - 0;
#X floatatom 39 235 5 0 0 0 - - - 0;
#X obj 149 114 list length;
#X obj 286 225 array set notepattern;
#X obj 39 214 tabread notepattern;
#X obj 288 248 array define notepattern;
#X floatatom 97 11 5 0 0 0 - - - 0;
#X obj 288 196 r noteList;
#X obj 369 154 s noteList;
#X obj 150 90 r noteList;
#X floatatom 149 135 5 0 0 0 - - - 0;
#X obj 281 16 random 24;
#X obj 376 14 random 60;
#X obj 39 255 sel 0;
#X obj 345 70 loadbang;
#X obj 38 62 metro 1 40 permin;
#X obj 41 91 f 0;
#X obj 40 150 % 8;
#X obj 42 121 + 1;
#X msg 343 98 50 45 47 42 43 38 43 45;
#X connect 0 0 17 0;
#X connect 2 0 6 0;
#X connect 3 0 15 0;
#X connect 4 0 12 0;
#X connect 6 0 3 0;
#X connect 9 0 5 0;
#X connect 11 0 4 0;
#X connect 15 1 1 0;
#X connect 16 0 21 0;
#X connect 17 0 18 0;
#X connect 18 0 20 0;
#X connect 19 0 2 0;
#X connect 19 0 18 1;
#X connect 20 0 19 0;
#X connect 21 0 10 0;
#X restore 374 134 pd melody_player;
#X obj 24 143 clone stringSynth.cl 16;
#N canvas 0 23 450 300 handle_polyphony 0;
#X obj 37 37 inlet;
#X obj 37 149 pack 0 0 0;
#X obj 38 120 - 1;
#X obj 38 78 poly 16 1;
#X obj 37 170 outlet;
#X connect 0 0 3 0;
#X connect 1 0 4 0;
#X connect 2 0 1 0;
#X connect 3 0 2 0;
#X connect 3 1 1 1;
#X connect 3 2 1 2;
#X restore 24 106 pd handle_polyphony;
#X floatatom 24 52 5 0 0 0 - - - 0;
#N canvas 787 87 450 367 create_midi_notes 1;
#X obj 37 37 inlet;
#X obj 36 194 makenote 100 500;
#X floatatom 36 120 5 0 0 0 - - - 0;
#X obj 36 236 pack 0 0;
#X obj 36 257 outlet;
#X obj 34 68 t f b;
#X obj 160 184 print;
#X text 210 118 velocity;
#X obj 128 114 random 5;
#X obj 127 156 + 95;
#X connect 0 0 5 0;
#X connect 1 0 3 0;
#X connect 1 1 3 1;
#X connect 2 0 1 0;
#X connect 3 0 4 0;
#X connect 5 0 2 0;
#X connect 5 1 8 0;
#X connect 8 0 9 0;
#X connect 9 0 1 1;
#X connect 9 0 6 0;
#X restore 24 76 pd create_midi_notes;
#X obj 24 166 *~ 0.95;
#X connect 1 0 8 0;
#X connect 2 0 5 0;
#X connect 4 0 3 0;
#X connect 5 0 4 0;
#X connect 6 0 10 0;
#X connect 7 0 6 0;
#X connect 8 0 9 0;
#X connect 9 0 7 0;
#X connect 10 0 0 0;
#X connect 10 0 0 1;
