#N canvas 676 133 1009 802 10;
#X obj 69 93 mtof;
#X obj 65 561 *~;
#X obj 70 26 inlet;
#X obj 65 582 outlet~;
#X obj 67 422 lop~ 5000;
#N canvas 307 207 1920 976 attack_release_env 1;
#X obj 223 363 line~;
#X floatatom 364 297 5 0 0 0 - - - 0;
#X text 400 297 attack;
#X obj 196 116 sel 0;
#X msg 190 176 0;
#X floatatom 162 294 5 0 0 0 - - - 0;
#X text 197 294 release;
#X obj 223 401 *~;
#X obj 195 66 inlet;
#X obj 223 422 outlet~;
#X obj 119 233 bng 16 250 50 0 empty empty empty 0 -8 0 10 #fcfcfc #000000 #000000;
#X obj 52 303 bng 16 250 50 0 empty empty empty 0 -8 0 10 #fcfcfc #000000 #000000;
#X obj 425 79 print;
#X obj 232 177 / 127;
#X obj 647 356 line~;
#X floatatom 788 290 5 0 0 0 - - - 0;
#X text 824 290 attack;
#X obj 621 125 sel 0;
#X msg 614 169 0;
#X floatatom 586 287 5 0 0 0 - - - 0;
#X text 621 287 release;
#X obj 543 226 bng 16 250 50 0 empty empty empty 0 -8 0 10 #fcfcfc #000000 #000000;
#X obj 476 296 bng 16 250 50 0 empty empty empty 0 -8 0 10 #fcfcfc #000000 #000000;
#X obj 656 170 / 127;
#X obj 1086 344 line~;
#X floatatom 1227 278 5 0 0 0 - - - 0;
#X text 1263 278 attack;
#X obj 1060 113 sel 0;
#X msg 1053 157 0;
#X floatatom 1025 275 5 0 0 0 - - - 0;
#X text 1060 275 release;
#X obj 982 214 bng 16 250 50 0 empty empty empty 0 -8 0 10 #fcfcfc #000000 #000000;
#X obj 915 284 bng 16 250 50 0 empty empty empty 0 -8 0 10 #fcfcfc #000000 #000000;
#X obj 1095 158 / 127;
#X obj 715 321 pack 0 80;
#X obj 1154 309 pack 0 100;
#X obj 291 328 pack 0 200;
#X obj 37 262 delay 20;
#X obj 461 255 delay 20;
#X obj 900 243 delay 25;
#X obj 101 317 pack 0 800;
#X obj 535 315 pack 0 1300;
#X obj 964 297 pack 0 850;
#X connect 0 0 7 0;
#X connect 0 0 7 1;
#X connect 3 0 4 0;
#X connect 3 1 13 0;
#X connect 4 0 10 0;
#X connect 7 0 9 0;
#X connect 8 0 12 0;
#X connect 8 0 3 0;
#X connect 8 0 17 0;
#X connect 8 0 27 0;
#X connect 10 0 37 0;
#X connect 11 0 40 0;
#X connect 13 0 36 0;
#X connect 14 0 7 0;
#X connect 14 0 7 1;
#X connect 17 0 18 0;
#X connect 17 1 23 0;
#X connect 18 0 21 0;
#X connect 21 0 38 0;
#X connect 22 0 41 0;
#X connect 23 0 34 0;
#X connect 24 0 7 0;
#X connect 24 0 7 1;
#X connect 27 0 28 0;
#X connect 27 1 33 0;
#X connect 28 0 31 0;
#X connect 31 0 39 0;
#X connect 32 0 42 0;
#X connect 33 0 35 0;
#X connect 34 0 14 0;
#X connect 35 0 24 0;
#X connect 36 0 0 0;
#X connect 37 0 11 0;
#X connect 38 0 22 0;
#X connect 39 0 32 0;
#X connect 40 0 0 0;
#X connect 41 0 14 0;
#X connect 42 0 24 0;
#X restore 424 397 pd attack_release_env;
#N canvas 872 231 952 1030 string_osc 0;
#X obj 48 8 inlet;
#X obj 44 232 phasor~;
#X obj 43 265 expr~ $v1 > $v2;
#X obj 461 285 +~ 0.5;
#X floatatom 37 94 5 0 0 0 - - - 0;
#X obj 461 264 *~ 0.3;
#X obj 46 202 +~;
#X obj 42 147 sig~;
#X obj 461 242 osc~ 1.864;
#X obj 471 121 loadbang;
#X obj 471 142 random 1000;
#X obj 471 184 + 1;
#X obj 471 164 * 0.002;
#X obj 44 326 outlet~;
#X obj 150 148 osc~ 5;
#X obj 220 149 osc~ 5;
#X obj 291 152 osc~ 5;
#X obj 298 113 + 1;
#X obj 291 172 *~ 0.75;
#X obj 300 79 * 0.5;
#X obj 363 150 osc~ 5;
#X obj 370 111 + 1;
#X obj 372 77 * 0.75;
#X obj 364 174 *~ 0.5;
#X obj 99 75 * 0.75;
#X obj 87 148 osc~ 5;
#X obj 151 168 *~ 0.5;
#X obj 87 168 *~ 0.75;
#X obj 228 77 * 1.25;
#X obj 220 169 *~ 0.25;
#X obj 94 109 + 1;
#X obj 157 109 + 1;
#X obj 227 110 + 1;
#X obj 158 76 * 1.5;
#X obj 44 305 *~ 0.9;
#X connect 0 0 4 0;
#X connect 0 0 24 0;
#X connect 0 0 28 0;
#X connect 0 0 33 0;
#X connect 1 0 2 0;
#X connect 2 0 34 0;
#X connect 3 0 2 1;
#X connect 4 0 7 0;
#X connect 5 0 3 0;
#X connect 6 0 1 0;
#X connect 7 0 6 0;
#X connect 8 0 5 0;
#X connect 9 0 10 0;
#X connect 10 0 12 0;
#X connect 11 0 8 0;
#X connect 12 0 11 0;
#X connect 14 0 26 0;
#X connect 15 0 29 0;
#X connect 16 0 18 0;
#X connect 17 0 16 0;
#X connect 19 0 17 0;
#X connect 20 0 23 0;
#X connect 21 0 20 0;
#X connect 22 0 21 0;
#X connect 24 0 30 0;
#X connect 25 0 27 0;
#X connect 26 0 6 1;
#X connect 27 0 6 1;
#X connect 28 0 32 0;
#X connect 29 0 6 1;
#X connect 30 0 25 0;
#X connect 31 0 14 0;
#X connect 32 0 15 0;
#X connect 33 0 31 0;
#X connect 34 0 13 0;
#X restore 5 146 pd string_osc;
#N canvas 0 23 952 854 string_osc 0;
#X obj 37 37 inlet;
#X obj 44 235 phasor~;
#X obj 44 284 expr~ $v1 > $v2;
#X obj 226 268 +~ 0.5;
#X obj 44 305 *~ 0.25;
#X floatatom 37 94 5 0 0 0 - - - 0;
#X obj 226 247 *~ 0.3;
#X obj 46 202 +~;
#X obj 42 147 sig~;
#X obj 226 225 osc~ 1.864;
#X obj 115 75 osc~ 5;
#X obj 129 49 + 1;
#X obj 394 106 loadbang;
#X obj 394 127 random 1000;
#X obj 431 185 + 1;
#X obj 394 149 * 0.002;
#X obj 44 326 outlet~;
#X obj 121 18 * 0.011;
#X obj 227 114 osc~ 5;
#X obj 297 115 osc~ 5;
#X obj 183 42 * 0.75;
#X obj 182 113 osc~ 5;
#X obj 228 134 *~ 0.5;
#X obj 174 137 *~ 0.75;
#X obj 305 43 * 1.25;
#X obj 290 138 *~ 0.25;
#X obj 190 85 + 1;
#X obj 234 75 + 1;
#X obj 304 76 + 1;
#X obj 235 42 * 1.5;
#X obj 122 104 *~ 0.75;
#X connect 0 0 5 0;
#X connect 0 0 17 0;
#X connect 1 0 2 0;
#X connect 2 0 4 0;
#X connect 3 0 2 1;
#X connect 4 0 16 0;
#X connect 5 0 8 0;
#X connect 6 0 3 0;
#X connect 7 0 1 0;
#X connect 8 0 7 0;
#X connect 9 0 6 0;
#X connect 10 0 30 0;
#X connect 11 0 10 0;
#X connect 12 0 13 0;
#X connect 13 0 15 0;
#X connect 14 0 9 0;
#X connect 15 0 14 0;
#X connect 17 0 11 0;
#X connect 18 0 22 0;
#X connect 19 0 25 0;
#X connect 20 0 26 0;
#X connect 21 0 23 0;
#X connect 24 0 28 0;
#X connect 26 0 21 0;
#X connect 27 0 18 0;
#X connect 28 0 19 0;
#X connect 29 0 27 0;
#X connect 30 0 7 1;
#X restore 864 160 pd string_osc;
#X obj 70 47 unpack f f;
#N canvas 0 23 952 854 string_osc 0;
#X obj 37 37 inlet;
#X obj 44 235 phasor~;
#X obj 44 284 expr~ $v1 > $v2;
#X obj 226 268 +~ 0.5;
#X floatatom 37 94 5 0 0 0 - - - 0;
#X obj 226 247 *~ 0.3;
#X obj 46 202 +~;
#X obj 42 147 sig~;
#X obj 226 225 osc~ 1.864;
#X obj 115 75 osc~ 5;
#X obj 129 49 + 1;
#X obj 394 106 loadbang;
#X obj 394 127 random 1000;
#X obj 431 185 + 1;
#X obj 394 149 * 0.002;
#X obj 44 326 outlet~;
#X obj 121 18 * 0.011;
#X obj 227 114 osc~ 5;
#X obj 297 115 osc~ 5;
#X obj 183 42 * 0.75;
#X obj 182 113 osc~ 5;
#X obj 228 134 *~ 0.5;
#X obj 174 137 *~ 0.75;
#X obj 305 43 * 1.25;
#X obj 290 138 *~ 0.25;
#X obj 190 85 + 1;
#X obj 234 75 + 1;
#X obj 304 76 + 1;
#X obj 235 42 * 1.5;
#X obj 122 104 *~ 0.75;
#X obj 44 305 *~ 0.25;
#X connect 0 0 4 0;
#X connect 0 0 16 0;
#X connect 1 0 2 0;
#X connect 2 0 30 0;
#X connect 3 0 2 1;
#X connect 4 0 7 0;
#X connect 5 0 3 0;
#X connect 6 0 1 0;
#X connect 7 0 6 0;
#X connect 8 0 5 0;
#X connect 9 0 29 0;
#X connect 10 0 9 0;
#X connect 11 0 12 0;
#X connect 12 0 14 0;
#X connect 13 0 8 0;
#X connect 14 0 13 0;
#X connect 16 0 10 0;
#X connect 17 0 21 0;
#X connect 18 0 24 0;
#X connect 19 0 25 0;
#X connect 20 0 22 0;
#X connect 23 0 27 0;
#X connect 25 0 20 0;
#X connect 26 0 17 0;
#X connect 27 0 18 0;
#X connect 28 0 26 0;
#X connect 29 0 6 1;
#X connect 30 0 15 0;
#X restore 170 159 pd string_osc;
#N canvas 0 23 952 854 string_osc 0;
#X obj 37 37 inlet;
#X obj 44 235 phasor~;
#X obj 44 284 expr~ $v1 > $v2;
#X obj 226 268 +~ 0.5;
#X obj 44 305 *~ 0.25;
#X floatatom 37 94 5 0 0 0 - - - 0;
#X obj 226 247 *~ 0.3;
#X obj 46 202 +~;
#X obj 42 147 sig~;
#X obj 226 225 osc~ 1.864;
#X obj 115 75 osc~ 5;
#X obj 129 49 + 1;
#X obj 394 106 loadbang;
#X obj 394 127 random 1000;
#X obj 431 185 + 1;
#X obj 394 149 * 0.002;
#X obj 44 326 outlet~;
#X obj 121 18 * 0.011;
#X obj 227 114 osc~ 5;
#X obj 297 115 osc~ 5;
#X obj 183 42 * 0.75;
#X obj 182 113 osc~ 5;
#X obj 228 134 *~ 0.5;
#X obj 174 137 *~ 0.75;
#X obj 305 43 * 1.25;
#X obj 290 138 *~ 0.25;
#X obj 190 85 + 1;
#X obj 234 75 + 1;
#X obj 304 76 + 1;
#X obj 235 42 * 1.5;
#X obj 122 104 *~ 0.75;
#X connect 0 0 5 0;
#X connect 0 0 17 0;
#X connect 1 0 2 0;
#X connect 2 0 4 0;
#X connect 3 0 2 1;
#X connect 4 0 16 0;
#X connect 5 0 8 0;
#X connect 6 0 3 0;
#X connect 7 0 1 0;
#X connect 8 0 7 0;
#X connect 9 0 6 0;
#X connect 10 0 30 0;
#X connect 11 0 10 0;
#X connect 12 0 13 0;
#X connect 13 0 15 0;
#X connect 14 0 9 0;
#X connect 15 0 14 0;
#X connect 17 0 11 0;
#X connect 18 0 22 0;
#X connect 19 0 25 0;
#X connect 20 0 26 0;
#X connect 21 0 23 0;
#X connect 24 0 28 0;
#X connect 26 0 21 0;
#X connect 27 0 18 0;
#X connect 28 0 19 0;
#X connect 29 0 27 0;
#X connect 30 0 7 1;
#X restore 263 160 pd string_osc;
#N canvas 0 23 952 854 string_osc 0;
#X obj 37 37 inlet;
#X obj 44 235 phasor~;
#X obj 44 284 expr~ $v1 > $v2;
#X obj 226 268 +~ 0.5;
#X obj 44 305 *~ 0.25;
#X floatatom 37 94 5 0 0 0 - - - 0;
#X obj 226 247 *~ 0.3;
#X obj 46 202 +~;
#X obj 42 147 sig~;
#X obj 226 225 osc~ 1.864;
#X obj 115 75 osc~ 5;
#X obj 129 49 + 1;
#X obj 394 106 loadbang;
#X obj 394 127 random 1000;
#X obj 431 185 + 1;
#X obj 394 149 * 0.002;
#X obj 44 326 outlet~;
#X obj 121 18 * 0.011;
#X obj 227 114 osc~ 5;
#X obj 297 115 osc~ 5;
#X obj 183 42 * 0.75;
#X obj 182 113 osc~ 5;
#X obj 228 134 *~ 0.5;
#X obj 174 137 *~ 0.75;
#X obj 305 43 * 1.25;
#X obj 290 138 *~ 0.25;
#X obj 190 85 + 1;
#X obj 234 75 + 1;
#X obj 304 76 + 1;
#X obj 235 42 * 1.5;
#X obj 122 104 *~ 0.75;
#X connect 0 0 5 0;
#X connect 0 0 17 0;
#X connect 1 0 2 0;
#X connect 2 0 4 0;
#X connect 3 0 2 1;
#X connect 4 0 16 0;
#X connect 5 0 8 0;
#X connect 6 0 3 0;
#X connect 7 0 1 0;
#X connect 8 0 7 0;
#X connect 9 0 6 0;
#X connect 10 0 30 0;
#X connect 11 0 10 0;
#X connect 12 0 13 0;
#X connect 13 0 15 0;
#X connect 14 0 9 0;
#X connect 15 0 14 0;
#X connect 17 0 11 0;
#X connect 18 0 22 0;
#X connect 19 0 25 0;
#X connect 20 0 26 0;
#X connect 21 0 23 0;
#X connect 24 0 28 0;
#X connect 26 0 21 0;
#X connect 27 0 18 0;
#X connect 28 0 19 0;
#X connect 29 0 27 0;
#X connect 30 0 7 1;
#X restore 455 158 pd string_osc;
#N canvas 0 23 952 854 string_osc 0;
#X obj 37 37 inlet;
#X obj 44 235 phasor~;
#X obj 44 284 expr~ $v1 > $v2;
#X obj 226 268 +~ 0.5;
#X floatatom 37 94 5 0 0 0 - - - 0;
#X obj 226 247 *~ 0.3;
#X obj 46 202 +~;
#X obj 42 147 sig~;
#X obj 226 225 osc~ 1.864;
#X obj 115 75 osc~ 5;
#X obj 129 49 + 1;
#X obj 394 106 loadbang;
#X obj 394 127 random 1000;
#X obj 431 185 + 1;
#X obj 394 149 * 0.002;
#X obj 44 326 outlet~;
#X obj 121 18 * 0.011;
#X obj 227 114 osc~ 5;
#X obj 297 115 osc~ 5;
#X obj 183 42 * 0.75;
#X obj 182 113 osc~ 5;
#X obj 228 134 *~ 0.5;
#X obj 174 137 *~ 0.75;
#X obj 305 43 * 1.25;
#X obj 290 138 *~ 0.25;
#X obj 190 85 + 1;
#X obj 234 75 + 1;
#X obj 304 76 + 1;
#X obj 235 42 * 1.5;
#X obj 122 104 *~ 0.75;
#X obj 44 305 *~ 0.25;
#X connect 0 0 4 0;
#X connect 0 0 16 0;
#X connect 1 0 2 0;
#X connect 2 0 30 0;
#X connect 3 0 2 1;
#X connect 4 0 7 0;
#X connect 5 0 3 0;
#X connect 6 0 1 0;
#X connect 7 0 6 0;
#X connect 8 0 5 0;
#X connect 9 0 29 0;
#X connect 10 0 9 0;
#X connect 11 0 12 0;
#X connect 12 0 14 0;
#X connect 13 0 8 0;
#X connect 14 0 13 0;
#X connect 16 0 10 0;
#X connect 17 0 21 0;
#X connect 18 0 24 0;
#X connect 19 0 25 0;
#X connect 20 0 22 0;
#X connect 23 0 27 0;
#X connect 25 0 20 0;
#X connect 26 0 17 0;
#X connect 27 0 18 0;
#X connect 28 0 26 0;
#X connect 29 0 6 1;
#X connect 30 0 15 0;
#X restore 356 156 pd string_osc;
#N canvas 0 23 952 854 string_osc 0;
#X obj 37 37 inlet;
#X obj 44 235 phasor~;
#X obj 44 284 expr~ $v1 > $v2;
#X obj 226 268 +~ 0.5;
#X obj 44 305 *~ 0.25;
#X floatatom 37 94 5 0 0 0 - - - 0;
#X obj 226 247 *~ 0.3;
#X obj 46 202 +~;
#X obj 42 147 sig~;
#X obj 226 225 osc~ 1.864;
#X obj 115 75 osc~ 5;
#X obj 129 49 + 1;
#X obj 394 106 loadbang;
#X obj 394 127 random 1000;
#X obj 431 185 + 1;
#X obj 394 149 * 0.002;
#X obj 44 326 outlet~;
#X obj 121 18 * 0.011;
#X obj 227 114 osc~ 5;
#X obj 297 115 osc~ 5;
#X obj 183 42 * 0.75;
#X obj 182 113 osc~ 5;
#X obj 228 134 *~ 0.5;
#X obj 174 137 *~ 0.75;
#X obj 305 43 * 1.25;
#X obj 290 138 *~ 0.25;
#X obj 190 85 + 1;
#X obj 234 75 + 1;
#X obj 304 76 + 1;
#X obj 235 42 * 1.5;
#X obj 122 104 *~ 0.75;
#X connect 0 0 5 0;
#X connect 0 0 17 0;
#X connect 1 0 2 0;
#X connect 2 0 4 0;
#X connect 3 0 2 1;
#X connect 4 0 16 0;
#X connect 5 0 8 0;
#X connect 6 0 3 0;
#X connect 7 0 1 0;
#X connect 8 0 7 0;
#X connect 9 0 6 0;
#X connect 10 0 30 0;
#X connect 11 0 10 0;
#X connect 12 0 13 0;
#X connect 13 0 15 0;
#X connect 14 0 9 0;
#X connect 15 0 14 0;
#X connect 17 0 11 0;
#X connect 18 0 22 0;
#X connect 19 0 25 0;
#X connect 20 0 26 0;
#X connect 21 0 23 0;
#X connect 24 0 28 0;
#X connect 26 0 21 0;
#X connect 27 0 18 0;
#X connect 28 0 19 0;
#X connect 29 0 27 0;
#X connect 30 0 7 1;
#X restore 552 157 pd string_osc;
#N canvas 0 23 952 854 string_osc 0;
#X obj 37 37 inlet;
#X obj 44 235 phasor~;
#X obj 44 284 expr~ $v1 > $v2;
#X obj 226 268 +~ 0.5;
#X obj 44 305 *~ 0.25;
#X floatatom 37 94 5 0 0 0 - - - 0;
#X obj 226 247 *~ 0.3;
#X obj 46 202 +~;
#X obj 42 147 sig~;
#X obj 226 225 osc~ 1.864;
#X obj 115 75 osc~ 5;
#X obj 129 49 + 1;
#X obj 394 106 loadbang;
#X obj 394 127 random 1000;
#X obj 431 185 + 1;
#X obj 394 149 * 0.002;
#X obj 44 326 outlet~;
#X obj 121 18 * 0.011;
#X obj 227 114 osc~ 5;
#X obj 297 115 osc~ 5;
#X obj 183 42 * 0.75;
#X obj 182 113 osc~ 5;
#X obj 228 134 *~ 0.5;
#X obj 174 137 *~ 0.75;
#X obj 305 43 * 1.25;
#X obj 290 138 *~ 0.25;
#X obj 190 85 + 1;
#X obj 234 75 + 1;
#X obj 304 76 + 1;
#X obj 235 42 * 1.5;
#X obj 122 104 *~ 0.75;
#X connect 0 0 5 0;
#X connect 0 0 17 0;
#X connect 1 0 2 0;
#X connect 2 0 4 0;
#X connect 3 0 2 1;
#X connect 4 0 16 0;
#X connect 5 0 8 0;
#X connect 6 0 3 0;
#X connect 7 0 1 0;
#X connect 8 0 7 0;
#X connect 9 0 6 0;
#X connect 10 0 30 0;
#X connect 11 0 10 0;
#X connect 12 0 13 0;
#X connect 13 0 15 0;
#X connect 14 0 9 0;
#X connect 15 0 14 0;
#X connect 17 0 11 0;
#X connect 18 0 22 0;
#X connect 19 0 25 0;
#X connect 20 0 26 0;
#X connect 21 0 23 0;
#X connect 24 0 28 0;
#X connect 26 0 21 0;
#X connect 27 0 18 0;
#X connect 28 0 19 0;
#X connect 29 0 27 0;
#X connect 30 0 7 1;
#X restore 750 161 pd string_osc;
#N canvas 0 23 952 854 string_osc 0;
#X obj 37 37 inlet;
#X obj 44 235 phasor~;
#X obj 44 284 expr~ $v1 > $v2;
#X obj 226 268 +~ 0.5;
#X obj 44 305 *~ 0.25;
#X floatatom 37 94 5 0 0 0 - - - 0;
#X obj 226 247 *~ 0.3;
#X obj 46 202 +~;
#X obj 42 147 sig~;
#X obj 226 225 osc~ 1.864;
#X obj 115 75 osc~ 5;
#X obj 129 49 + 1;
#X obj 394 106 loadbang;
#X obj 394 127 random 1000;
#X obj 431 185 + 1;
#X obj 394 149 * 0.002;
#X obj 44 326 outlet~;
#X obj 121 18 * 0.011;
#X obj 227 114 osc~ 5;
#X obj 297 115 osc~ 5;
#X obj 183 42 * 0.75;
#X obj 182 113 osc~ 5;
#X obj 228 134 *~ 0.5;
#X obj 174 137 *~ 0.75;
#X obj 305 43 * 1.25;
#X obj 290 138 *~ 0.25;
#X obj 190 85 + 1;
#X obj 234 75 + 1;
#X obj 304 76 + 1;
#X obj 235 42 * 1.5;
#X obj 122 104 *~ 0.75;
#X connect 0 0 5 0;
#X connect 0 0 17 0;
#X connect 1 0 2 0;
#X connect 2 0 4 0;
#X connect 3 0 2 1;
#X connect 4 0 16 0;
#X connect 5 0 8 0;
#X connect 6 0 3 0;
#X connect 7 0 1 0;
#X connect 8 0 7 0;
#X connect 9 0 6 0;
#X connect 10 0 30 0;
#X connect 11 0 10 0;
#X connect 12 0 13 0;
#X connect 13 0 15 0;
#X connect 14 0 9 0;
#X connect 15 0 14 0;
#X connect 17 0 11 0;
#X connect 18 0 22 0;
#X connect 19 0 25 0;
#X connect 20 0 26 0;
#X connect 21 0 23 0;
#X connect 24 0 28 0;
#X connect 26 0 21 0;
#X connect 27 0 18 0;
#X connect 28 0 19 0;
#X connect 29 0 27 0;
#X connect 30 0 7 1;
#X restore 1288 157 pd string_osc;
#N canvas 0 23 952 854 string_osc 0;
#X obj 37 37 inlet;
#X obj 44 235 phasor~;
#X obj 44 284 expr~ $v1 > $v2;
#X obj 226 268 +~ 0.5;
#X obj 44 305 *~ 0.25;
#X floatatom 37 94 5 0 0 0 - - - 0;
#X obj 226 247 *~ 0.3;
#X obj 46 202 +~;
#X obj 42 147 sig~;
#X obj 226 225 osc~ 1.864;
#X obj 115 75 osc~ 5;
#X obj 129 49 + 1;
#X obj 394 106 loadbang;
#X obj 394 127 random 1000;
#X obj 431 185 + 1;
#X obj 394 149 * 0.002;
#X obj 44 326 outlet~;
#X obj 121 18 * 0.011;
#X obj 227 114 osc~ 5;
#X obj 297 115 osc~ 5;
#X obj 183 42 * 0.75;
#X obj 182 113 osc~ 5;
#X obj 228 134 *~ 0.5;
#X obj 174 137 *~ 0.75;
#X obj 305 43 * 1.25;
#X obj 290 138 *~ 0.25;
#X obj 190 85 + 1;
#X obj 234 75 + 1;
#X obj 304 76 + 1;
#X obj 235 42 * 1.5;
#X obj 122 104 *~ 0.75;
#X connect 0 0 5 0;
#X connect 0 0 17 0;
#X connect 1 0 2 0;
#X connect 2 0 4 0;
#X connect 3 0 2 1;
#X connect 4 0 16 0;
#X connect 5 0 8 0;
#X connect 6 0 3 0;
#X connect 7 0 1 0;
#X connect 8 0 7 0;
#X connect 9 0 6 0;
#X connect 10 0 30 0;
#X connect 11 0 10 0;
#X connect 12 0 13 0;
#X connect 13 0 15 0;
#X connect 14 0 9 0;
#X connect 15 0 14 0;
#X connect 17 0 11 0;
#X connect 18 0 22 0;
#X connect 19 0 25 0;
#X connect 20 0 26 0;
#X connect 21 0 23 0;
#X connect 24 0 28 0;
#X connect 26 0 21 0;
#X connect 27 0 18 0;
#X connect 28 0 19 0;
#X connect 29 0 27 0;
#X connect 30 0 7 1;
#X restore 640 161 pd string_osc;
#N canvas 0 23 952 854 string_osc 0;
#X obj 37 37 inlet;
#X obj 44 235 phasor~;
#X obj 44 284 expr~ $v1 > $v2;
#X obj 226 268 +~ 0.5;
#X obj 44 305 *~ 0.25;
#X floatatom 37 94 5 0 0 0 - - - 0;
#X obj 226 247 *~ 0.3;
#X obj 46 202 +~;
#X obj 42 147 sig~;
#X obj 226 225 osc~ 1.864;
#X obj 115 75 osc~ 5;
#X obj 129 49 + 1;
#X obj 394 106 loadbang;
#X obj 394 127 random 1000;
#X obj 431 185 + 1;
#X obj 394 149 * 0.002;
#X obj 44 326 outlet~;
#X obj 121 18 * 0.011;
#X obj 227 114 osc~ 5;
#X obj 297 115 osc~ 5;
#X obj 183 42 * 0.75;
#X obj 182 113 osc~ 5;
#X obj 228 134 *~ 0.5;
#X obj 174 137 *~ 0.75;
#X obj 305 43 * 1.25;
#X obj 290 138 *~ 0.25;
#X obj 190 85 + 1;
#X obj 234 75 + 1;
#X obj 304 76 + 1;
#X obj 235 42 * 1.5;
#X obj 122 104 *~ 0.75;
#X connect 0 0 5 0;
#X connect 0 0 17 0;
#X connect 1 0 2 0;
#X connect 2 0 4 0;
#X connect 3 0 2 1;
#X connect 4 0 16 0;
#X connect 5 0 8 0;
#X connect 6 0 3 0;
#X connect 7 0 1 0;
#X connect 8 0 7 0;
#X connect 9 0 6 0;
#X connect 10 0 30 0;
#X connect 11 0 10 0;
#X connect 12 0 13 0;
#X connect 13 0 15 0;
#X connect 14 0 9 0;
#X connect 15 0 14 0;
#X connect 17 0 11 0;
#X connect 18 0 22 0;
#X connect 19 0 25 0;
#X connect 20 0 26 0;
#X connect 21 0 23 0;
#X connect 24 0 28 0;
#X connect 26 0 21 0;
#X connect 27 0 18 0;
#X connect 28 0 19 0;
#X connect 29 0 27 0;
#X connect 30 0 7 1;
#X restore 1514 156 pd string_osc;
#N canvas 0 23 952 854 string_osc 0;
#X obj 37 37 inlet;
#X obj 44 235 phasor~;
#X obj 44 284 expr~ $v1 > $v2;
#X obj 226 268 +~ 0.5;
#X obj 44 305 *~ 0.25;
#X floatatom 37 94 5 0 0 0 - - - 0;
#X obj 226 247 *~ 0.3;
#X obj 46 202 +~;
#X obj 42 147 sig~;
#X obj 226 225 osc~ 1.864;
#X obj 115 75 osc~ 5;
#X obj 129 49 + 1;
#X obj 394 106 loadbang;
#X obj 394 127 random 1000;
#X obj 431 185 + 1;
#X obj 394 149 * 0.002;
#X obj 44 326 outlet~;
#X obj 121 18 * 0.011;
#X obj 227 114 osc~ 5;
#X obj 297 115 osc~ 5;
#X obj 183 42 * 0.75;
#X obj 182 113 osc~ 5;
#X obj 228 134 *~ 0.5;
#X obj 174 137 *~ 0.75;
#X obj 305 43 * 1.25;
#X obj 290 138 *~ 0.25;
#X obj 190 85 + 1;
#X obj 234 75 + 1;
#X obj 304 76 + 1;
#X obj 235 42 * 1.5;
#X obj 122 104 *~ 0.75;
#X connect 0 0 5 0;
#X connect 0 0 17 0;
#X connect 1 0 2 0;
#X connect 2 0 4 0;
#X connect 3 0 2 1;
#X connect 4 0 16 0;
#X connect 5 0 8 0;
#X connect 6 0 3 0;
#X connect 7 0 1 0;
#X connect 8 0 7 0;
#X connect 9 0 6 0;
#X connect 10 0 30 0;
#X connect 11 0 10 0;
#X connect 12 0 13 0;
#X connect 13 0 15 0;
#X connect 14 0 9 0;
#X connect 15 0 14 0;
#X connect 17 0 11 0;
#X connect 18 0 22 0;
#X connect 19 0 25 0;
#X connect 20 0 26 0;
#X connect 21 0 23 0;
#X connect 24 0 28 0;
#X connect 26 0 21 0;
#X connect 27 0 18 0;
#X connect 28 0 19 0;
#X connect 29 0 27 0;
#X connect 30 0 7 1;
#X restore 1614 156 pd string_osc;
#N canvas 0 23 952 854 string_osc 0;
#X obj 37 37 inlet;
#X obj 44 235 phasor~;
#X obj 44 284 expr~ $v1 > $v2;
#X obj 226 268 +~ 0.5;
#X obj 44 305 *~ 0.25;
#X floatatom 37 94 5 0 0 0 - - - 0;
#X obj 226 247 *~ 0.3;
#X obj 46 202 +~;
#X obj 42 147 sig~;
#X obj 226 225 osc~ 1.864;
#X obj 115 75 osc~ 5;
#X obj 129 49 + 1;
#X obj 394 106 loadbang;
#X obj 394 127 random 1000;
#X obj 431 185 + 1;
#X obj 394 149 * 0.002;
#X obj 44 326 outlet~;
#X obj 121 18 * 0.011;
#X obj 227 114 osc~ 5;
#X obj 297 115 osc~ 5;
#X obj 183 42 * 0.75;
#X obj 182 113 osc~ 5;
#X obj 228 134 *~ 0.5;
#X obj 174 137 *~ 0.75;
#X obj 305 43 * 1.25;
#X obj 290 138 *~ 0.25;
#X obj 190 85 + 1;
#X obj 234 75 + 1;
#X obj 304 76 + 1;
#X obj 235 42 * 1.5;
#X obj 122 104 *~ 0.75;
#X connect 0 0 5 0;
#X connect 0 0 17 0;
#X connect 1 0 2 0;
#X connect 2 0 4 0;
#X connect 3 0 2 1;
#X connect 4 0 16 0;
#X connect 5 0 8 0;
#X connect 6 0 3 0;
#X connect 7 0 1 0;
#X connect 8 0 7 0;
#X connect 9 0 6 0;
#X connect 10 0 30 0;
#X connect 11 0 10 0;
#X connect 12 0 13 0;
#X connect 13 0 15 0;
#X connect 14 0 9 0;
#X connect 15 0 14 0;
#X connect 17 0 11 0;
#X connect 18 0 22 0;
#X connect 19 0 25 0;
#X connect 20 0 26 0;
#X connect 21 0 23 0;
#X connect 24 0 28 0;
#X connect 26 0 21 0;
#X connect 27 0 18 0;
#X connect 28 0 19 0;
#X connect 29 0 27 0;
#X connect 30 0 7 1;
#X restore 1082 159 pd string_osc;
#N canvas 0 23 952 854 string_osc 0;
#X obj 37 37 inlet;
#X obj 44 235 phasor~;
#X obj 44 284 expr~ $v1 > $v2;
#X obj 226 268 +~ 0.5;
#X obj 44 305 *~ 0.25;
#X floatatom 37 94 5 0 0 0 - - - 0;
#X obj 226 247 *~ 0.3;
#X obj 46 202 +~;
#X obj 42 147 sig~;
#X obj 226 225 osc~ 1.864;
#X obj 115 75 osc~ 5;
#X obj 129 49 + 1;
#X obj 394 106 loadbang;
#X obj 394 127 random 1000;
#X obj 431 185 + 1;
#X obj 394 149 * 0.002;
#X obj 44 326 outlet~;
#X obj 121 18 * 0.011;
#X obj 227 114 osc~ 5;
#X obj 297 115 osc~ 5;
#X obj 183 42 * 0.75;
#X obj 182 113 osc~ 5;
#X obj 228 134 *~ 0.5;
#X obj 174 137 *~ 0.75;
#X obj 305 43 * 1.25;
#X obj 290 138 *~ 0.25;
#X obj 190 85 + 1;
#X obj 234 75 + 1;
#X obj 304 76 + 1;
#X obj 235 42 * 1.5;
#X obj 122 104 *~ 0.75;
#X connect 0 0 5 0;
#X connect 0 0 17 0;
#X connect 1 0 2 0;
#X connect 2 0 4 0;
#X connect 3 0 2 1;
#X connect 4 0 16 0;
#X connect 5 0 8 0;
#X connect 6 0 3 0;
#X connect 7 0 1 0;
#X connect 8 0 7 0;
#X connect 9 0 6 0;
#X connect 10 0 30 0;
#X connect 11 0 10 0;
#X connect 12 0 13 0;
#X connect 13 0 15 0;
#X connect 14 0 9 0;
#X connect 15 0 14 0;
#X connect 17 0 11 0;
#X connect 18 0 22 0;
#X connect 19 0 25 0;
#X connect 20 0 26 0;
#X connect 21 0 23 0;
#X connect 24 0 28 0;
#X connect 26 0 21 0;
#X connect 27 0 18 0;
#X connect 28 0 19 0;
#X connect 29 0 27 0;
#X connect 30 0 7 1;
#X restore 1191 158 pd string_osc;
#N canvas 0 23 952 854 string_osc 0;
#X obj 37 37 inlet;
#X obj 44 235 phasor~;
#X obj 44 284 expr~ $v1 > $v2;
#X obj 226 268 +~ 0.5;
#X obj 44 305 *~ 0.25;
#X floatatom 37 94 5 0 0 0 - - - 0;
#X obj 226 247 *~ 0.3;
#X obj 46 202 +~;
#X obj 42 147 sig~;
#X obj 226 225 osc~ 1.864;
#X obj 115 75 osc~ 5;
#X obj 129 49 + 1;
#X obj 394 106 loadbang;
#X obj 394 127 random 1000;
#X obj 431 185 + 1;
#X obj 394 149 * 0.002;
#X obj 44 326 outlet~;
#X obj 121 18 * 0.011;
#X obj 227 114 osc~ 5;
#X obj 297 115 osc~ 5;
#X obj 183 42 * 0.75;
#X obj 182 113 osc~ 5;
#X obj 228 134 *~ 0.5;
#X obj 174 137 *~ 0.75;
#X obj 305 43 * 1.25;
#X obj 290 138 *~ 0.25;
#X obj 190 85 + 1;
#X obj 234 75 + 1;
#X obj 304 76 + 1;
#X obj 235 42 * 1.5;
#X obj 122 104 *~ 0.75;
#X connect 0 0 5 0;
#X connect 0 0 17 0;
#X connect 1 0 2 0;
#X connect 2 0 4 0;
#X connect 3 0 2 1;
#X connect 4 0 16 0;
#X connect 5 0 8 0;
#X connect 6 0 3 0;
#X connect 7 0 1 0;
#X connect 8 0 7 0;
#X connect 9 0 6 0;
#X connect 10 0 30 0;
#X connect 11 0 10 0;
#X connect 12 0 13 0;
#X connect 13 0 15 0;
#X connect 14 0 9 0;
#X connect 15 0 14 0;
#X connect 17 0 11 0;
#X connect 18 0 22 0;
#X connect 19 0 25 0;
#X connect 20 0 26 0;
#X connect 21 0 23 0;
#X connect 24 0 28 0;
#X connect 26 0 21 0;
#X connect 27 0 18 0;
#X connect 28 0 19 0;
#X connect 29 0 27 0;
#X connect 30 0 7 1;
#X restore 1389 155 pd string_osc;
#N canvas 0 23 952 854 string_osc 0;
#X obj 37 37 inlet;
#X obj 44 235 phasor~;
#X obj 44 284 expr~ $v1 > $v2;
#X obj 226 268 +~ 0.5;
#X obj 44 305 *~ 0.25;
#X floatatom 37 94 5 0 0 0 - - - 0;
#X obj 226 247 *~ 0.3;
#X obj 46 202 +~;
#X obj 42 147 sig~;
#X obj 226 225 osc~ 1.864;
#X obj 115 75 osc~ 5;
#X obj 129 49 + 1;
#X obj 394 106 loadbang;
#X obj 394 127 random 1000;
#X obj 431 185 + 1;
#X obj 394 149 * 0.002;
#X obj 44 326 outlet~;
#X obj 121 18 * 0.011;
#X obj 227 114 osc~ 5;
#X obj 297 115 osc~ 5;
#X obj 183 42 * 0.75;
#X obj 182 113 osc~ 5;
#X obj 228 134 *~ 0.5;
#X obj 174 137 *~ 0.75;
#X obj 305 43 * 1.25;
#X obj 290 138 *~ 0.25;
#X obj 190 85 + 1;
#X obj 234 75 + 1;
#X obj 304 76 + 1;
#X obj 235 42 * 1.5;
#X obj 122 104 *~ 0.75;
#X connect 0 0 5 0;
#X connect 0 0 17 0;
#X connect 1 0 2 0;
#X connect 2 0 4 0;
#X connect 3 0 2 1;
#X connect 4 0 16 0;
#X connect 5 0 8 0;
#X connect 6 0 3 0;
#X connect 7 0 1 0;
#X connect 8 0 7 0;
#X connect 9 0 6 0;
#X connect 10 0 30 0;
#X connect 11 0 10 0;
#X connect 12 0 13 0;
#X connect 13 0 15 0;
#X connect 14 0 9 0;
#X connect 15 0 14 0;
#X connect 17 0 11 0;
#X connect 18 0 22 0;
#X connect 19 0 25 0;
#X connect 20 0 26 0;
#X connect 21 0 23 0;
#X connect 24 0 28 0;
#X connect 26 0 21 0;
#X connect 27 0 18 0;
#X connect 28 0 19 0;
#X connect 29 0 27 0;
#X connect 30 0 7 1;
#X restore 1714 155 pd string_osc;
#N canvas 0 23 952 854 string_osc 0;
#X obj 37 37 inlet;
#X obj 44 235 phasor~;
#X obj 44 284 expr~ $v1 > $v2;
#X obj 226 268 +~ 0.5;
#X floatatom 37 94 5 0 0 0 - - - 0;
#X obj 226 247 *~ 0.3;
#X obj 46 202 +~;
#X obj 42 147 sig~;
#X obj 226 225 osc~ 1.864;
#X obj 115 75 osc~ 5;
#X obj 129 49 + 1;
#X obj 394 106 loadbang;
#X obj 394 127 random 1000;
#X obj 431 185 + 1;
#X obj 394 149 * 0.002;
#X obj 44 326 outlet~;
#X obj 121 18 * 0.011;
#X obj 227 114 osc~ 5;
#X obj 297 115 osc~ 5;
#X obj 183 42 * 0.75;
#X obj 182 113 osc~ 5;
#X obj 228 134 *~ 0.5;
#X obj 174 137 *~ 0.75;
#X obj 305 43 * 1.25;
#X obj 290 138 *~ 0.25;
#X obj 190 85 + 1;
#X obj 234 75 + 1;
#X obj 304 76 + 1;
#X obj 235 42 * 1.5;
#X obj 122 104 *~ 0.75;
#X obj 44 305 *~ 0.95;
#X connect 0 0 4 0;
#X connect 0 0 16 0;
#X connect 1 0 2 0;
#X connect 2 0 30 0;
#X connect 3 0 2 1;
#X connect 4 0 7 0;
#X connect 5 0 3 0;
#X connect 6 0 1 0;
#X connect 7 0 6 0;
#X connect 8 0 5 0;
#X connect 9 0 29 0;
#X connect 10 0 9 0;
#X connect 11 0 12 0;
#X connect 12 0 14 0;
#X connect 13 0 8 0;
#X connect 14 0 13 0;
#X connect 16 0 10 0;
#X connect 17 0 21 0;
#X connect 18 0 24 0;
#X connect 19 0 25 0;
#X connect 20 0 22 0;
#X connect 23 0 27 0;
#X connect 25 0 20 0;
#X connect 26 0 17 0;
#X connect 27 0 18 0;
#X connect 28 0 26 0;
#X connect 29 0 6 1;
#X connect 30 0 15 0;
#X restore 1814 155 pd string_osc;
#X obj 178 124 * 0.125;
#X obj 364 122 * 0.135;
#X obj 560 122 * 0.145;
#X obj 758 125 * 0.155;
#X obj 872 126 * 0.165;
#X obj 130 155 * 2;
#X obj 272 125 * 0.13;
#X obj 463 122 * 0.14;
#X obj 648 126 * 1.5;
#X obj 1090 125 * 1.0025;
#X obj 1199 123 * 1.005;
#X obj 1296 123 * 1.0075;
#X obj 1397 119 * 1.01;
#X obj 1522 121 * 1.0125;
#X obj 1622 120 * 1.015;
#X obj 1722 120 * 1.0175;
#X obj 1822 119 * 1.02;
#X connect 0 0 6 0;
#X connect 0 0 24 0;
#X connect 0 0 25 0;
#X connect 0 0 26 0;
#X connect 0 0 27 0;
#X connect 0 0 28 0;
#X connect 0 0 29 0;
#X connect 0 0 30 0;
#X connect 0 0 31 0;
#X connect 0 0 32 0;
#X connect 0 0 33 0;
#X connect 0 0 34 0;
#X connect 0 0 35 0;
#X connect 0 0 36 0;
#X connect 0 0 37 0;
#X connect 0 0 38 0;
#X connect 0 0 39 0;
#X connect 0 0 40 0;
#X connect 1 0 3 0;
#X connect 2 0 8 0;
#X connect 4 0 1 0;
#X connect 5 0 1 1;
#X connect 6 0 4 0;
#X connect 8 0 0 0;
#X connect 8 1 5 0;
#X connect 15 0 4 0;
#X connect 17 0 4 0;
#X connect 18 0 4 0;
#X connect 19 0 4 0;
#X connect 20 0 4 0;
#X connect 21 0 4 0;
#X connect 22 0 4 0;
#X connect 23 0 4 0;
#X connect 24 0 9 0;
#X connect 25 0 12 0;
#X connect 26 0 13 0;
#X connect 27 0 14 0;
#X connect 28 0 7 0;
#X connect 29 0 4 1;
#X connect 30 0 10 0;
#X connect 31 0 11 0;
#X connect 32 0 16 0;
#X connect 33 0 19 0;
#X connect 34 0 20 0;
#X connect 35 0 15 0;
#X connect 36 0 21 0;
#X connect 37 0 17 0;
#X connect 38 0 18 0;
#X connect 39 0 22 0;
#X connect 40 0 23 0;
