#N canvas 913 122 1070 912 10;
#X obj 130 48 inlet;
#X obj 142 209 mtof;
#X obj 142 174 t f b b, f 36;
#X obj 223 224 phasor~;
#X obj 223 245 *~ 2051;
#X obj 164 285 tabread4~ wavetable;
#X obj 251 483 *~;
#X obj 387 733 outlet~;
#X obj 169 439 vcf~ 2;
#N canvas 0 23 1010 916 filterEnv 0;
#X obj 201 53 inlet;
#X obj 230 183 line~;
#X obj 230 204 *~;
#X obj 232 310 +~ 60;
#X obj 198 93 t b b, f 14;
#X msg 285 141 1;
#X msg 193 121 0;
#X floatatom 271 257 5 0 0 0 - - - 0;
#X obj 230 246 *~;
#X obj 193 142 pack 0 1000;
#X obj 232 331 outlet~;
#X obj 333 67 inlet;
#X obj 232 289 *~ 6000;
#X connect 0 0 4 0;
#X connect 1 0 2 0;
#X connect 1 0 2 1;
#X connect 2 0 8 0;
#X connect 2 0 8 1;
#X connect 3 0 10 0;
#X connect 4 0 6 0;
#X connect 4 1 5 0;
#X connect 5 0 1 0;
#X connect 6 0 9 0;
#X connect 7 0 12 1;
#X connect 8 0 12 0;
#X connect 9 0 1 0;
#X connect 11 0 9 1;
#X connect 12 0 3 0;
#X restore 293 287 pd filterEnv;
#N canvas 45 254 450 271 amplitudeEnv 0;
#X obj 95 28 inlet;
#X obj 98 144 line~;
#X obj 98 165 *~;
#X obj 98 186 *~;
#X obj 97 52 t b b, f 14;
#X msg 97 94 0;
#X floatatom 150 86 5 0 0 0 - - - 0;
#X obj 97 115 pack 0 1000;
#X text 132 167 amplitude env;
#X obj 98 207 outlet~;
#X obj 212 58 inlet;
#X msg 180 117 1 1;
#X obj 97 72 del 50;
#X connect 0 0 4 0;
#X connect 1 0 2 0;
#X connect 1 0 2 1;
#X connect 2 0 3 0;
#X connect 2 0 3 1;
#X connect 3 0 9 0;
#X connect 4 0 12 0;
#X connect 4 1 11 0;
#X connect 5 0 7 0;
#X connect 6 0 7 1;
#X connect 7 0 1 0;
#X connect 10 0 6 0;
#X connect 11 0 1 0;
#X connect 12 0 5 0;
#X restore 460 258 pd amplitudeEnv;
#X obj 40 230 phasor~;
#X obj 40 251 *~ 2051;
#X obj 37 287 tabread4~ wavetable;
#X text 91 251 detune;
#X obj 39 211 * 1.01;
#X obj 223 399 r resonance;
#X obj 342 262 r filterDur;
#X obj 532 193 r volDur;
#X floatatom 752 309 5 0 0 0 - - - 0;
#X obj 722 380 bng 16 250 50 0 empty empty empty 0 -8 0 10 #fcfcfc #000000 #000000;
#X msg 694 349 1;
#X msg 754 379 0;
#X obj 697 322 bng 16 250 50 0 empty empty empty 0 -8 0 10 #fcfcfc #000000 #000000;
#X obj 739 349 del 50;
#X obj 689 411 adsr 100 10 1 100;
#X obj 753 329 - 80;
#X obj 372 605 *~;
#X obj 302 536 lop~ 5000;
#X obj 572 95 unpack;
#X connect 0 0 29 0;
#X connect 1 0 3 0;
#X connect 1 0 15 0;
#X connect 2 0 1 0;
#X connect 2 1 9 0;
#X connect 2 2 10 0;
#X connect 3 0 4 0;
#X connect 4 0 5 0;
#X connect 5 0 8 0;
#X connect 6 0 28 0;
#X connect 8 1 6 0;
#X connect 9 0 8 1;
#X connect 10 0 6 1;
#X connect 11 0 12 0;
#X connect 12 0 13 0;
#X connect 13 0 8 0;
#X connect 15 0 11 0;
#X connect 16 0 8 2;
#X connect 17 0 9 1;
#X connect 18 0 10 1;
#X connect 19 0 26 0;
#X connect 20 0 22 0;
#X connect 21 0 25 0;
#X connect 22 0 25 0;
#X connect 23 0 21 0;
#X connect 23 0 24 0;
#X connect 24 0 20 0;
#X connect 25 0 27 1;
#X connect 26 0 24 1;
#X connect 27 0 7 0;
#X connect 28 0 27 0;
#X connect 29 0 2 0;
#X connect 29 1 19 0;
#X connect 29 1 23 0;
