#N canvas 282 208 1078 863 12;
#N canvas 264 391 801 497 snare 0;
#X obj 135 13 noise~;
#X obj 209 115 *~;
#X obj 50 15 osc~ 180;
#X obj 270 110 adsr 10 50 0 0;
#X msg 281 63 1;
#X obj 276 35 inlet;
#X obj 210 168 outlet~;
#X obj 50 47 gain 0.8;
#X obj 133 45 gain 0.4;
#X connect 0 0 8 0;
#X connect 1 0 6 0;
#X connect 2 0 7 0;
#X connect 3 0 1 1;
#X connect 4 0 3 0;
#X connect 5 0 4 0;
#X connect 7 0 1 0;
#X connect 8 0 1 0;
#X restore 446 63 pd snare;
#X obj 432 310 dac~;
#X obj 447 102 gain;
#X obj 442 20 bng 19 250 50 0 empty empty empty 0 -10 0 12 #fcfcfc #000000 #000000;
#N canvas 246 145 801 831 bassdrum 0;
#X obj 105 163 *~;
#X obj 155 145 adsr 10 100 0 0;
#X msg 158 123 1;
#X obj 173 89 inlet;
#X obj 154 387 outlet~;
#X obj 105 194 gain 1;
#X obj 91 71 osc~ 140;
#X connect 0 0 5 0;
#X connect 1 0 0 1;
#X connect 2 0 1 0;
#X connect 3 0 2 0;
#X connect 5 0 4 0;
#X connect 6 0 0 0;
#X restore 355 73 pd bassdrum;
#X obj 362 23 bng 19 250 50 0 empty empty empty 0 -10 0 12 #fcfcfc #000000 #000000;
#X obj 359 104 gain;
#X obj 279 103 gain;
#X obj 274 21 bng 19 250 50 0 empty empty empty 0 -10 0 12 #fcfcfc #000000 #000000;
#N canvas 264 391 801 497 hat 0;
#X obj 135 13 noise~;
#X obj 209 115 *~;
#X obj 270 110 adsr 10 50 0 0;
#X msg 281 63 1;
#X obj 276 35 inlet;
#X obj 210 168 outlet~;
#X obj 133 45 gain 0.4;
#X connect 0 0 6 0;
#X connect 1 0 5 0;
#X connect 2 0 1 1;
#X connect 3 0 2 0;
#X connect 4 0 3 0;
#X connect 6 0 1 0;
#X restore 278 64 pd hat;
#X obj 67 61 notein;
#X floatatom 50 98 5 0 0 0 - - - 0;
#X floatatom 98 96 5 0 0 0 - - - 0;
#X floatatom 144 94 5 0 0 0 - - - 0;
#X obj 60 158 pack 0 0;
#X obj 60 193 route 48 50 52;
#X obj 54 234 sel 0;
#X obj 81 275 bng 19 250 50 0 empty empty empty 0 -10 0 12 #fcfcfc #000000 #000000;
#X obj 110 239 sel 0;
#X obj 137 280 bng 19 250 50 0 empty empty empty 0 -10 0 12 #fcfcfc #000000 #000000;
#X obj 164 239 sel 0;
#X obj 191 280 bng 19 250 50 0 empty empty empty 0 -10 0 12 #fcfcfc #000000 #000000;
#X connect 0 0 2 0;
#X connect 2 0 1 0;
#X connect 3 0 0 0;
#X connect 4 0 6 0;
#X connect 5 0 4 0;
#X connect 6 0 1 0;
#X connect 7 0 1 0;
#X connect 8 0 9 0;
#X connect 9 0 7 0;
#X connect 10 0 11 0;
#X connect 10 1 12 0;
#X connect 10 2 13 0;
#X connect 11 0 14 0;
#X connect 12 0 14 1;
#X connect 14 0 15 0;
#X connect 15 0 16 0;
#X connect 15 1 18 0;
#X connect 15 2 20 0;
#X connect 16 1 17 0;
#X connect 17 0 8 0;
#X connect 18 1 19 0;
#X connect 19 0 5 0;
#X connect 20 1 21 0;
#X connect 21 0 3 0;
