#N canvas 713 279 728 512 12;
#X obj 296 49 push 0;
#X obj 297 77 push 1;
#X text 327 49 push 0;
#X text 324 75 push 1;
#X obj 72 52 metro 100;
#X obj 67 92 i;
#X obj 131 90 + 1;
#X floatatom 76 135 5 0 0 0 - - - 0;
#X obj 84 -3 tgl 19 0 empty empty empty 0 -10 0 12 #fcfcfc #000000 #000000 0 1;
#X obj 74 187 s beat;
#X obj 297 103 push 2;
#X obj 297 130 push 3;
#X obj 297 158 push 4;
#X obj 299 185 push 5;
#X obj 298 214 push 6;
#X obj 200 89 % 7;
#N canvas 264 391 801 497 snare 0;
#X obj 135 13 noise~;
#X obj 209 115 *~;
#X obj 50 15 osc~ 180;
#X obj 270 110 adsr 10 50 0 0;
#X msg 281 63 1;
#X obj 276 35 inlet;
#X obj 210 168 outlet~;
#X obj 50 47 gain 0.8;
#X obj 133 45 gain 0.4;
#X connect 0 0 8 0;
#X connect 1 0 6 0;
#X connect 2 0 7 0;
#X connect 3 0 1 1;
#X connect 4 0 3 0;
#X connect 5 0 4 0;
#X connect 7 0 1 0;
#X connect 8 0 1 0;
#X restore 446 63 pd snare;
#X obj 444 34 r sig-snare;
#X obj 447 95 gain 0.5;
#X obj 447 297 dac~;
#X connect 4 0 5 0;
#X connect 5 0 6 0;
#X connect 5 0 7 0;
#X connect 6 0 15 0;
#X connect 7 0 9 0;
#X connect 8 0 4 0;
#X connect 15 0 5 1;
#X connect 16 0 18 0;
#X connect 17 0 16 0;
#X connect 18 0 19 0;
