#N canvas 3 87 1691 808 12;
#X obj 7 98 metro 100;
#X obj 9 129 i;
#X obj 48 128 + 1;
#X obj 84 129 % 16;
#X floatatom 13 172 5 0 0 0 - - - 0;
#X obj 12 61 tgl 19 0 empty empty empty 0 -10 0 12 #fcfcfc #000000 #000000 0 1;
#X obj 13 208 s beat;
#N canvas 264 391 801 497 snare 0;
#X obj 135 13 noise~;
#X obj 209 115 *~;
#X obj 50 15 osc~ 180;
#X obj 270 110 adsr 10 50 0 0;
#X msg 281 63 1;
#X obj 276 35 inlet;
#X obj 210 168 outlet~;
#X obj 50 47 gain 0.8;
#X obj 133 45 gain 0.4;
#X connect 0 0 8 0;
#X connect 1 0 6 0;
#X connect 2 0 7 0;
#X connect 3 0 1 1;
#X connect 4 0 3 0;
#X connect 5 0 4 0;
#X connect 7 0 1 0;
#X connect 8 0 1 0;
#X restore 118 74 pd snare;
#X obj 119 100 gain;
#X obj 118 46 r sig-snare;
#X obj 242 369 dac~;
#X obj 441 41 pushline sig-snare;
#N canvas 246 145 801 831 bassdrum 0;
#X obj 105 163 *~;
#X obj 155 145 adsr 10 100 0 0;
#X msg 158 123 1;
#X obj 173 89 inlet;
#X obj 154 387 outlet~;
#X obj 105 194 gain 1;
#X obj 91 71 osc~ 140;
#X connect 0 0 5 0;
#X connect 1 0 0 1;
#X connect 2 0 1 0;
#X connect 3 0 2 0;
#X connect 5 0 4 0;
#X connect 6 0 0 0;
#X restore 202 72 pd bassdrum;
#X obj 206 103 gain;
#X obj 208 48 r sig-bassdrum;
#X obj 441 66 pushline sig-bassdrum;
#X obj 320 111 gain;
#N canvas 264 391 801 497 hat 0;
#X obj 135 13 noise~;
#X obj 209 115 *~;
#X obj 270 110 adsr 10 50 0 0;
#X msg 281 63 1;
#X obj 276 35 inlet;
#X obj 210 168 outlet~;
#X obj 133 45 gain 0.4;
#X connect 0 0 6 0;
#X connect 1 0 5 0;
#X connect 2 0 1 1;
#X connect 3 0 2 0;
#X connect 4 0 3 0;
#X connect 6 0 1 0;
#X restore 319 72 pd hat;
#X obj 327 37 r sig-hat;
#X obj 441 91 pushline sig-hat;
#X floatatom 69 70 5 0 0 0 - - - 0;
#X obj 360 289 ctlin;
#X floatatom 339 325 5 0 0 0 - - - 0;
#X floatatom 382 326 5 0 0 0 - - - 0;
#X floatatom 423 322 5 0 0 0 - - - 0;
#X obj 621 229 s sig-snare-preset;
#X floatatom 623 179 5 0 0 0 - - - 0;
#X floatatom 616 263 5 0 0 0 - - - 0;
#X obj 614 313 s sig-bassdrum-preset;
#X floatatom 475 273 5 0 0 0 - - - 0;
#X obj 473 323 s sig-hat-preset;
#X obj 457 169 random 65536;
#X obj 459 134 bng 19 250 50 0 empty empty empty 0 -10 0 12 #fcfcfc #000000 #000000;
#X obj 606 147 random 65536;
#X obj 518 237 random 65536;
#X connect 0 0 1 0;
#X connect 1 0 2 0;
#X connect 1 0 4 0;
#X connect 2 0 3 0;
#X connect 3 0 1 1;
#X connect 4 0 6 0;
#X connect 5 0 0 0;
#X connect 7 0 8 0;
#X connect 8 0 10 0;
#X connect 9 0 7 0;
#X connect 12 0 13 0;
#X connect 13 0 10 0;
#X connect 14 0 12 0;
#X connect 16 0 10 0;
#X connect 17 0 16 0;
#X connect 18 0 17 0;
#X connect 20 0 0 1;
#X connect 21 0 22 0;
#X connect 21 1 23 0;
#X connect 21 2 24 0;
#X connect 26 0 25 0;
#X connect 27 0 28 0;
#X connect 29 0 30 0;
#X connect 31 0 29 0;
#X connect 32 0 31 0;
#X connect 32 0 34 0;
#X connect 32 0 33 0;
#X connect 33 0 26 0;
#X connect 34 0 27 0;
