#N canvas 612 117 1116 802 12;
#X obj 101 100 tgl 19 0 empty empty empty 0 -10 0 12 #fcfcfc #000000 #000000 0 1;
#X obj 101 34 bng 19 250 50 0 empty empty empty 0 -10 0 12 #fcfcfc #000000 #000000;
#X msg 101 63 color 8;
#X msg 172 82 color 0;
#X obj 172 55 delay 100;
#X obj 101 3 sel \$1;
#X obj 42 10 r beat;
#X obj 55 133 spigot;
#X obj 50 47 t b b;
#X obj 56 170 outlet;
#X obj 171 7 inlet;
#X obj 239 20 >> \$1;
#X obj 257 54 % 2;
#X connect 0 0 7 1;
#X connect 1 0 2 0;
#X connect 1 0 4 0;
#X connect 2 0 0 0;
#X connect 3 0 0 0;
#X connect 4 0 3 0;
#X connect 5 0 8 0;
#X connect 6 0 5 0;
#X connect 7 0 9 0;
#X connect 8 0 7 0;
#X connect 8 1 1 0;
#X connect 10 0 11 0;
#X connect 11 0 12 0;
#X connect 12 0 0 0;
#X coords 0 -1 1 1 20 20 2 100 100;
