#N canvas 157 200 1378 534 12;
#X obj 101 100 push 0;
#X obj 123 100 push 1;
#X obj 145 100 push 2;
#X obj 168 100 push 3;
#X obj 191 100 push 4;
#X obj 214 100 push 5;
#X obj 236 100 push 6;
#X obj 258 100 push 7;
#X obj 280 100 push 8;
#X obj 302 100 push 9;
#X obj 324 100 push 10;
#X obj 346 100 push 11;
#X obj 368 100 push 12;
#X obj 390 100 push 13;
#X obj 412 100 push 14;
#X obj 434 100 push 15;
#X obj 344 149 bng 19 250 50 0 empty empty empty 0 -10 0 12 #fcfcfc #000000 #000000;
#X obj 418 189 s \$1;
#X obj 159 14 r \$1-preset;
#X connect 0 0 16 0;
#X connect 1 0 16 0;
#X connect 2 0 16 0;
#X connect 3 0 16 0;
#X connect 4 0 16 0;
#X connect 5 0 16 0;
#X connect 6 0 16 0;
#X connect 7 0 16 0;
#X connect 8 0 16 0;
#X connect 9 0 16 0;
#X connect 10 0 16 0;
#X connect 11 0 16 0;
#X connect 12 0 16 0;
#X connect 13 0 16 0;
#X connect 14 0 16 0;
#X connect 15 0 16 0;
#X connect 16 0 17 0;
#X connect 18 0 0 0;
#X connect 18 0 1 0;
#X connect 18 0 2 0;
#X connect 18 0 3 0;
#X connect 18 0 4 0;
#X connect 18 0 5 0;
#X connect 18 0 6 0;
#X connect 18 0 7 0;
#X connect 18 0 8 0;
#X connect 18 0 9 0;
#X connect 18 0 10 0;
#X connect 18 0 11 0;
#X connect 18 0 12 0;
#X connect 18 0 13 0;
#X connect 18 0 14 0;
#X connect 18 0 15 0;
#X coords 0 -1 1 1 356 20 2 100 100;
