#N canvas -9 0 1130 931 12;
#N canvas 894 182 749 528 gain 0;
#X text 24 13 properties: graphics on parent;
#X obj 100 103 vsl 19 162 0 1 0 0 empty empty empty 0 -9 0 12 #fcfcfc #000000 #000000 0 1;
#X obj 100 270 tgl 19 0 empty empty empty 0 -10 0 12 #fcfcfc #000000 #000000 0 1;
#X obj 42 157 *~;
#X obj 44 232 *~;
#X obj 91 51 inlet~;
#X obj 35 292 outlet~;
#X connect 1 0 3 1;
#X connect 2 0 4 1;
#X connect 3 0 4 0;
#X connect 4 0 6 0;
#X connect 5 0 3 0;
#X coords 0 -1 1 1 20 190 2 100 100;
#X restore 120 118 pd gain;
#X obj 123 360 dac~;
#X obj 109 49 osc~ 440;
#X obj 286 77 noise~;
#X obj 285 181 gain;
#X text 6 220 custom gain ->;
#X obj 301 129 *~;
#X obj 362 78 tgl 19 0 empty empty empty 0 -10 0 12 #fcfcfc #000000 #000000 0 1;
#X obj 193 83 osc~ 180;
#X obj 357 126 adsr 10 50 0 0;
#N canvas 38 38 969 565 bassdrum 0;
#X obj 97 120 *~;
#X obj 181 88 adsr 10 100 0 0;
#X obj 98 149 gain;
#X msg 183 48 1;
#X obj 188 14 inlet;
#X obj 99 367 outlet~;
#X obj 74 37 osc~ 140;
#X connect 0 0 2 0;
#X connect 1 0 0 1;
#X connect 2 0 5 0;
#X connect 3 0 1 0;
#X connect 4 0 3 0;
#X connect 6 0 0 0;
#X restore 626 91 pd bassdrum;
#X obj 686 147 gain 0.5;
#X obj 640 5 bng 19 250 50 0 empty empty empty 0 -10 0 12 #fcfcfc #000000 #000000;
#X obj 686 342 dac~;
#X text 277 29 snare;
#X connect 0 0 1 0;
#X connect 2 0 0 0;
#X connect 3 0 6 0;
#X connect 4 0 1 1;
#X connect 6 0 4 0;
#X connect 7 0 9 0;
#X connect 8 0 6 0;
#X connect 9 0 6 1;
#X connect 10 0 11 0;
#X connect 11 0 13 0;
#X connect 11 0 13 1;
#X connect 12 0 10 0;
