#N canvas 152 152 847 560 12;
#X obj 95 505 bng 19 250 50 0 empty empty empty 0 -10 0 12 #fcfcfc #000000 #000000;
#X msg 163 373 1000;
#X text 75 351 BPM: 60 => 1000 msec/quarter note;
#X obj 95 457 metro 1000;
#X obj 94 374 tgl 19 0 empty empty empty 0 -10 0 12 #fcfcfc #000000 #000000 0 1;
#N canvas 329 151 1295 931 test_notes 0;
#X obj 53 72 inlet;
#X obj 53 290 outlet;
#X obj 53 131 f 0;
#X obj 52 173 % 8;
#X obj 195 185 table pitches;
#X obj 53 223 tabread pitches;
#X floatatom 53 247 5 0 0 0 - - - 0;
#X obj 53 152 + 1;
#X floatatom 53 194 5 0 0 0 - - - 0;
#X obj 198 78 loadbang;
#X msg 196 116 \; pitches 0 60 72 48 58 63 70 80 65;
#X obj 53 93 metro 1000;
#X connect 0 0 11 0;
#X connect 2 0 7 0;
#X connect 3 0 2 1;
#X connect 3 0 8 0;
#X connect 5 0 6 0;
#X connect 6 0 1 0;
#X connect 7 0 3 0;
#X connect 8 0 5 0;
#X connect 9 0 10 0;
#X connect 11 0 2 0;
#X restore 272 87 pd test_notes;
#X obj 270 44 tgl 19 0 empty empty empty 0 -10 0 12 #fcfcfc #000000 #000000 0 1;
#X obj 242 268 s notes;
#X floatatom 242 244 5 0 0 0 - - - 0;
#X obj 92 237 dac~;
#X obj 95 40 r notes;
#X floatatom 94 69 5 36 144 0 - - - 0;
#X msg 94 86 next \$1;
#X obj 93 202 *~ 0.25;
#X obj 293 137 pipe 4000;
#X msg 385 110 0;
#X msg 392 153 4000;
#X obj 342 185 pipe 4000;
#X obj 269 11 r start/stop;
#X obj 93 119 clone testSynth.cl 64;
#X connect 1 0 3 1;
#X connect 3 0 0 0;
#X connect 4 0 3 0;
#X connect 5 0 8 0;
#X connect 5 0 14 0;
#X connect 6 0 5 0;
#X connect 8 0 7 0;
#X connect 10 0 11 0;
#X connect 11 0 12 0;
#X connect 12 0 19 0;
#X connect 13 0 9 0;
#X connect 13 0 9 1;
#X connect 14 0 8 0;
#X connect 14 0 17 0;
#X connect 15 0 14 1;
#X connect 16 0 14 1;
#X connect 17 0 8 0;
#X connect 19 0 13 0;
