#N canvas 371 90 744 747 12;
#X obj 46 20 inlet;
#X obj 23 156 float;
#X obj 80 157 int \$1;
#X obj 23 186 pack 0 0;
#X obj 166 282 line~;
#X obj 166 325 outlet~;
#X obj 144 121 delay \$1;
#X obj 144 177 float \$3;
#X obj 213 177 int \$2;
#X obj 144 147 t b b;
#X obj 145 235 pack 0 0;
#X obj 144 203 *;
#X obj 46 82 t b b b f f;
#X obj 46 47 sel 0;
#X obj 290 86 i \$4;
#X msg 289 178 0 \$1;
#X obj 224 13 inlet;
#X obj 224 40 unpack 0 0 0 0;
#X connect 0 0 13 0;
#X connect 1 0 3 0;
#X connect 2 0 3 1;
#X connect 3 0 4 0;
#X connect 4 0 5 0;
#X connect 6 0 9 0;
#X connect 7 0 11 0;
#X connect 8 0 10 1;
#X connect 9 0 7 0;
#X connect 9 1 8 0;
#X connect 10 0 4 0;
#X connect 11 0 10 0;
#X connect 12 0 6 0;
#X connect 12 1 1 0;
#X connect 12 2 2 0;
#X connect 12 3 1 1;
#X connect 12 4 11 1;
#X connect 13 0 14 0;
#X connect 13 1 12 0;
#X connect 14 0 15 0;
#X connect 15 0 4 0;
#X connect 16 0 17 0;
#X connect 17 0 6 1;
#X connect 17 0 2 1;
#X connect 17 1 8 1;
#X connect 17 2 7 1;
#X connect 17 3 14 1;
