#N canvas 114 177 558 574 12;
#X obj 66 149 osc~;
#X obj 65 124 +~;
#X obj 33 -4 inlet;
#X obj 24 94 osc~;
#X obj 24 71 * \$1;
#X obj 64 246 outlet~;
#X obj 65 184 *~;
#X obj 110 159 adsr 10 200 0.8 1000;
#X obj 63 77 * \$2;
#X obj 29 118 *~;
#X obj 219 14 inlet;
#X obj 137 84 / 127;
#X obj 28 19 unpack 0 0;
#X obj 19 45 mtof;
#X obj 129 4 r fm;
#X obj 127 29 unpack;
#X connect 0 0 6 0;
#X connect 1 0 0 0;
#X connect 2 0 12 0;
#X connect 3 0 9 0;
#X connect 4 0 3 0;
#X connect 6 0 5 0;
#X connect 7 0 6 1;
#X connect 8 0 9 1;
#X connect 9 0 1 0;
#X connect 10 0 7 1;
#X connect 11 0 7 0;
#X connect 12 0 13 0;
#X connect 12 1 11 0;
#X connect 13 0 4 0;
#X connect 13 0 8 0;
#X connect 13 0 1 1;
#X connect 14 0 15 0;
#X connect 15 0 4 1;
#X connect 15 1 8 1;
